<svg xmlns="http://www.w3.org/2000/svg" xmlns:xlink="http://www.w3.org/1999/xlink" width="423.444" height="117.861" viewBox="0 0 423.444 117.861">
  <defs>
    <linearGradient id="linear-gradient" x1="0.514" y1="1.148" x2="0.486" y2="-0.148" gradientUnits="objectBoundingBox">
      <stop offset="0" stop-color="#53821b"/>
      <stop offset="1" stop-color="#aad46d"/>
    </linearGradient>
  </defs>
  <g id="button" transform="translate(0)">
    <g id="Group_1" data-name="Group 1" transform="translate(0 0)">
      <path id="Path_1" data-name="Path 1" d="M227.38,388.062a30.734,30.734,0,0,1-26.957-30.5v-56.4a30.734,30.734,0,0,1,30.734-30.734H593.143a30.7,30.7,0,0,1,30.725,30.728v56.4a30.734,30.734,0,0,1-30.734,30.734H231.148a31.034,31.034,0,0,1-3.769-.23Z" transform="translate(-200.423 -270.429)" fill="#79ac24"/>
      <path id="Path_2" data-name="Path 2" d="M275.986,426.215a24.1,24.1,0,0,1-2.832-.167l-.095-.012A23.821,23.821,0,0,1,252.17,402.4V346a23.815,23.815,0,0,1,23.814-23.815h362A23.8,23.8,0,0,1,661.8,346v56.4a23.816,23.816,0,0,1-23.815,23.815H275.986Z" transform="translate(-245.261 -315.265)" fill="url(#linear-gradient)"/>
    </g>
    <text id="START" transform="translate(150 79.844)" fill="#fff" font-size="59" font-family="ArialRoundedMTBold, Arial Rounded MT Bold"><tspan x="0" y="0">Play</tspan></text>
  </g>
</svg>
