<?xml version="1.0" encoding="utf-8"?>
<!-- Generator: Adobe Illustrator 23.0.0, SVG Export Plug-In . SVG Version: 6.00 Build 0)  -->
<svg version="1.1" id="Layer_1" xmlns="http://www.w3.org/2000/svg" xmlns:xlink="http://www.w3.org/1999/xlink" x="0px" y="0px"
	 viewBox="0 0 423.4 117.9" style="enable-background:new 0 0 423.4 117.9;" xml:space="preserve">
<style type="text/css">
	.st0{fill:#79AC24;}
	.st1{fill:url(#Path_2_1_);}
	.st2{enable-background:new    ;}
	.st3{fill:#FFFFFF;}
</style>
<g id="button" transform="translate(0)">
	<g id="Group_1" transform="translate(0 0)">
		<path id="Path_1" class="st0" d="M27,117.6c-15.4-1.9-27-15-27-30.5V30.7C0,13.8,13.8,0,30.7,0l0,0h362c17,0,30.7,13.7,30.7,30.7
			c0,0,0,0,0,0.1v56.4c0,17-13.8,30.7-30.7,30.7l0,0h-362C29.5,117.9,28.2,117.8,27,117.6L27,117.6z"/>
		
			<linearGradient id="Path_2_1_" gradientUnits="userSpaceOnUse" x1="-92.259" y1="451.6222" x2="-92.287" y2="452.9182" gradientTransform="matrix(409.63 0 0 -104.03 38009.5 47108.6133)">
			<stop  offset="0" style="stop-color:#53821B"/>
			<stop  offset="1" style="stop-color:#AAD46D"/>
		</linearGradient>
		<path id="Path_2" class="st1" d="M30.7,110.9c-0.9,0-1.9-0.1-2.8-0.2l-0.1,0C15.9,109.3,6.9,99.2,6.9,87.1V30.7
			c0-13.2,10.7-23.8,23.8-23.8h362c13.1,0,23.8,10.6,23.8,23.8c0,0,0,0,0,0v56.4c0,13.2-10.7,23.8-23.8,23.8H30.7z"/>
	</g>
	<g class="st2">
		<path class="st3" d="M156,66.3V51.1c0-2-0.1-3.2-0.4-3.7c-0.3-0.5-1-1-2.2-1.3c-1.7-0.5-2.6-1.4-2.6-2.6c0-0.9,0.4-1.5,1.1-2
			c0.7-0.5,1.8-0.7,3.2-0.7c0.5,0,1.6,0,3.4,0.1h1.7c3.2,0,5.1,0,5.6-0.1c0.5,0,2.5-0.2,5.9-0.5c1.1-0.1,2.1-0.2,3.1-0.2
			c3.1,0,6,0.6,8.4,1.9c4.3,2.2,6.4,5.8,6.4,10.6c0,3.9-1.5,7.1-4.5,9.4c-2.8,2.2-6.2,3.3-10.3,3.3c-1,0-2.3-0.1-3.7-0.2
			c-0.8-0.1-1.3-0.1-1.5-0.1c-0.6,0-0.8,0.3-0.8,1v0.2L169,71c0,0.9,0.2,1.6,0.5,2.1s0.9,0.9,1.8,1.4c1.2,0.7,1.9,1.4,1.9,2.2
			c0,1.2-0.9,2.1-2.8,2.8s-4.5,1-7.8,1c-7.1,0-10.7-1.2-10.7-3.7c0-0.6,0.2-1,0.5-1.3c0.3-0.3,1-0.7,2.2-1.3
			c0.7-0.4,1.1-0.9,1.2-1.5C155.8,71.9,155.9,69.8,156,66.3z M169,47.5v9.8c0,0.7,0.2,1.2,0.5,1.4c0.6,0.3,1.3,0.4,2.1,0.4
			c1.3,0,2.3-0.4,3.2-1.1c1.2-1,1.9-2.7,1.9-5.1c0-2.5-0.7-4.3-2.2-5.4c-0.9-0.7-2-1.1-3.3-1.1C169.7,46.3,169,46.7,169,47.5z"/>
		<path class="st3" d="M207.9,57v9.2c0,4.1,0.1,6.5,0.2,7.1c0.1,0.7,0.6,1.2,1.4,1.6c0.7,0.3,1.2,0.6,1.4,0.9
			c0.2,0.3,0.4,0.7,0.4,1.2c0,0.6-0.2,1.2-0.7,1.7s-1.1,0.9-1.8,1.1c-1.4,0.4-3.7,0.6-7,0.6c-3.7,0-6.3-0.3-7.8-0.8
			c-0.7-0.2-1.3-0.6-1.7-1.2c-0.4-0.5-0.7-1.1-0.7-1.7c0-0.5,0.1-0.8,0.4-1.1c0.2-0.2,0.8-0.5,1.6-0.9c0.7-0.3,1.2-1.2,1.4-2.7
			c0.3-2.5,0.5-6,0.5-10.7c0-4.7-0.1-7.7-0.4-9c-0.3-1.3-0.9-2.3-2-3c-0.8-0.5-1.4-0.9-1.7-1.3c-0.3-0.4-0.4-0.9-0.4-1.5
			c0-0.9,0.5-1.8,1.4-2.5c0.9-0.7,2.3-1.3,4.3-1.9c1.3-0.4,3-0.8,5.2-1.2c2.1-0.4,3.6-0.5,4.6-0.5c1.5,0,2.3,0.9,2.3,2.8
			c0,0.6-0.1,2-0.3,4.2C208.1,51,207.9,54.1,207.9,57z"/>
		<path class="st3" d="M229.5,51.1c3.3,0,6.2,0.8,8.5,2.5c1.2,0.9,2.1,1.9,2.6,3.1s0.7,2.8,0.7,4.8l-0.1,4.3c0,3,0.2,4.9,0.6,5.8
			c0.2,0.4,0.4,0.7,0.6,0.8c0.2,0.1,0.6,0.2,1.2,0.3c0.6,0.1,0.9,0.5,0.9,1.2c0,0.9-0.4,1.9-1.1,2.9c-0.7,1-1.7,1.8-2.9,2.5
			c-1.4,0.8-2.9,1.3-4.5,1.3c-2,0-3.6-0.7-4.8-2.1c-0.4-0.5-0.8-0.7-1.1-0.7c-0.4,0-0.9,0.2-1.5,0.7c-1.9,1.4-4.1,2.1-6.5,2.1
			c-2.5,0-4.6-0.5-6.1-1.6c-1-0.7-1.8-1.6-2.4-2.8c-0.6-1.1-0.9-2.3-0.9-3.6c0-2,0.8-3.8,2.4-5.3c2.5-2.4,6.3-3.6,11.3-3.7
			c1.1,0,1.8-0.1,2.1-0.3c0.3-0.2,0.4-0.7,0.4-1.5c0-2-0.2-3.5-0.6-4.4s-1.1-1.4-2.1-1.4c-0.6,0-1.1,0.2-1.5,0.5s-1,1-1.7,1.9
			c-1.7,2.4-3.5,3.7-5.4,3.7c-0.9,0-1.7-0.3-2.3-0.8c-0.6-0.6-0.9-1.3-0.9-2.2c0-0.9,0.4-1.8,1.1-2.8c0.7-0.9,1.7-1.7,3-2.4
			C222,52,225.7,51.1,229.5,51.1z M227.5,67.8c-0.8,0-1.6,0.3-2.2,1c-0.6,0.7-0.9,1.5-0.9,2.5c0,0.9,0.2,1.7,0.7,2.2
			c0.4,0.6,1,0.8,1.8,0.8c1.5,0,2.3-1.3,2.3-3.9c0-1.1-0.1-1.8-0.3-2.1C228.6,68,228.1,67.8,227.5,67.8z"/>
		<path class="st3" d="M272.2,65.3l-3.8,10.5c-0.9,2.6-1.9,4.7-2.8,6.4c-1,1.6-2,3-3.2,4.2c-2.5,2.4-5.5,3.6-9,3.6
			c-2.8,0-5.1-0.8-6.9-2.2c-1.4-1.2-2-2.6-2-4.4c0-1.5,0.5-2.7,1.4-3.7c1-1,2.1-1.5,3.5-1.5s2.5,0.5,3.3,1.4
			c0.4,0.4,0.7,0.8,0.8,1.1c0.1,0.3,0.3,1,0.6,2.2c0.2,0.8,0.7,1.3,1.4,1.3c0.6,0,1.1-0.3,1.5-0.8c0.4-0.5,0.6-1.2,0.6-1.9
			c0-0.9-0.5-2.4-1.5-4.5l-6.9-14.8c-0.7-1.5-1.3-2.5-1.6-2.9c-0.4-0.4-1.2-0.9-2.4-1.4c-0.4-0.2-0.7-0.5-1-0.9
			c-0.3-0.5-0.4-0.9-0.4-1.3c0-1.7,1.7-2.9,5.1-3.5c2.3-0.4,4.8-0.6,7.7-0.6c2,0,3.6,0.2,4.8,0.6c1.6,0.6,2.4,1.5,2.4,2.9
			c0,0.5-0.2,1-0.7,1.7c-0.4,0.6-0.6,1.2-0.6,1.6c0,0.5,0.1,0.9,0.3,1.4c0.2,0.5,0.6,1.3,1.3,2.5c0.7,1.3,1.4,2,1.9,2
			c0.6,0,1.2-0.6,1.8-1.8c0.6-1.2,1-2.3,1-3.4c0-0.9-0.2-1.6-0.7-2.2c-0.7-0.9-1.1-1.6-1.1-2.2c0-1,0.7-1.8,2-2.3
			c1.3-0.6,3.1-0.9,5.2-0.9c4.1,0,6.1,1,6.1,2.9c0,0.7-0.2,1.3-0.6,1.7c-0.4,0.4-1.2,0.8-2.3,1.2c-0.9,0.3-1.7,0.9-2.2,1.7
			C274.3,60.2,273.3,62.4,272.2,65.3z"/>
	</g>
</g>
</svg>
