<svg xmlns="http://www.w3.org/2000/svg" width="24.513" height="24.513" viewBox="0 0 24.513 24.513">
  <g id="cancel_2_" data-name="cancel (2)" transform="translate(0 -0.003)">
    <path id="Path_8063" data-name="Path 8063" d="M24.513,12.26A12.257,12.257,0,1,0,12.257,24.516,12.256,12.256,0,0,0,24.513,12.26Z" transform="translate(0 0)" fill="#ba7988"/>
    <path id="Path_8064" data-name="Path 8064" d="M147.978,133.567l3.583-4.16a1.084,1.084,0,0,0-1.643-1.415l-3.371,3.914-3.371-3.914a1.084,1.084,0,1,0-1.643,1.415l3.583,4.16-3.583,4.16a1.084,1.084,0,0,0,1.643,1.415l3.371-3.914,3.371,3.914a1.084,1.084,0,0,0,1.643-1.415Z" transform="translate(-134.291 -121.308)" fill="#fff"/>
  </g>
</svg>
