<svg xmlns="http://www.w3.org/2000/svg" width="140" height="102" viewBox="0 0 140 102">
  <g id="Comp2" transform="translate(-1622 -376)">
    <rect id="Rectangle_77" data-name="Rectangle 77" width="140" height="102" rx="20" transform="translate(1622 376)" fill="#105477" opacity="0"/>
    <g id="carbopol" transform="translate(1559.924 -26.624)">
      <g id="Group_882" data-name="Group 882" transform="translate(95.076 428.587)">
        <g id="Group_881" data-name="Group 881">
          <g id="Group_839" data-name="Group 839" transform="translate(1.676 10.948)">
            <g id="Group_838" data-name="Group 838">
              <path id="Path_5010" data-name="Path 5010" d="M97.075,444.891s-2.246,28.327,34.607,28.327,35.691-28.327,35.691-28.327L127,446.779l-19.608-3.05Z" transform="translate(-97.049 -443.729)" fill="#f15c32"/>
            </g>
          </g>
          <g id="Group_841" data-name="Group 841" transform="translate(6.245 15.796)" style="mix-blend-mode: screen;isolation: isolate">
            <g id="Group_840" data-name="Group 840">
              <path id="Path_5011" data-name="Path 5011" d="M102.429,450.564s3.9,21.147,30.9,23.5c-10.623-4.1-18.672-13.365-19.252-22.4l-5.242-2.227-6.1.636Z" transform="translate(-102.429 -449.437)" fill="#1c1c1c"/>
            </g>
          </g>
          <g id="Group_843" data-name="Group 843" transform="translate(1.695 13.489)" style="mix-blend-mode: multiply;isolation: isolate">
            <g id="Group_842" data-name="Group 842">
              <path id="Path_5012" data-name="Path 5012" d="M97.493,450.955c2.908.9,9.971,3.8,30.639,3.9,19.989.09,32.427-3.245,38.88-5.262.119-.7.2-1.344.256-1.9l-5.079-.576-25.673-.33L127,447.23h0l-3.268-.509H97.412l-.34.481A27.7,27.7,0,0,0,97.493,450.955Z" transform="translate(-97.072 -446.721)" fill="#792e19"/>
            </g>
          </g>
          <g id="Group_845" data-name="Group 845" transform="translate(0 2.579)">
            <g id="Group_844" data-name="Group 844">
              <path id="Path_5013" data-name="Path 5013" d="M126.485,436.629l-6.194-1.759-1.759-.994-23.456,2.4v9.172c0,2.749,16.494,4.978,36.839,4.978s36.839-2.229,36.839-4.978v-9.172Z" transform="translate(-95.076 -433.876)" fill="#f15c32"/>
            </g>
          </g>
          <g id="Group_848" data-name="Group 848" transform="translate(63.267 17.615)">
            <g id="Group_847" data-name="Group 847" style="mix-blend-mode: multiply;isolation: isolate">
              <g id="Group_846" data-name="Group 846">
                <path id="Path_5014" data-name="Path 5014" d="M169.567,451.58h0Z" transform="translate(-169.567 -451.579)" fill="#f1f2f2"/>
              </g>
            </g>
          </g>
          <g id="Group_850" data-name="Group 850" transform="translate(2.035 4.024)" style="mix-blend-mode: screen;isolation: isolate">
            <g id="Group_849" data-name="Group 849">
              <path id="Path_5015" data-name="Path 5015" d="M112.087,440.25l-.357-1.326a57.5,57.5,0,0,0-6.971-3.347l-7.257.742a64.434,64.434,0,0,0,.831,11.321,71.388,71.388,0,0,0,13.745,2.225A85.363,85.363,0,0,1,112.087,440.25Z" transform="translate(-97.472 -435.577)" fill="#1c1c1c"/>
            </g>
          </g>
          <g id="Group_852" data-name="Group 852">
            <g id="Group_851" data-name="Group 851">
              <path id="Path_5016" data-name="Path 5016" d="M168.755,435.816c0-2.749-16.494-4.977-36.839-4.977s-36.839,2.228-36.839,4.977,16.494,4.977,36.839,4.977S168.755,438.565,168.755,435.816Z" transform="translate(-95.076 -430.839)" fill="#ffbeba"/>
            </g>
          </g>
          <g id="Group_854" data-name="Group 854" transform="translate(1.675 0.795)">
            <g id="Group_853" data-name="Group 853">
              <path id="Path_5017" data-name="Path 5017" d="M167.377,435.957c0-2.309-15.744-4.182-35.165-4.182s-35.165,1.873-35.165,4.182,15.744,4.182,35.165,4.182S167.377,438.266,167.377,435.957Z" transform="translate(-97.048 -431.775)" fill="#852d2a"/>
            </g>
          </g>
          <g id="Group_856" data-name="Group 856" transform="translate(42.501 0.849)" style="mix-blend-mode: multiply;isolation: isolate">
            <g id="Group_855" data-name="Group 855">
              <path id="Path_5018" data-name="Path 5018" d="M145.311,440.091c2.572-.052,5.048-.136,7.4-.25a70.416,70.416,0,0,0,1.169-7.69c-2.75-.147-5.689-.253-8.76-.313C145.232,434.034,145.36,437.258,145.311,440.091Z" transform="translate(-145.117 -431.839)" fill="#f1f2f2"/>
            </g>
          </g>
          <g id="Group_858" data-name="Group 858" transform="translate(37.755 0.797)" style="mix-blend-mode: multiply;isolation: isolate">
            <g id="Group_857" data-name="Group 857">
              <path id="Path_5019" data-name="Path 5019" d="M139.529,440.138c2.85-.009,5.616-.058,8.258-.143l-.679-8.1c-2.436-.071-4.971-.114-7.579-.121Z" transform="translate(-139.529 -431.777)" fill="#f1f2f2"/>
            </g>
          </g>
          <g id="Group_863" data-name="Group 863" transform="translate(4.008 8.375)">
            <g id="Group_860" data-name="Group 860" style="mix-blend-mode: screen;isolation: isolate">
              <g id="Group_859" data-name="Group 859">
                <path id="Path_5020" data-name="Path 5020" d="M105.136,444.646l-.081-3.22s-2.755-.247-5.261-.726l.1,2.863A37.45,37.45,0,0,0,105.136,444.646Z" transform="translate(-99.795 -440.7)" fill="#404040"/>
              </g>
            </g>
            <g id="Group_862" data-name="Group 862" transform="translate(0.161 4.74)" style="mix-blend-mode: screen;isolation: isolate">
              <g id="Group_861" data-name="Group 861">
                <path id="Path_5021" data-name="Path 5021" d="M99.985,446.281l.077,2.275a22,22,0,0,0,5.206.985l-.075-2.937Z" transform="translate(-99.985 -446.281)" fill="#404040"/>
              </g>
            </g>
          </g>
          <g id="Group_868" data-name="Group 868" transform="translate(9.452 21.459)">
            <g id="Group_865" data-name="Group 865" transform="translate(11.703 10.854)" style="mix-blend-mode: screen;isolation: isolate">
              <g id="Group_864" data-name="Group 864">
                <path id="Path_5022" data-name="Path 5022" d="M119.984,470.995a32.227,32.227,0,0,0,8.85,3.932,36.826,36.826,0,0,1-7.166-6.042Z" transform="translate(-119.984 -468.885)" fill="#404040"/>
              </g>
            </g>
            <g id="Group_867" data-name="Group 867" style="mix-blend-mode: screen;isolation: isolate">
              <g id="Group_866" data-name="Group 866">
                <path id="Path_5023" data-name="Path 5023" d="M118.817,466.089a27.183,27.183,0,0,1-5.414-9.283,40.344,40.344,0,0,1-7.2-.7,32.344,32.344,0,0,0,9.895,11.723Z" transform="translate(-106.205 -456.105)" fill="#404040"/>
              </g>
            </g>
          </g>
          <g id="Group_880" data-name="Group 880" transform="translate(1.675 0.795)">
            <g id="Group_870" data-name="Group 870">
              <g id="Group_869" data-name="Group 869">
                <path id="Path_5024" data-name="Path 5024" d="M167.377,435.957c0-2.309-15.744-4.182-35.165-4.182s-35.165,1.873-35.165,4.182,15.744,4.182,35.165,4.182S167.377,438.266,167.377,435.957Z" transform="translate(-97.048 -431.775)" fill="#792e19"/>
              </g>
            </g>
            <g id="Group_879" data-name="Group 879" transform="translate(7.867 3.986)" style="mix-blend-mode: multiply;isolation: isolate">
              <g id="Group_872" data-name="Group 872" transform="translate(34.464 1.806)">
                <g id="Group_871" data-name="Group 871">
                  <path id="Path_5025" data-name="Path 5025" d="M146.938,438.7a1.134,1.134,0,0,0-.049-.109A1.133,1.133,0,0,0,146.938,438.7Z" transform="translate(-146.889 -438.594)" fill="#e6e7e8"/>
                </g>
              </g>
              <g id="Group_874" data-name="Group 874" transform="translate(0 0.518)">
                <g id="Group_873" data-name="Group 873">
                  <path id="Path_5026" data-name="Path 5026" d="M106.311,437.078a1.2,1.2,0,0,0,.059.3A.313.313,0,0,0,106.311,437.078Z" transform="translate(-106.311 -437.078)" fill="#e6e7e8"/>
                </g>
              </g>
              <g id="Group_876" data-name="Group 876" transform="translate(25.312 2.289)">
                <g id="Group_875" data-name="Group 875">
                  <path id="Path_5027" data-name="Path 5027" d="M136.231,439.51a1.082,1.082,0,0,0-.117-.347A.855.855,0,0,0,136.231,439.51Z" transform="translate(-136.114 -439.163)" fill="#e6e7e8"/>
                </g>
              </g>
              <g id="Group_878" data-name="Group 878" transform="translate(47.374)">
                <g id="Group_877" data-name="Group 877">
                  <path id="Path_5028" data-name="Path 5028" d="M162.352,436.968a1.667,1.667,0,0,0-.263-.5A3.861,3.861,0,0,0,162.352,436.968Z" transform="translate(-162.089 -436.468)" fill="#e6e7e8"/>
                </g>
              </g>
            </g>
          </g>
        </g>
      </g>
      <g id="Group_884" data-name="Group 884" transform="translate(99.084 415.89)">
        <g id="Group_883" data-name="Group 883">
          <path id="Path_5029" data-name="Path 5029" d="M99.795,435.063h0c5.07,1.569,17.857,2.682,32.831,2.682a208.173,208.173,0,0,0,26.847-1.481c8.505-1.3,7.906-2.244,7.906-2.244S143.1,415.89,132.58,415.89C123.66,415.89,99.795,435.063,99.795,435.063Z" transform="translate(-99.795 -415.89)" fill="#faf5e6"/>
        </g>
      </g>
      <g id="Group_886" data-name="Group 886" transform="translate(132.219 416.516)">
        <g id="Group_885" data-name="Group 885">
          <path id="Path_5030" data-name="Path 5030" d="M139.068,416.734c-1.683.781,5.245,4.743,8.606,6.511s9,7.8,11.429,8.94a46.859,46.859,0,0,1,5.807,3.578s4.734-.044,7.8-1.6c0,0-5.245-3.96-7.768-5.462s-9.112-5.674-12.363-7.539S140.666,415.993,139.068,416.734Z" transform="translate(-138.809 -416.627)" fill="#e6dfcf"/>
        </g>
      </g>
    </g>
  </g>
</svg>
