<svg xmlns="http://www.w3.org/2000/svg" width="663.125" height="516.68" viewBox="0 0 663.125 516.68">
  <g id="Group_1462" data-name="Group 1462" transform="translate(-288.965 -216.045)">
    <path id="Path_8119" data-name="Path 8119" d="M288.965,471.347V361.785h42.1c9.858,0,16.589,6.573,16.589,16.434v76.539c0,9.858-6.731,16.589-16.589,16.589Zm39.129-90.936c0-.47-.156-.628-.628-.628H308.528v73.563h18.938c.472,0,.628-.156.628-.625Z" transform="translate(0 220.305)" fill="#00486f"/>
    <path id="Path_8120" data-name="Path 8120" d="M357.694,471.348l-11.114-42.73H337.5v42.73H317.94V361.786h42.1c9.858,0,16.589,6.573,16.589,16.434v33.965c0,7.982-4.227,13.93-11.581,15.808L378.2,471.348ZM337.5,410.617h18.938c.472,0,.628-.156.628-.625V380.412c0-.472-.156-.628-.628-.628H337.5Z" transform="translate(43.799 220.306)" fill="#00486f"/>
    <path id="Path_8121" data-name="Path 8121" d="M387.432,429.087v42.261H367.869V429.087l-23.32-67.3h21.128l11.739,43.2.314,1.723.311-1.723,11.9-43.2h21.13Z" transform="translate(84.022 220.305)" fill="#00486f"/>
    <path id="Path_8122" data-name="Path 8122" d="M386.734,471.348V361.785H437.6v18H406.3v25.983h23.479v17.217H406.3v30.363h31.3v18Z" transform="translate(147.79 220.305)" fill="#00486f"/>
    <path id="Path_8123" data-name="Path 8123" d="M451.926,429.087v42.261H432.363V429.087l-23.321-67.3h21.128l11.739,43.2.314,1.723.311-1.723,11.9-43.2h21.13Z" transform="translate(181.513 220.305)" fill="#00486f"/>
    <path id="Path_8124" data-name="Path 8124" d="M438.765,471.348V361.785h50.868v18h-31.3v25.983h23.479v17.217H458.328v30.363h31.3v18Z" transform="translate(226.443 220.305)" fill="#00486f"/>
    <path id="Path_8125" data-name="Path 8125" d="M475.842,471.348V361.785h19.563v91.561h31.305v18Z" transform="translate(282.489 220.305)" fill="#00486f"/>
    <path id="Path_8126" data-name="Path 8126" d="M545.229,456.478h-23.79l-2.974,14.869h-20.5l23.476-109.562h23.637L568.55,471.347h-20.5Zm-3.443-17.217L533.8,397.47l-.467-3.911-.472,3.911-8.138,41.791Z" transform="translate(315.927 220.305)" fill="#00486f"/>
    <path id="Path_8127" data-name="Path 8127" d="M529.618,471.348V361.786h42.1c9.858,0,16.589,6.573,16.589,16.434v23.32c0,6.731-2.662,10.956-7.826,12.679v.314c5.008,1.72,7.826,5.948,7.826,12.679v27.545c0,9.861-6.731,16.592-16.589,16.592Zm39.129-90.936c0-.472-.156-.628-.625-.628H549.184v25.983h18.938c.47,0,.625-.158.625-.628Zm0,43.2c0-.47-.156-.625-.625-.625H549.184v30.363h18.938c.47,0,.625-.158.625-.625Z" transform="translate(363.778 220.306)" fill="#00486f"/>
    <path id="Path_8128" data-name="Path 8128" d="M384.974,430.263a102.62,102.62,0,0,1,62.454-125.868V274.1h-.068V265h-7.907V245.864h89.371V265h-7.487v23.155h.073v16.883c-1.969,4.024-4.85,9.527-8.042,15.522a84.186,84.186,0,0,0-9.466-2.966v-.633l0-51.325H465.3l-.362,51.325h-.57v.131a85.557,85.557,0,0,0-61.449,113.174Z" transform="translate(138.497 45.075)" fill="#f47c11" fill-rule="evenodd"/>
    <path id="Path_8129" data-name="Path 8129" d="M554.372,280.235c-27.219,4.908-19.993,45.908,7.284,41.186a20.107,20.107,0,0,0,3.368-.892,85.488,85.488,0,0,1-141.5,88.53h11.5V393.81H379.688v15.248h21.62a103.073,103.073,0,0,0,27.62,26.206H416.961v19.252H550.8V435.265H539.94a102.569,102.569,0,0,0,38.034-128.123,20.876,20.876,0,0,0,.522-10.18c-1.924-10.082-11.569-18.99-24.124-16.727m1.622,9.082a11.3,11.3,0,0,1,7.522,1.15c.2.105.389.221.58.339l.141.088c.136.085.269.176.4.269l.028.018.126.088.133.1c.178.133.349.269.517.412l.128.105.105.1.015.013.123.11.01.008.111.105.236.226,0,.005.115.116.113.118.221.241.108.123.012.013.1.113.105.126.075.09.03.038.085.1.015.023.1.131.1.131.1.136.065.09.058.085.063.088.093.138.005.01.08.123,0,0,.085.138.083.128.007.018.116.193c.07.121.138.244.2.367l.018.03.025.048.075.148.025.045.007.015.07.146.04.085.033.063.065.148.058.133.007.013.06.138,0,.015.06.146.038.09.025.063.055.148.015.043.04.113.05.146,0,.005.008.02c.045.148.1.294.141.442l.01.048.005.015.07.244v0l.04.158.023.1.015.055.035.158.01.048.005.02.05.246.055.3,0,.023.043.279,0,.02.02.148.023.181.007.085.023.239.005.083.018.2.005.153.01.166,0,.1.005.216v.1l0,.208v.088l-.01.244-.005.055-.01.186-.008.108,0,.03-.023.274v.005l-.033.276,0,.02-.038.256-.007.043-.038.229,0,.018-.033.166-.025.126-.033.163-.028.108-.038.151-.035.146-.028.111-.05.171-.033.113-.043.141-.045.128-.05.158-.028.078-.02.053-.035.1-.058.153h0l-.1.241,0,.008-.11.259-.1.224,0,.008-.063.131-.068.133-.048.093-.073.146-.073.128-.05.093-.083.143-.063.108-.075.121-.028.048-.083.133-.023.033-.1.143-.063.1-.068.1-.093.131-.01.013-.131.181-.02.028-.153.2-.007.01-.161.2-.007.01-.161.186-.133.156-.045.05-.138.151-.035.038-.118.123-.085.088-.136.131-.02.023-.163.156-.048.043-.118.108-.1.09-.111.1-.058.05a11.411,11.411,0,0,1-1.356,1l-.058.04-.166.1-.053.033-.166.1-.063.038-.178.1-.035.018-.183.1-.068.033-.156.078-.078.035-.171.083-.03.013-.208.093-.216.09-.015.008-.234.1h-.005l-.234.088-.191.063-.06.02-.183.06a11.124,11.124,0,0,1-1.444.354c-15.256,2.64-19.3-20.289-4.076-23.034" transform="translate(137.139 96.494)" fill="#695b3d" fill-rule="evenodd"/>
    <path id="Path_8130" data-name="Path 8130" d="M494.483,277.106c-8.748-.836-14.261,2.738-18.071,8.346-8.206,12.086-31.649,42.133-36.69,50.509-5.412-2.735-6.4-7.181-10.047-2.09-2.3,3.22-12.6,16.225-12.1,18.151.173.683,43.9,33.259,45.744,32.8,2.019-1.374,14.01-17.328,14.557-20.279-1.6-2.328-4.323-3.529-6.395-5.473l5.139-7.51c-8.788-15.339-4-38.795,19.186-42.974a28.278,28.278,0,0,1,11.9.316c9.662-13.8.809-17.39,3.883-21.874,14.525-21.183,18.6-19.051,6.633-27.08-3.351-2.245-6.455-6.133-10.009-1.65-4.461,5.631-9.027,13.535-13.734,18.807" transform="translate(194.383 60.753)" fill="#695b3d" fill-rule="evenodd"/>
    <path id="Path_8131" data-name="Path 8131" d="M399.142,333.727c77.019,35.118,79.533-15.743,119.159-26.99-1.592,19.55-10.272,53.164-42.14,62.108-28.412,7.977-53.5,4-77.019-35.118" transform="translate(166.547 137.093)" fill="#f47c11" fill-rule="evenodd"/>
    <path id="Path_8132" data-name="Path 8132" d="M429.54,263.325A17.123,17.123,0,1,0,412.418,246.2a17.123,17.123,0,0,0,17.122,17.122" transform="translate(186.615 19.703)" fill="#f47c11" fill-rule="evenodd"/>
    <path id="Path_8133" data-name="Path 8133" d="M418.08,227.649a5.8,5.8,0,1,0-5.8-5.8,5.8,5.8,0,0,0,5.8,5.8" transform="translate(186.4 0)" fill="#f47c11" fill-rule="evenodd"/>
    <path id="Path_8134" data-name="Path 8134" d="M426.052,229.779a9.291,9.291,0,1,0,9.291-9.291,9.29,9.29,0,0,0-9.291,9.291" transform="translate(207.225 6.716)" fill="#f47c11" fill-rule="evenodd"/>
    <path id="Path_8135" data-name="Path 8135" d="M381.079,416.515a7.3,7.3,0,0,1,2.15.284,4.109,4.109,0,0,1,1.517.814,3.3,3.3,0,0,1,.894,1.276,4.409,4.409,0,0,1,.3,1.665,4.256,4.256,0,0,1-.319,1.663,3.615,3.615,0,0,1-.932,1.3,4.461,4.461,0,0,1-1.522.851,6.607,6.607,0,0,1-2.087.3h-2.092v4.875h-1.756V416.515Zm0,6.759a4.065,4.065,0,0,0,1.331-.2,2.747,2.747,0,0,0,.975-.56,2.264,2.264,0,0,0,.6-.862,2.876,2.876,0,0,0,.2-1.1,2.5,2.5,0,0,0-.769-1.946,3.357,3.357,0,0,0-2.333-.7h-2.092v5.37Z" transform="translate(133.425 303.036)" fill="#1d6268"/>
    <path id="Path_8136" data-name="Path 8136" d="M395.565,423.124a7.478,7.478,0,0,1-.467,2.69,6.164,6.164,0,0,1-1.309,2.107,5.815,5.815,0,0,1-2.034,1.369,7.3,7.3,0,0,1-5.244,0,5.808,5.808,0,0,1-2.027-1.369,6.131,6.131,0,0,1-1.311-2.107,8,8,0,0,1,0-5.375,6.165,6.165,0,0,1,1.311-2.11,5.838,5.838,0,0,1,2.027-1.381,7.229,7.229,0,0,1,5.244,0,5.844,5.844,0,0,1,2.034,1.381,6.2,6.2,0,0,1,1.309,2.11,7.47,7.47,0,0,1,.467,2.685m-1.813,0a6.623,6.623,0,0,0-.327-2.152,4.542,4.542,0,0,0-.927-1.615,4.069,4.069,0,0,0-1.457-1.017,5.273,5.273,0,0,0-3.813,0,4.059,4.059,0,0,0-1.459,1.017,4.481,4.481,0,0,0-.934,1.615,7.25,7.25,0,0,0,0,4.3,4.471,4.471,0,0,0,.934,1.612,3.954,3.954,0,0,0,1.459,1.012,5.415,5.415,0,0,0,3.813,0,3.964,3.964,0,0,0,1.457-1.012,4.531,4.531,0,0,0,.927-1.612,6.565,6.565,0,0,0,.327-2.15" transform="translate(141.705 302.947)" fill="#1d6268"/>
    <path id="Path_8137" data-name="Path 8137" d="M407.929,416.515l-4.066,13.035H402.28l-3.3-9.943c-.03-.1-.06-.2-.088-.309s-.055-.224-.085-.344c-.033.121-.06.234-.09.344s-.06.211-.09.309l-3.32,9.943h-1.585l-4.066-13.035h1.464a.657.657,0,0,1,.4.118.52.52,0,0,1,.2.3l2.692,9.062c.043.163.083.339.123.527s.078.389.116.6c.043-.214.085-.414.131-.608a5.251,5.251,0,0,1,.151-.522L398,416.932a.641.641,0,0,1,.213-.286.6.6,0,0,1,.384-.13h.51a.6.6,0,0,1,.384.118.751.751,0,0,1,.219.3l3.054,9.062a4.909,4.909,0,0,1,.151.51c.048.183.09.372.133.573.03-.2.063-.389.1-.573s.075-.352.118-.51l2.7-9.062a.546.546,0,0,1,.2-.289.6.6,0,0,1,.387-.128Z" transform="translate(152.201 303.036)" fill="#1d6268"/>
    <path id="Path_8138" data-name="Path 8138" d="M407.2,428.114l-.01,1.437h-8.032V416.515h8.032v1.437h-6.269v4.33h5.076v1.384h-5.076v4.448Z" transform="translate(166.565 303.036)" fill="#1d6268"/>
    <path id="Path_8139" data-name="Path 8139" d="M414.418,429.553h-1.565a.772.772,0,0,1-.708-.374l-3.383-4.657a.968.968,0,0,0-.331-.314,1.2,1.2,0,0,0-.553-.1h-1.336v5.44h-1.756V416.515h3.682a8.1,8.1,0,0,1,2.14.251,4.088,4.088,0,0,1,1.487.721,2.9,2.9,0,0,1,.869,1.143,4.011,4.011,0,0,1,.065,2.788,3.465,3.465,0,0,1-.633,1.077,3.733,3.733,0,0,1-1.012.814,4.912,4.912,0,0,1-1.351.512,1.769,1.769,0,0,1,.585.553Zm-6.02-6.724a4.409,4.409,0,0,0,1.349-.186,2.836,2.836,0,0,0,.985-.527,2.2,2.2,0,0,0,.6-.814,2.676,2.676,0,0,0,.2-1.047,2.085,2.085,0,0,0-.766-1.758,3.725,3.725,0,0,0-2.293-.59h-1.927v4.923Z" transform="translate(175.078 303.036)" fill="#1d6268"/>
    <path id="Path_8140" data-name="Path 8140" d="M418.817,428.114l-.01,1.437h-8.032V416.515h8.032v1.437h-6.269v4.33h5.076v1.384h-5.076v4.448Z" transform="translate(184.13 303.036)" fill="#1d6268"/>
    <path id="Path_8141" data-name="Path 8141" d="M427.7,423.035a7.364,7.364,0,0,1-.465,2.67,5.935,5.935,0,0,1-1.308,2.054,5.815,5.815,0,0,1-2.034,1.324,7.1,7.1,0,0,1-2.625.47h-4.865V416.515h4.865a7.053,7.053,0,0,1,2.625.47,5.785,5.785,0,0,1,2.034,1.326,5.992,5.992,0,0,1,1.308,2.057,7.388,7.388,0,0,1,.465,2.667m-1.811,0a6.518,6.518,0,0,0-.327-2.142,4.517,4.517,0,0,0-.929-1.6,3.97,3.97,0,0,0-1.454-1,5.107,5.107,0,0,0-1.911-.347h-3.1v10.182h3.1a5.11,5.11,0,0,0,1.911-.347,3.985,3.985,0,0,0,1.454-.995,4.5,4.5,0,0,0,.929-1.6,6.565,6.565,0,0,0,.327-2.15" transform="translate(192.645 303.036)" fill="#1d6268"/>
    <path id="Path_8142" data-name="Path 8142" d="M430.826,416.515a7.937,7.937,0,0,1,2.07.236,3.976,3.976,0,0,1,1.429.673,2.663,2.663,0,0,1,.824,1.067,3.731,3.731,0,0,1,.261,1.427,2.824,2.824,0,0,1-.148.922,2.8,2.8,0,0,1-.452.824,3.19,3.19,0,0,1-.759.686,4.162,4.162,0,0,1-1.08.5,3.944,3.944,0,0,1,2.162,1.025,2.716,2.716,0,0,1,.723,1.969,3.689,3.689,0,0,1-.3,1.51,3.2,3.2,0,0,1-.894,1.173,4.123,4.123,0,0,1-1.442.761,6.5,6.5,0,0,1-1.946.269h-4.6V416.515Zm-2.4,1.391v4.448h2.331a4.516,4.516,0,0,0,1.3-.163,2.59,2.59,0,0,0,.909-.455,1.786,1.786,0,0,0,.532-.706,2.348,2.348,0,0,0,.173-.9,1.991,1.991,0,0,0-.693-1.688,3.5,3.5,0,0,0-2.145-.532Zm2.821,10.245a4.349,4.349,0,0,0,1.3-.173,2.441,2.441,0,0,0,.894-.487,1.892,1.892,0,0,0,.515-.746,2.694,2.694,0,0,0,.163-.949,1.947,1.947,0,0,0-.721-1.6,3.358,3.358,0,0,0-2.155-.588h-2.821v4.541Z" transform="translate(208.157 303.036)" fill="#1d6268"/>
    <path id="Path_8143" data-name="Path 8143" d="M438.52,424.356v5.194h-1.766v-5.194l-4.775-7.841h1.545a.562.562,0,0,1,.372.113.986.986,0,0,1,.239.3l2.981,5.068c.111.211.211.409.3.6a4.7,4.7,0,0,1,.234.56c.068-.191.143-.377.228-.56s.178-.384.281-.6l2.976-5.068a.9.9,0,0,1,.229-.281.54.54,0,0,1,.372-.128h1.555Z" transform="translate(216.186 303.036)" fill="#1d6268"/>
    <path id="Path_8144" data-name="Path 8144" d="M443.385,417.952v4.556h5.36v1.439h-5.36v5.6h-1.763V416.515h8.032v1.437Z" transform="translate(230.761 303.036)" fill="#1d6268"/>
    <rect id="Rectangle_611" data-name="Rectangle 611" width="1.766" height="13.035" transform="translate(686.31 719.551)" fill="#1d6268"/>
    <path id="Path_8145" data-name="Path 8145" d="M461.945,423.035a7.366,7.366,0,0,1-.465,2.67,5.935,5.935,0,0,1-1.309,2.054,5.836,5.836,0,0,1-2.034,1.324,7.117,7.117,0,0,1-2.627.47h-4.865V416.515h4.865a7.067,7.067,0,0,1,2.627.47,5.806,5.806,0,0,1,2.034,1.326,5.992,5.992,0,0,1,1.309,2.057,7.391,7.391,0,0,1,.465,2.667m-1.811,0a6.517,6.517,0,0,0-.329-2.142,4.552,4.552,0,0,0-.927-1.6,3.959,3.959,0,0,0-1.457-1,5.1,5.1,0,0,0-1.911-.347h-3.1v10.182h3.1a5.1,5.1,0,0,0,1.911-.347,3.974,3.974,0,0,0,1.457-.995,4.53,4.53,0,0,0,.927-1.6,6.564,6.564,0,0,0,.329-2.15" transform="translate(244.4 303.036)" fill="#1d6268"/>
    <rect id="Rectangle_612" data-name="Rectangle 612" width="1.763" height="13.035" transform="translate(712.521 719.551)" fill="#1d6268"/>
    <path id="Path_8146" data-name="Path 8146" d="M472.649,429.553h-1.366a.58.58,0,0,1-.379-.118.661.661,0,0,1-.219-.3l-1.221-3.147h-5.849l-1.221,3.147a.625.625,0,0,1-.208.291.58.58,0,0,1-.382.128H460.44l5.212-13.038h1.783Zm-3.677-4.84-2.044-5.3c-.063-.158-.126-.342-.193-.55s-.128-.432-.191-.671a9.729,9.729,0,0,1-.392,1.231l-2.045,5.295Z" transform="translate(259.206 303.036)" fill="#1d6268"/>
  </g>
</svg>
