<svg xmlns="http://www.w3.org/2000/svg" width="140" height="102" viewBox="0 0 140 102">
  <g id="Comp9" transform="translate(-1451 -862)">
    <rect id="Rectangle_84" data-name="Rectangle 84" width="140" height="102" rx="20" transform="translate(1451 862)" fill="#105477" opacity="0"/>
    <g id="Ginkgo" transform="translate(1227.067 796.602)">
      <g id="Group_931" data-name="Group 931" transform="translate(265.933 90.068)">
        <path id="Path_5087" data-name="Path 5087" d="M300.013,129.947" transform="translate(-279.932 -112.713)" fill="none" stroke="#1d1d1b" stroke-miterlimit="10" stroke-width="0.5"/>
        <g id="Group_930" data-name="Group 930">
          <path id="Path_5088" data-name="Path 5088" d="M288.243,122.513s-1.847-3.217,3.473-7.706,9.265-7.628,6.031-9.791-2.6-2.141-2.6-2.141-1.068.018-1.156-.374-2.335-.11-2.335-.11-.922-1.416-1.589-1.569-1.9.617-2.449.6-.987-.356-1.333-.306-2.089-.427-2.8-.115c-.335.146-1.6-.632-2.415.265s-.21-.447-.714-.115-2.558-.005-2.947.467.8,5.156,2.209,8.03-2.934-4.266-5.154-5.089-2.843.691-4.32.967.767.846-.25,2.448-.684.016-.636,1.215-1.242.47-1.22,1.923.229,1.516-.256,1.679a1.366,1.366,0,0,0-.86,1.32,2.014,2.014,0,0,1-.763,1.629c-.457.294.489,2.31.539,2.656a9.6,9.6,0,0,1-.381,2.477c-.148.2-.791,2.734.913,3.59s6.316-.038,6.95-.4a62.63,62.63,0,0,1,9.272-2.638C285.354,121.193,288.243,122.513,288.243,122.513Z" transform="translate(-265.975 -100.741)" fill="#c2be65"/>
          <path id="Path_5089" data-name="Path 5089" d="M269.368,124.842h0a5.135,5.135,0,0,1-2.2-.366,2.079,2.079,0,0,1-1.1-1.462,3.84,3.84,0,0,1,.166-2.218,9.88,9.88,0,0,0,.369-2.432,4.69,4.69,0,0,0-.187-.566c-.368-1.006-.67-1.927-.325-2.15a1.952,1.952,0,0,0,.735-1.576,1.42,1.42,0,0,1,.9-1.379c.3-.1.3-.123.26-.672-.016-.223-.038-.529-.045-.95a1.023,1.023,0,0,1,.7-1.132.706.706,0,0,0,.523-.79,2.116,2.116,0,0,0-.042-.4.1.1,0,0,1-.048-.09l0-.056.063-.011a.079.079,0,0,1,.067.044c.062-.029.234-.16.6-.738a1.365,1.365,0,0,0-.09-1.719c-.13-.2-.233-.349-.174-.49.052-.124.217-.2.553-.266a3.97,3.97,0,0,0,1.313-.578,3.385,3.385,0,0,1,1.811-.632,3.526,3.526,0,0,1,1.229.246c1.319.489,3.334,3.122,4.538,4.7.314.41.613.8.771.976-.037-.093-.105-.246-.23-.5-1.431-2.911-2.615-7.594-2.2-8.1.23-.279.951-.3,1.648-.312a3.381,3.381,0,0,0,1.313-.167.318.318,0,0,1,.166-.064c.149,0,.156.179.162.311a.46.46,0,0,0,.026.174c.019,0,.1-.022.347-.3a1.4,1.4,0,0,1,1.092-.46,3.814,3.814,0,0,1,.839.122,1.2,1.2,0,0,0,.5.058,1.817,1.817,0,0,1,.713-.111,9.77,9.77,0,0,1,1.408.147,3.681,3.681,0,0,0,.7.075,1.335,1.335,0,0,1,.608.128,2.287,2.287,0,0,0,.736.177h0a3.3,3.3,0,0,0,.956-.273,4.112,4.112,0,0,1,1.3-.35.946.946,0,0,1,.207.021c.635.146,1.461,1.348,1.605,1.564a13.547,13.547,0,0,1,1.411-.095c.8,0,.927.146.952.256.058.258.7.327,1.075.327h.022v.119a.025.025,0,0,0,.008-.015c0,.048.119.373,2.621,2.047a2.291,2.291,0,0,1,1.194,1.761c.108,1.95-2.869,4.459-6.638,7.635l-.582.491c-5.221,4.406-3.478,7.6-3.459,7.63l.107.29-.184-.206a12.92,12.92,0,0,0-4.284-1.11,3.968,3.968,0,0,0-.473.027,62.492,62.492,0,0,0-9.25,2.631A15.339,15.339,0,0,1,269.368,124.842Zm-.125-16.064a2.735,2.735,0,0,1,.034.368.818.818,0,0,1-.592.9.906.906,0,0,0-.628,1.021c.007.418.028.722.044.943.039.549.048.663-.342.794a1.312,1.312,0,0,0-.818,1.26,2.085,2.085,0,0,1-.791,1.681c-.293.189.14,1.372.372,2.008a4.365,4.365,0,0,1,.194.589,9.433,9.433,0,0,1-.392,2.522,3.788,3.788,0,0,0-.144,2.119,1.962,1.962,0,0,0,1.036,1.382,5.02,5.02,0,0,0,2.151.354h0a15.2,15.2,0,0,0,4.742-.752,62.812,62.812,0,0,1,9.295-2.646,4.093,4.093,0,0,1,.487-.028,12.562,12.562,0,0,1,4.19,1.057c-.279-.687-1.109-3.7,3.554-7.634l.582-.491c3.743-3.154,6.7-5.646,6.595-7.536a2.177,2.177,0,0,0-1.141-1.668c-2.395-1.6-2.661-2-2.675-2.132-.323-.008-1.023-.067-1.1-.42-.009-.038-.094-.161-.835-.161a13.872,13.872,0,0,0-1.434.1l-.037,0-.021-.031c-.009-.014-.916-1.4-1.552-1.544a.807.807,0,0,0-.18-.019,4.113,4.113,0,0,0-1.255.342,3.381,3.381,0,0,1-.986.281h-.017a2.375,2.375,0,0,1-.774-.185,1.208,1.208,0,0,0-.549-.122,3.712,3.712,0,0,1-.733-.076,9.688,9.688,0,0,0-1.389-.145,1.74,1.74,0,0,0-.665.1,1.146,1.146,0,0,1-.579-.05,3.714,3.714,0,0,0-.813-.119,1.282,1.282,0,0,0-1,.42c-.267.294-.371.334-.436.334-.134,0-.141-.16-.146-.288,0-.074-.009-.2-.042-.2a.209.209,0,0,0-.1.044,3.3,3.3,0,0,1-1.376.187c-.639.015-1.363.032-1.558.268-.343.416.774,5.03,2.217,7.965.32.651.3.69.27.731l-.018.028-.043.005c-.091,0-.25-.2-.953-1.115-1.2-1.563-3.2-4.178-4.484-4.655a3.4,3.4,0,0,0-1.187-.239,3.238,3.238,0,0,0-1.749.615,4.074,4.074,0,0,1-1.353.593c-.275.051-.431.117-.464.2s.058.218.164.377a1.483,1.483,0,0,1,.091,1.85,2.238,2.238,0,0,1-.661.787l.009.027Z" transform="translate(-265.933 -100.699)" fill="#505720"/>
        </g>
        <path id="Path_5090" data-name="Path 5090" d="M303.181,126.447c-2.073-3.38,3.3-8.463,7.23-12.175,1.817-1.718,3.386-3.2,3.475-3.883l.119.015c-.1.725-1.6,2.15-3.512,3.955-3.9,3.683-9.232,8.728-7.211,12.025Z" transform="translate(-281.044 -104.679)" fill="#505720"/>
        <path id="Path_5091" data-name="Path 5091" d="M302.922,125.375c-1.863-4.515,5.828-11.978,9.112-15.164a12.161,12.161,0,0,0,1.316-1.358l.116.032a8.994,8.994,0,0,1-1.348,1.412c-3.267,3.17-10.916,10.593-9.084,15.032Z" transform="translate(-281.009 -104.048)" fill="#505720"/>
        <path id="Path_5092" data-name="Path 5092" d="M302.694,124.978c-1.441-3.195,1.3-7.722,3.846-10.957a55.028,55.028,0,0,1,5.92-6.3l.08.09c-.124.11-12.453,11.1-9.736,17.122Z" transform="translate(-280.869 -103.582)" fill="#505720"/>
        <path id="Path_5093" data-name="Path 5093" d="M302.442,124.333c-1.441-3.194,1.1-7.813,3.48-11.126a54.531,54.531,0,0,1,5.557-6.475l.083.086c-.117.114-11.728,11.442-9.011,17.466Z" transform="translate(-280.757 -103.177)" fill="#505720"/>
        <path id="Path_5094" data-name="Path 5094" d="M302.134,123.517c-1.441-3.193.923-7.859,3.161-11.212a53.613,53.613,0,0,1,5.237-6.563l.087.083c-.111.115-11.094,11.618-8.375,17.643Z" transform="translate(-280.622 -102.77)" fill="#505720"/>
        <path id="Path_5095" data-name="Path 5095" d="M301.9,122.853c-1.142-2.3-.174-6.051,2.878-11.158a61.863,61.863,0,0,1,4.928-6.99l.093.077c-.1.126-10.473,12.625-7.792,18.018Z" transform="translate(-280.515 -102.344)" fill="#505720"/>
        <path id="Path_5096" data-name="Path 5096" d="M301.589,122.48c-1.566-3.2.467-8.016,2.448-11.493a52.539,52.539,0,0,1,4.709-6.832l.092.078c-.1.12-10.1,12.149-7.141,18.195Z" transform="translate(-280.35 -102.119)" fill="#505720"/>
        <path id="Path_5097" data-name="Path 5097" d="M301.156,121.637c-1.44-3.19.469-7.984,2.324-11.443a52.731,52.731,0,0,1,4.4-6.8l.094.074c-.094.12-9.432,12.09-6.712,18.119Z" transform="translate(-280.194 -101.806)" fill="#505720"/>
        <path id="Path_5098" data-name="Path 5098" d="M300.872,121.348c-1.269-1.89-.684-5.507,1.738-10.75a65.992,65.992,0,0,1,4.018-7.315l.1.066c-.088.134-8.729,13.5-5.757,17.931Z" transform="translate(-280.017 -101.761)" fill="#505720"/>
        <path id="Path_5099" data-name="Path 5099" d="M300.466,121.086c-2.431-4.487,4.725-17.142,5.03-17.679l.1.06c-.075.131-7.429,13.133-5.029,17.562Z" transform="translate(-279.911 -101.811)" fill="#505720"/>
        <path id="Path_5100" data-name="Path 5100" d="M299.916,119.633c-1.92-3.933,4.524-17.029,4.8-17.585l.107.053c-.067.136-6.693,13.6-4.8,17.479Z" transform="translate(-279.746 -101.253)" fill="#505720"/>
        <path id="Path_5101" data-name="Path 5101" d="M300.177,134.8" transform="translate(-279.999 -114.707)" fill="none" stroke="#1d1d1b" stroke-miterlimit="10" stroke-width="0.5"/>
        <path id="Path_5102" data-name="Path 5102" d="M299.926,119.224c-2.254-5.256,4.082-18.037,4.146-18.166l.107.054c-.064.128-6.375,12.86-4.143,18.065Z" transform="translate(-279.697 -100.846)" fill="#505720"/>
        <path id="Path_5103" data-name="Path 5103" d="M299.549,118.545c-2.253-5.255,3.389-17.583,3.446-17.707l.109.05c-.057.124-5.677,12.4-3.445,17.61Z" transform="translate(-279.523 -100.756)" fill="#505720"/>
        <path id="Path_5104" data-name="Path 5104" d="M299.193,118.578c-2.253-5.253,2.455-16.946,2.5-17.063l.111.045c-.048.117-4.737,11.763-2.5,16.971Z" transform="translate(-279.344 -101.034)" fill="#505720"/>
        <path id="Path_5105" data-name="Path 5105" d="M298.788,118.3c-2.3-7.007,1.824-16.443,1.866-16.538l.11.049c-.042.094-4.149,9.488-1.861,16.452Z" transform="translate(-279.142 -101.134)" fill="#505720"/>
        <path id="Path_5106" data-name="Path 5106" d="M298.46,117.953c-2.566-6.839,1.092-16.4,1.129-16.493l.112.044c-.037.1-3.678,9.611-1.128,16.407Z" transform="translate(-278.919 -101.012)" fill="#505720"/>
        <path id="Path_5107" data-name="Path 5107" d="M297.914,117.565c-2.655-6.535.366-16.211.4-16.308l.114.036c-.031.1-3.039,9.732-.4,16.227Z" transform="translate(-278.621 -100.928)" fill="#505720"/>
        <path id="Path_5108" data-name="Path 5108" d="M297.691,117.579c-3.161-7.213-.455-16.492-.428-16.585l.115.034c-.028.093-2.721,9.331.423,16.5Z" transform="translate(-278.348 -100.82)" fill="#505720"/>
        <path id="Path_5109" data-name="Path 5109" d="M297.082,117.207c-3.161-7.212-.8-16.122-.771-16.211l.116.032c-.024.088-2.378,8.958.765,16.131Z" transform="translate(-278.053 -100.821)" fill="#505720"/>
        <path id="Path_5110" data-name="Path 5110" d="M296.49,116.851c-3.16-7.211-1.483-15.616-1.465-15.7l.117.024c-.017.084-1.687,8.453,1.457,15.628Z" transform="translate(-277.694 -100.885)" fill="#505720"/>
        <path id="Path_5111" data-name="Path 5111" d="M295.752,116.222c-3.159-7.209-1.99-15.276-1.978-15.357l.119.018c-.012.08-1.176,8.114,1.969,15.29Z" transform="translate(-277.278 -100.767)" fill="#505720"/>
        <path id="Path_5112" data-name="Path 5112" d="M294.957,115.871c-2.847-5-2.57-14.754-2.567-14.851l.12,0c0,.1-.278,9.822,2.551,14.788Z" transform="translate(-276.797 -100.831)" fill="#505720"/>
        <path id="Path_5113" data-name="Path 5113" d="M294.062,115.952C291.217,110.958,291,102.1,291,102.008l.12,0c0,.088.221,8.92,3.051,13.888Z" transform="translate(-276.228 -101.235)" fill="#505720"/>
        <path id="Path_5114" data-name="Path 5114" d="M293.286,115.522c-2.844-4.993-3.574-13.879-3.581-13.968l.12-.009c.007.089.734,8.948,3.566,13.918Z" transform="translate(-275.698 -101.047)" fill="#505720"/>
        <path id="Path_5115" data-name="Path 5115" d="M292.584,115.325c-3.4-5.42-4.236-13.547-4.244-13.629l.12-.012c.008.081.842,8.18,4.226,13.577Z" transform="translate(-275.137 -101.104)" fill="#505720"/>
        <path id="Path_5116" data-name="Path 5116" d="M291.854,115.261c-3.641-5.168-4.844-13.48-4.856-13.563l.119-.016c.012.083,1.211,8.367,4.835,13.511Z" transform="translate(-274.586 -101.102)" fill="#505720"/>
        <path id="Path_5117" data-name="Path 5117" d="M290.832,114.839c-4.132-5.073-5-12.824-5.01-12.9l.119-.013c.008.078.875,7.793,4.984,12.839Z" transform="translate(-274.103 -101.203)" fill="#505720"/>
        <path id="Path_5118" data-name="Path 5118" d="M270.352,139.013l-.051-.108a49.694,49.694,0,0,1,7.453-2.676c3.751-1,8.879-1.768,12.009.255l-.065.1C283.771,132.755,270.485,138.951,270.352,139.013Z" transform="translate(-267.727 -114.877)" fill="#505720"/>
        <path id="Path_5119" data-name="Path 5119" d="M268.072,138.4l-.045-.111c.047-.019.128-.054.241-.1,4.3-1.844,14.908-5.737,20.671-2.064l-.065.1c-5.716-3.643-16.281.236-20.559,2.072Z" transform="translate(-266.793 -114.626)" fill="#505720"/>
        <path id="Path_5120" data-name="Path 5120" d="M266.865,137.382l-.045-.111.064-.026a51.684,51.684,0,0,1,8.644-2.66c5.6-1.163,9.842-.856,12.613.911l-.065.1c-6.245-3.981-18.712.767-21.148,1.758Z" transform="translate(-266.297 -114.334)" fill="#505720"/>
        <path id="Path_5121" data-name="Path 5121" d="M266.042,136.19l-.045-.111c.144-.058,14.69-5.615,21.639-1.184l-.064.1C280.672,130.6,266.185,136.132,266.042,136.19Z" transform="translate(-265.959 -114.041)" fill="#505720"/>
        <path id="Path_5122" data-name="Path 5122" d="M266.042,135.08l-.045-.111a47.474,47.474,0,0,1,8.585-1.99c3.98-.551,9.461-.737,12.977,1.5l-.065.1c-3.484-2.221-8.937-2.034-12.9-1.486A48.471,48.471,0,0,0,266.042,135.08Z" transform="translate(-265.959 -113.811)" fill="#505720"/>
        <path id="Path_5123" data-name="Path 5123" d="M287.6,134.2c-3.492-2.226-8.859-2.237-12.748-1.853a44.2,44.2,0,0,0-8.4,1.615l-.045-.111a44.318,44.318,0,0,1,8.436-1.623c3.907-.385,9.3-.373,12.823,1.871Z" transform="translate(-266.127 -113.572)" fill="#505720"/>
        <path id="Path_5124" data-name="Path 5124" d="M287.77,133.841c-5.8-4.874-20.757-1.272-20.907-1.234l-.029-.117c.151-.037,15.165-3.654,21.013,1.259Z" transform="translate(-266.303 -113.216)" fill="#505720"/>
        <path id="Path_5125" data-name="Path 5125" d="M287.7,133.3c-5.8-4.876-20.519-1.73-20.668-1.7l-.025-.117c.148-.032,14.923-3.191,20.77,1.723Z" transform="translate(-266.376 -112.924)" fill="#505720"/>
        <path id="Path_5126" data-name="Path 5126" d="M287.563,132.6c-5.8-4.877-20.223-2.143-20.368-2.114l-.023-.118c.146-.028,14.622-2.772,20.468,2.14Z" transform="translate(-266.442 -112.561)" fill="#505720"/>
        <path id="Path_5127" data-name="Path 5127" d="M287.394,132.1c-5.8-4.877-20.386-2.661-20.533-2.637l-.018-.119c.147-.023,14.782-2.247,20.628,2.665Z" transform="translate(-266.307 -112.252)" fill="#505720"/>
        <path id="Path_5128" data-name="Path 5128" d="M286.941,131.4c-4.895-4.7-20.352-3.066-20.507-3.049l-.014-.119c.156-.018,15.668-1.655,20.6,3.082Z" transform="translate(-266.134 -111.889)" fill="#505720"/>
        <path id="Path_5129" data-name="Path 5129" d="M286.4,130.422c-4.9-4.7-20.209-3.319-20.363-3.3l-.011-.12c.155-.014,15.523-1.4,20.457,3.337Z" transform="translate(-265.971 -111.42)" fill="#505720"/>
        <path id="Path_5130" data-name="Path 5130" d="M286.516,129.6c-4.9-4.7-19.713-3.833-19.862-3.824l-.008-.12c.15-.009,15.019-.879,19.953,3.857Z" transform="translate(-266.226 -110.921)" fill="#505720"/>
        <path id="Path_5131" data-name="Path 5131" d="M286.73,129c-4.9-4.7-19.3-4.185-19.449-4.179l0-.12c.146-.005,14.6-.523,19.538,4.212Z" transform="translate(-266.485 -110.551)" fill="#505720"/>
        <path id="Path_5132" data-name="Path 5132" d="M286.641,128.238c-4.857-4.462-19.029-4.544-19.171-4.544v-.12c.143,0,14.362.082,19.252,4.576Z" transform="translate(-266.564 -110.095)" fill="#505720"/>
        <path id="Path_5133" data-name="Path 5133" d="M286.648,127.5c-4.857-4.463-18.823-4.966-18.964-4.97l0-.12c.141,0,14.151.509,19.041,5Z" transform="translate(-266.652 -109.619)" fill="#505720"/>
        <path id="Path_5134" data-name="Path 5134" d="M287.2,126.224c-4.859-4.465-17.58-5.651-17.707-5.663l.011-.12c.128.012,12.889,1.2,17.777,5.694Z" transform="translate(-267.393 -108.809)" fill="#505720"/>
        <path id="Path_5135" data-name="Path 5135" d="M286.9,126.853c-4.858-4.464-18.247-5.38-18.381-5.389l.008-.12c.135.009,13.565.927,18.454,5.419Z" transform="translate(-266.997 -109.179)" fill="#505720"/>
        <path id="Path_5136" data-name="Path 5136" d="M287.1,125.7c-5.191-4.937-17.487-6.007-17.611-6.017l.01-.12c.124.011,12.461,1.084,17.683,6.05Z" transform="translate(-267.393 -108.446)" fill="#505720"/>
        <path id="Path_5137" data-name="Path 5137" d="M286.887,124.957c-5.192-4.938-17.428-6.368-17.55-6.382l.013-.119c.124.014,12.4,1.448,17.62,6.413Z" transform="translate(-267.331 -107.993)" fill="#505720"/>
        <path id="Path_5138" data-name="Path 5138" d="M286.731,124.137c-5.193-4.939-17.049-6.795-17.168-6.813l.018-.118c.12.018,12.013,1.88,17.234,6.844Z" transform="translate(-267.424 -107.479)" fill="#505720"/>
        <path id="Path_5139" data-name="Path 5139" d="M286.94,123.261c-5.194-4.939-15.914-7-16.022-7.018l.022-.118c.108.021,10.862,2.085,16.082,7.049Z" transform="translate(-267.981 -107.035)" fill="#505720"/>
        <path id="Path_5140" data-name="Path 5140" d="M287.1,122.621c-4.27-4.619-15.509-7.538-15.622-7.566l.029-.116c.114.029,11.387,2.957,15.681,7.6Z" transform="translate(-268.212 -106.548)" fill="#505720"/>
        <path id="Path_5141" data-name="Path 5141" d="M287.285,121.91c-4.271-4.62-15.048-8.14-15.156-8.175l.037-.114c.109.035,10.915,3.566,15.208,8.208Z" transform="translate(-268.478 -106.007)" fill="#505720"/>
        <path id="Path_5142" data-name="Path 5142" d="M287.33,121.247c-4.271-4.621-14.575-8.432-14.679-8.469l.041-.113c.1.038,10.434,3.858,14.726,8.5Z" transform="translate(-268.693 -105.614)" fill="#505720"/>
        <path id="Path_5143" data-name="Path 5143" d="M287.277,120.5c-4.273-4.621-14.189-8.791-14.289-8.832l.046-.111c.1.042,10.04,4.221,14.331,8.862Z" transform="translate(-268.831 -105.16)" fill="#505720"/>
        <path id="Path_5144" data-name="Path 5144" d="M286.386,119.219c-5.022-5.178-13.652-8.8-13.739-8.837l.046-.111c.087.036,8.74,3.668,13.779,8.864Z" transform="translate(-268.691 -104.631)" fill="#505720"/>
        <path id="Path_5145" data-name="Path 5145" d="M285.384,117.877c-5.022-5.178-13.046-8.718-13.127-8.753l.048-.11c.081.035,8.126,3.584,13.164,8.78Z" transform="translate(-268.531 -104.114)" fill="#505720"/>
        <path id="Path_5146" data-name="Path 5146" d="M285,116.727a42.9,42.9,0,0,0-11.318-8.1l.05-.109a43.028,43.028,0,0,1,11.355,8.13Z" transform="translate(-269.117 -103.909)" fill="#505720"/>
        <path id="Path_5147" data-name="Path 5147" d="M284.992,115.866a47.933,47.933,0,0,0-9.9-7.905l.058-.1a48.055,48.055,0,0,1,9.932,7.927Z" transform="translate(-269.693 -103.639)" fill="#505720"/>
        <path id="Path_5148" data-name="Path 5148" d="M285.951,116.093c-2.438-3.7-9.447-8.807-9.517-8.858l.07-.1c.071.051,7.1,5.175,9.547,8.889Z" transform="translate(-270.246 -103.344)" fill="#505720"/>
        <path id="Path_5149" data-name="Path 5149" d="M285.872,115.086c-2.439-3.7-7.814-8.2-7.868-8.242l.077-.092c.054.045,5.442,4.555,7.891,8.268Z" transform="translate(-270.891 -103.185)" fill="#505720"/>
        <path id="Path_5150" data-name="Path 5150" d="M287.575,116.1a81.126,81.126,0,0,0-7.612-9.01l.086-.084a81.352,81.352,0,0,1,7.626,9.028Z" transform="translate(-271.696 -103.289)" fill="#505720"/>
        <path id="Path_5151" data-name="Path 5151" d="M319.5,159.083a24.313,24.313,0,0,0-5.09-6.82c-3.7-3.382-7.826-7.327-10.919-14.87l.111-.046c3.082,7.519,7.26,11.343,10.947,14.717,2.381,2.179,4.438,4.062,5.822,6.584Z" transform="translate(-281.361 -115.752)" fill="#505720"/>
      </g>
      <g id="Group_940" data-name="Group 940" transform="translate(288.071 74.816)">
        <g id="Group_932" data-name="Group 932" transform="translate(0.317)">
          <path id="Path_5152" data-name="Path 5152" d="M317.718,98.141s.365-4.157-2.9-5.631A93.541,93.541,0,0,1,304.162,86.4c-.078-.241.081-.16.334-1.357s.258-1.678.662-1.993a10.93,10.93,0,0,0,1.217-1.667c.243-.318,1.29-.946,1.293-1.187a3.857,3.857,0,0,1,2.015-1.339c.559.006,1.516.416,1.839.02s.66-1.833,1.622-1.983,1.048-.708,1.607-.7,1.216-1.427,2.334-1.256a18.713,18.713,0,0,1,3.035.513c.558.246,1.835.5,2.392.745a12.457,12.457,0,0,1,2.628,1.148c.555.486.783,1.609,1.424,1.536s3.763-.12,4.716.45,1.1,1.452,1.419,1.936a2.417,2.417,0,0,1,.625,1.447,4.777,4.777,0,0,0,.859,2.01c.47.885-1.051.949-.014,1.28s1.259,2.013,1.251,2.734-.488.795-.014,1.28.3,1.923.532,2.646a4.44,4.44,0,0,1-.031,2.88c-.409.8-1.125.468-2.012,1.1s-4.715-.61-5.428-1.178S320.1,92.726,317.718,98.141Z" transform="translate(-304.082 -74.858)" fill="#c2be65"/>
          <path id="Path_5153" data-name="Path 5153" d="M317.585,98.457l.032-.363c0-.041.322-4.131-2.866-5.572a89.678,89.678,0,0,1-10.688-6.15.408.408,0,0,1,.035-.335,6.1,6.1,0,0,0,.3-1.052c.052-.244.093-.458.13-.646.143-.743.214-1.117.554-1.382a5.893,5.893,0,0,0,.9-1.2c.124-.193.23-.361.307-.461a3.967,3.967,0,0,1,.616-.53c.28-.216.664-.511.665-.62,0-.182.519-.6.824-.81a3.085,3.085,0,0,1,1.252-.587,3.762,3.762,0,0,1,.643.093c.468.093.952.189,1.149-.051a2.931,2.931,0,0,0,.282-.517c.276-.58.654-1.375,1.376-1.487a1.944,1.944,0,0,0,.974-.433.985.985,0,0,1,.644-.27c.2,0,.428-.216.694-.468a2.029,2.029,0,0,1,1.648-.787c.334.051.693.1,1.039.139.6.075,1.173.147,1.6.247a2.453,2.453,0,0,1,.415.131,10.094,10.094,0,0,0,1.186.369,10.186,10.186,0,0,1,1.207.377c.16.071.4.156.679.255a7.108,7.108,0,0,1,1.963.9,3.044,3.044,0,0,1,.552.757c.245.418.482.8.826.764a16.532,16.532,0,0,1,4.06.206,2.534,2.534,0,0,1,.694.253,3.009,3.009,0,0,1,1.207,1.5,3.673,3.673,0,0,0,.232.454c.061.094.12.176.175.253a2.058,2.058,0,0,1,.459,1.22,3.052,3.052,0,0,0,.531,1.417c.1.164.2.351.321.57a.68.68,0,0,1-.239.927c-.064.056-.144.126-.137.157s.044.076.328.167c1.042.333,1.3,1.972,1.293,2.791a1.552,1.552,0,0,1-.149.642c-.093.221-.14.332.118.6a2.813,2.813,0,0,1,.4,1.61,5,5,0,0,0,.146,1.059,4.484,4.484,0,0,1-.034,2.926,1.318,1.318,0,0,1-1.01.681,2.923,2.923,0,0,0-1.021.439c-.5.355-1.8.118-2.523-.054a10.173,10.173,0,0,1-2.977-1.125,5.35,5.35,0,0,0-1.561-.556c-1.163-.275-7.063-1.414-9.1,3.218Zm2.075-23.123c-.417-.1-.983-.17-1.583-.245-.348-.044-.707-.089-1.043-.14a1.911,1.911,0,0,0-1.547.755c-.285.27-.532.5-.778.5a.88.88,0,0,0-.57.247,2.064,2.064,0,0,1-1.027.455c-.661.1-1.022.864-1.287,1.421a2.97,2.97,0,0,1-.3.541c-.242.3-.762.193-1.265.092a3.7,3.7,0,0,0-.622-.09,2.722,2.722,0,0,0-1.181.566,2.429,2.429,0,0,0-.773.714c0,.156-.27.374-.712.714a4.027,4.027,0,0,0-.593.509c-.074.1-.179.261-.3.453a5.812,5.812,0,0,1-.927,1.226c-.3.237-.368.573-.51,1.309-.037.19-.078.4-.13.649a6.242,6.242,0,0,1-.3,1.071c-.054.137-.062.161-.033.255A97.323,97.323,0,0,0,314.8,92.413c2.755,1.244,2.953,4.408,2.946,5.394,1.691-3.409,5.783-3.807,9.109-3.019a5.289,5.289,0,0,1,1.609.579,10.116,10.116,0,0,0,2.93,1.1,3.759,3.759,0,0,0,2.427.074,2.992,2.992,0,0,1,1.06-.457,1.208,1.208,0,0,0,.933-.62,4.4,4.4,0,0,0,.027-2.834,5.05,5.05,0,0,1-.151-1.087,2.772,2.772,0,0,0-.367-1.535.537.537,0,0,1-.142-.726,1.445,1.445,0,0,0,.139-.6c.008-.79-.233-2.364-1.21-2.676-.27-.087-.389-.161-.409-.256s.071-.18.176-.273c.19-.167.428-.374.212-.78-.115-.218-.223-.4-.318-.567a3.151,3.151,0,0,1-.547-1.465,1.939,1.939,0,0,0-.437-1.162c-.056-.078-.115-.161-.178-.257a3.728,3.728,0,0,1-.24-.469,2.907,2.907,0,0,0-1.16-1.448,2.4,2.4,0,0,0-.659-.239,16.349,16.349,0,0,0-4.02-.2.574.574,0,0,1-.191-.011c-.321-.077-.531-.434-.752-.812a2.963,2.963,0,0,0-.527-.728,7.186,7.186,0,0,0-1.924-.88c-.281-.1-.523-.185-.688-.258a10.008,10.008,0,0,0-1.19-.37,10.079,10.079,0,0,1-1.2-.375A2.327,2.327,0,0,0,319.66,75.335Z" transform="translate(-304.041 -74.816)" fill="#505720"/>
        </g>
        <path id="Path_5154" data-name="Path 5154" d="M327.1,110.188" transform="translate(-313.194 -89.345)" fill="none" stroke="#1d1d1b" stroke-miterlimit="10" stroke-width="0.5"/>
        <path id="Path_5155" data-name="Path 5155" d="M354.673,93.055" transform="translate(-324.521 -82.308)" fill="none" stroke="#1d1d1b" stroke-miterlimit="10" stroke-width="0.5"/>
        <path id="Path_5156" data-name="Path 5156" d="M328.112,110.611" transform="translate(-313.611 -89.519)" fill="none" stroke="#1d1d1b" stroke-miterlimit="10" stroke-width="0.5"/>
        <path id="Path_5157" data-name="Path 5157" d="M328.761,94.61l-.1-.064c4.6-7.456,13.035-11.617,13.12-11.658l.052.108C341.746,83.037,333.341,87.184,328.761,94.61Z" transform="translate(-313.836 -78.132)" fill="#505720"/>
        <path id="Path_5158" data-name="Path 5158" d="M328.816,95.291l-.1-.063c4.6-7.457,13.481-11.024,13.571-11.06l.044.112C342.239,84.315,333.394,87.867,328.816,95.291Z" transform="translate(-313.858 -78.658)" fill="#505720"/>
        <path id="Path_5159" data-name="Path 5159" d="M328.622,95.983l-.1-.063c4.316-6.957,14.009-10.494,14.107-10.529l.04.113C342.569,85.538,332.915,89.063,328.622,95.983Z" transform="translate(-313.778 -79.16)" fill="#505720"/>
        <path id="Path_5160" data-name="Path 5160" d="M328.534,96.889l-.1-.063c4.6-7.461,14.545-10.084,14.645-10.11l.029.116C343.007,86.857,333.111,89.469,328.534,96.889Z" transform="translate(-313.743 -79.704)" fill="#505720"/>
        <path id="Path_5161" data-name="Path 5161" d="M328.481,97.713l-.1-.063c4.6-7.463,14.767-9.591,14.869-9.611l.024.118C343.17,88.177,333.056,90.3,328.481,97.713Z" transform="translate(-313.721 -80.248)" fill="#505720"/>
        <path id="Path_5162" data-name="Path 5162" d="M328.451,98.491l-.1-.063c4.6-7.465,14.991-9.064,15.1-9.078l.017.118C343.358,89.483,333.026,91.074,328.451,98.491Z" transform="translate(-313.709 -80.786)" fill="#505720"/>
        <path id="Path_5163" data-name="Path 5163" d="M328.371,99.36l-.1-.063c4.6-7.466,15.442-8.624,15.551-8.635l.012.12C343.724,90.792,332.945,91.945,328.371,99.36Z" transform="translate(-313.676 -81.325)" fill="#505720"/>
        <path id="Path_5164" data-name="Path 5164" d="M328.373,100.008l-.1-.064c4.606-7.467,15.759-8.18,15.871-8.186l.007.12C344.036,91.884,332.945,92.594,328.373,100.008Z" transform="translate(-313.676 -81.775)" fill="#505720"/>
        <path id="Path_5165" data-name="Path 5165" d="M328.228,100.983l-.1-.063c4.607-7.469,15.37-7.66,15.479-7.661v.12C343.5,93.38,332.8,93.571,328.228,100.983Z" transform="translate(-313.617 -82.392)" fill="#505720"/>
        <path id="Path_5166" data-name="Path 5166" d="M328.261,101.579l-.1-.063c2.409-3.9,6.74-5.686,9.949-6.492a27.366,27.366,0,0,1,6.446-.821l0,.12C344.435,94.32,332.831,94.168,328.261,101.579Z" transform="translate(-313.63 -82.779)" fill="#505720"/>
        <path id="Path_5167" data-name="Path 5167" d="M328.287,102.321l-.1-.063c2.409-3.906,6.852-5.585,10.155-6.306a28.358,28.358,0,0,1,6.65-.636l-.006.12C344.863,95.431,332.858,94.911,328.287,102.321Z" transform="translate(-313.641 -83.232)" fill="#505720"/>
        <path id="Path_5168" data-name="Path 5168" d="M328.167,103.08l-.1-.063c2.41-3.907,6.938-5.478,10.312-6.109a28.937,28.937,0,0,1,6.806-.437l-.01.12a28.8,28.8,0,0,0-6.776.435C335.047,97.652,330.553,99.211,328.167,103.08Z" transform="translate(-313.592 -83.693)" fill="#505720"/>
        <path id="Path_5169" data-name="Path 5169" d="M328.115,103.856l-.1-.064c2.411-3.907,6.963-5.359,10.358-5.889a28.618,28.618,0,0,1,6.85-.217l-.014.119a28.48,28.48,0,0,0-6.821.217C335.017,98.549,330.5,99.988,328.115,103.856Z" transform="translate(-313.571 -84.165)" fill="#505720"/>
        <path id="Path_5170" data-name="Path 5170" d="M328.112,104.551l-.1-.063c2.411-3.908,6.948-5.221,10.33-5.634a27.737,27.737,0,0,1,6.82.039l-.019.118a27.611,27.611,0,0,0-6.79-.039C335,99.383,330.5,100.683,328.112,104.551Z" transform="translate(-313.569 -84.612)" fill="#505720"/>
        <path id="Path_5171" data-name="Path 5171" d="M327.975,105.316l-.1-.063c2.411-3.909,6.963-5.118,10.358-5.444a27.568,27.568,0,0,1,6.847.231l-.022.118a27.432,27.432,0,0,0-6.816-.229C334.873,100.252,330.36,101.449,327.975,105.316Z" transform="translate(-313.513 -85.035)" fill="#505720"/>
        <path id="Path_5172" data-name="Path 5172" d="M327.875,105.892l-.1-.064c2.412-3.91,7.073-5.019,10.558-5.261a28.891,28.891,0,0,1,7.046.414l-.025.117a28.767,28.767,0,0,0-7.015-.411C334.88,100.927,330.26,102.025,327.875,105.892Z" transform="translate(-313.472 -85.368)" fill="#505720"/>
        <path id="Path_5173" data-name="Path 5173" d="M327.861,106.524l-.1-.062c2.412-3.911,7.1-4.908,10.61-5.056a29.03,29.03,0,0,1,7.094.62h0l-.028.117h0a28.929,28.929,0,0,0-7.064-.617C334.892,101.673,330.245,102.659,327.861,106.524Z" transform="translate(-313.466 -85.729)" fill="#505720"/>
        <path id="Path_5174" data-name="Path 5174" d="M327.891,107.043l-.1-.064c2.412-3.911,7.113-4.808,10.632-4.872a29.015,29.015,0,0,1,7.116.8l-.031.116a28.923,28.923,0,0,0-7.086-.8C334.933,102.29,330.274,103.178,327.891,107.043Z" transform="translate(-313.479 -86.025)" fill="#505720"/>
        <path id="Path_5175" data-name="Path 5175" d="M327.78,107.676l-.1-.063c2.414-3.913,7.156-4.682,10.709-4.639a29.525,29.525,0,0,1,7.191,1.038l-.034.115a29.382,29.382,0,0,0-7.161-1.033C334.861,103.052,330.162,103.813,327.78,107.676Z" transform="translate(-313.433 -86.382)" fill="#505720"/>
        <path id="Path_5176" data-name="Path 5176" d="M327.641,108.181l-.1-.063c2.414-3.913,7.229-4.511,10.844-4.323a30.633,30.633,0,0,1,7.325,1.353l-.039.114a30.509,30.509,0,0,0-7.294-1.347C334.793,103.729,330.024,104.319,327.641,108.181Z" transform="translate(-313.376 -86.707)" fill="#505720"/>
        <path id="Path_5177" data-name="Path 5177" d="M327.6,108.752l-.1-.063c1.911-3.1,5.686-4.511,10.916-4.085a31.324,31.324,0,0,1,7.394,1.592l-.042.113a31.163,31.163,0,0,0-7.364-1.584C334.793,104.43,329.986,104.89,327.6,108.752Z" transform="translate(-313.361 -87.021)" fill="#505720"/>
        <path id="Path_5178" data-name="Path 5178" d="M327.47,109.477l-.1-.064c1.911-3.1,5.684-4.442,10.91-3.884a31.341,31.341,0,0,1,7.386,1.793l-.044.112a31.153,31.153,0,0,0-7.357-1.786C334.653,105.264,329.851,105.616,327.47,109.477Z" transform="translate(-313.305 -87.382)" fill="#505720"/>
        <path id="Path_5179" data-name="Path 5179" d="M327.42,110.153l-.1-.063c1.912-3.1,5.643-4.361,10.789-3.649a30.568,30.568,0,0,1,7.262,2.028l-.048.11a30.531,30.531,0,0,0-7.234-2.02C334.535,106.069,329.8,106.293,327.42,110.153Z" transform="translate(-313.285 -87.727)" fill="#505720"/>
        <path id="Path_5180" data-name="Path 5180" d="M357.163,100.476" transform="translate(-325.544 -85.356)" fill="none" stroke="#1d1d1b" stroke-miterlimit="10" stroke-width="0.5"/>
        <path id="Path_5181" data-name="Path 5181" d="M328.968,93.156l-.105-.057a46.588,46.588,0,0,1,9.475-11.609l.078.091A46.446,46.446,0,0,0,328.968,93.156Z" transform="translate(-313.92 -77.558)" fill="#505720"/>
        <path id="Path_5182" data-name="Path 5182" d="M328.968,93.19l-.105-.057c3.383-6.369,10.282-11.51,10.351-11.561l.071.1C339.216,81.719,332.339,86.845,328.968,93.19Z" transform="translate(-313.92 -77.591)" fill="#505720"/>
        <path id="Path_5183" data-name="Path 5183" d="M328.889,93.526l-.106-.057c3.385-6.37,11.318-11.685,11.4-11.738l.067.1C340.167,81.885,332.259,87.183,328.889,93.526Z" transform="translate(-313.887 -77.657)" fill="#505720"/>
        <path id="Path_5184" data-name="Path 5184" d="M328.944,93.955l-.106-.057c3.385-6.372,12.1-11.784,12.189-11.837l.063.1C341,82.217,332.313,87.612,328.944,93.955Z" transform="translate(-313.909 -77.792)" fill="#505720"/>
        <path id="Path_5185" data-name="Path 5185" d="M329.349,91.813l-.107-.054a114.515,114.515,0,0,1,6.8-11.229l.1.068A114.5,114.5,0,0,0,329.349,91.813Z" transform="translate(-314.075 -77.163)" fill="#505720"/>
        <path id="Path_5186" data-name="Path 5186" d="M329.071,92.677l-.107-.054A76.221,76.221,0,0,1,336.4,81.49l.094.075A76.094,76.094,0,0,0,329.071,92.677Z" transform="translate(-313.961 -77.558)" fill="#505720"/>
        <path id="Path_5187" data-name="Path 5187" d="M328.972,92.94l-.107-.054c2.615-5.175,8.29-11.3,8.347-11.361l.088.082C337.243,81.668,331.58,87.78,328.972,92.94Z" transform="translate(-313.921 -77.572)" fill="#505720"/>
        <path id="Path_5188" data-name="Path 5188" d="M317.871,105.411c.193-4.718-3.629-6.66-7.674-8.715a30.624,30.624,0,0,1-5.766-3.481l.077-.093a30.565,30.565,0,0,0,5.743,3.467c4.081,2.073,7.935,4.031,7.739,8.826Z" transform="translate(-303.885 -82.336)" fill="#505720"/>
        <path id="Path_5189" data-name="Path 5189" d="M318,104.408c.766-4.494-5.212-7.771-9.576-10.164a19.447,19.447,0,0,1-3.695-2.319l.085-.084a19.488,19.488,0,0,0,3.667,2.3c4.4,2.411,10.417,5.712,9.636,10.29Z" transform="translate(-304.007 -81.809)" fill="#505720"/>
        <path id="Path_5190" data-name="Path 5190" d="M318.2,103.136c.77-4.52-5.237-7.922-9.623-10.407a20.1,20.1,0,0,1-3.612-2.323l.085-.084a20.091,20.091,0,0,0,3.586,2.3c4.417,2.5,10.467,5.928,9.682,10.531Z" transform="translate(-304.104 -81.185)" fill="#505720"/>
        <path id="Path_5191" data-name="Path 5191" d="M318.445,102.03c.855-5.018-6.686-9.334-10.737-11.652a26.636,26.636,0,0,1-2.289-1.391l.072-.1a26.506,26.506,0,0,0,2.277,1.384c4.076,2.333,11.665,6.676,10.8,11.776Z" transform="translate(-304.29 -80.597)" fill="#505720"/>
        <path id="Path_5192" data-name="Path 5192" d="M318.982,102.1l-.116-.031c1.041-3.934-2.348-7.587-5.373-9.959a39.72,39.72,0,0,0-6.908-4.257l.051-.109a39.9,39.9,0,0,1,6.93,4.271C317.946,95.452,319.819,98.94,318.982,102.1Z" transform="translate(-304.769 -80.128)" fill="#505720"/>
        <path id="Path_5193" data-name="Path 5193" d="M319.4,100.794l-.116-.03c1.867-7.271-11.791-13.99-11.929-14.058l.052-.108a39.891,39.891,0,0,1,6.705,4.294C318.356,94.318,320.184,97.742,319.4,100.794Z" transform="translate(-305.086 -79.656)" fill="#505720"/>
        <path id="Path_5194" data-name="Path 5194" d="M319.816,99.706l-.116-.029c1.729-6.66-11.431-14.01-11.564-14.084l.058-.1a43.449,43.449,0,0,1,6.468,4.539C318.759,93.562,320.542,96.91,319.816,99.706Z" transform="translate(-305.406 -79.2)" fill="#505720"/>
        <path id="Path_5195" data-name="Path 5195" d="M320.462,98.117c.051-6.779-10.953-13.419-11.065-13.485l.062-.1c.111.066,11.174,6.742,11.123,13.589Z" transform="translate(-305.924 -78.806)" fill="#505720"/>
        <path id="Path_5196" data-name="Path 5196" d="M320.793,97.006c.051-6.779-10.418-13.462-10.524-13.528l.064-.1c.106.067,10.632,6.785,10.58,13.632Z" transform="translate(-306.282 -78.332)" fill="#505720"/>
        <path id="Path_5197" data-name="Path 5197" d="M321.231,96.188c.051-6.78-9.67-13.578-9.768-13.646l.068-.1c.1.068,9.871,6.9,9.82,13.745Z" transform="translate(-306.773 -77.949)" fill="#505720"/>
        <path id="Path_5198" data-name="Path 5198" d="M321.944,96.023c.2-6.686-8.955-14.144-9.047-14.218l.075-.094c.093.075,9.3,7.57,9.092,14.315Z" transform="translate(-307.362 -77.648)" fill="#505720"/>
        <path id="Path_5199" data-name="Path 5199" d="M322.959,95.627c-.094-6.592-7.762-13.684-7.839-13.755l.081-.088c.078.071,7.783,7.2,7.878,13.841Z" transform="translate(-308.275 -77.678)" fill="#505720"/>
        <path id="Path_5200" data-name="Path 5200" d="M323.565,95.057c-.093-6.594-6.859-13.472-6.928-13.541l.085-.084c.068.069,6.868,6.981,6.963,13.623Z" transform="translate(-308.898 -77.534)" fill="#505720"/>
        <path id="Path_5201" data-name="Path 5201" d="M323.928,94.083c-.094-6.595-6.519-13.731-6.584-13.8l.088-.081c.065.071,6.521,7.241,6.615,13.881Z" transform="translate(-309.188 -77.028)" fill="#505720"/>
        <path id="Path_5202" data-name="Path 5202" d="M324.151,94.05c.392-8.178-6.023-14.908-6.088-14.976l.087-.084c.065.068,6.515,6.836,6.121,15.065Z" transform="translate(-309.484 -76.531)" fill="#505720"/>
        <path id="Path_5203" data-name="Path 5203" d="M324.695,93.126c.392-8.179-5.416-14.766-5.475-14.832l.089-.08c.059.066,5.9,6.69,5.506,14.918Z" transform="translate(-309.959 -76.212)" fill="#505720"/>
        <path id="Path_5204" data-name="Path 5204" d="M325.352,92.628c.392-8.182-4.748-14.719-4.8-14.784l.094-.075c.052.065,5.22,6.638,4.826,14.864Z" transform="translate(-310.506 -76.03)" fill="#505720"/>
        <path id="Path_5205" data-name="Path 5205" d="M325.865,92.061a26.812,26.812,0,0,0-4.228-14.91l.1-.068a26.96,26.96,0,0,1,4.25,14.984Z" transform="translate(-310.952 -75.747)" fill="#505720"/>
        <path id="Path_5206" data-name="Path 5206" d="M326.48,90.864c.422-6.277-3.564-14.069-3.6-14.147l.107-.055c.04.078,4.042,7.9,3.617,14.21Z" transform="translate(-311.461 -75.574)" fill="#505720"/>
        <path id="Path_5207" data-name="Path 5207" d="M326.936,90.048c.423-6.278-3.16-14.2-3.2-14.28l.109-.049c.037.08,3.632,8.029,3.207,14.338Z" transform="translate(-311.815 -75.187)" fill="#505720"/>
        <path id="Path_5208" data-name="Path 5208" d="M327.57,89.31c.423-6.28-2.515-14.176-2.544-14.255l.112-.042c.03.08,2.977,8,2.553,14.306Z" transform="translate(-312.344 -74.897)" fill="#505720"/>
        <path id="Path_5209" data-name="Path 5209" d="M328.282,89.414c.762-6.983-1.642-14.321-1.666-14.394l.114-.038c.025.074,2.436,7.435,1.671,14.444Z" transform="translate(-312.997 -74.884)" fill="#505720"/>
        <path id="Path_5210" data-name="Path 5210" d="M328.989,88.926a46.072,46.072,0,0,0-.781-13.667l.117-.028a46.168,46.168,0,0,1,.784,13.708Z" transform="translate(-313.651 -74.987)" fill="#505720"/>
        <path id="Path_5211" data-name="Path 5211" d="M329.7,89.027a70.668,70.668,0,0,0,.047-13.593l.12-.013a70.881,70.881,0,0,1-.047,13.618Z" transform="translate(-314.262 -75.065)" fill="#505720"/>
        <path id="Path_5212" data-name="Path 5212" d="M329.625,88.7c1.012-4.314,1.112-12.663,1.113-12.747h.12c0,.084-.1,8.446-1.116,12.773Z" transform="translate(-314.233 -75.282)" fill="#505720"/>
        <path id="Path_5213" data-name="Path 5213" d="M304.552,145.69l-1.049-.315a35.287,35.287,0,0,0,6.961-10.414,97.011,97.011,0,0,0,3.863-10.331c1.956-6.034,3.114-10.87,3.141-10.977l.166.029c-.031.124-1.646,6.446-4.05,13.735C311.318,134.283,308.378,142.025,304.552,145.69Z" transform="translate(-303.503 -90.769)" fill="#505720"/>
        <g id="Group_933" data-name="Group 933" transform="translate(15.808 1.427)">
          <line id="Line_1" data-name="Line 1" x1="3.184" y2="11.157" transform="translate(0.046 0.02)" fill="#c2be65"/>
          <rect id="Rectangle_58" data-name="Rectangle 58" width="11.602" height="0.12" transform="translate(0 11.164) rotate(-74.197)" fill="#505720"/>
        </g>
        <g id="Group_934" data-name="Group 934" transform="translate(15.683 1.644)">
          <line id="Line_2" data-name="Line 2" x1="3.954" y2="11.417" transform="translate(0.057 0.02)" fill="#c2be65"/>
          <path id="Path_5214" data-name="Path 5214" d="M330.233,89.063l-.114-.039,3.954-11.417.114.039Z" transform="translate(-330.119 -77.607)" fill="#505720"/>
        </g>
        <g id="Group_935" data-name="Group 935" transform="translate(15.609 0.939)">
          <line id="Line_3" data-name="Line 3" x1="1.861" y2="12.446" transform="translate(0.059 0.009)" fill="#c2be65"/>
          <rect id="Rectangle_59" data-name="Rectangle 59" width="12.584" height="0.12" transform="translate(0 12.446) rotate(-81.498)" fill="#505720"/>
        </g>
        <g id="Group_936" data-name="Group 936" transform="translate(15.795 1.187)">
          <line id="Line_4" data-name="Line 4" x1="2.393" y2="11.405" transform="translate(0.059 0.012)" fill="#c2be65"/>
          <rect id="Rectangle_60" data-name="Rectangle 60" width="11.653" height="0.12" transform="translate(0 11.405) rotate(-78.149)" fill="#505720"/>
        </g>
        <g id="Group_937" data-name="Group 937" transform="translate(15.529 2.058)">
          <line id="Line_5" data-name="Line 5" y1="11.503" x2="4.987" transform="translate(0.057 0.023)" fill="#c2be65"/>
          <rect id="Rectangle_61" data-name="Rectangle 61" width="12.538" height="0.12" transform="translate(0 11.502) rotate(-66.543)" fill="#505720"/>
        </g>
        <g id="Group_938" data-name="Group 938" transform="translate(15.365 2.444)">
          <line id="Line_6" data-name="Line 6" y1="11.675" x2="5.932" transform="translate(0.054 0.027)" fill="#c2be65"/>
          <path id="Path_5215" data-name="Path 5215" d="M329.686,90.693l-.107-.054,5.932-11.675.107.054Z" transform="translate(-329.579 -78.964)" fill="#505720"/>
        </g>
        <g id="Group_939" data-name="Group 939" transform="translate(15.432 2.31)">
          <line id="Line_7" data-name="Line 7" y1="11.503" x2="4.987" transform="translate(0.06 0.022)" fill="#c2be65"/>
          <rect id="Rectangle_62" data-name="Rectangle 62" width="12.538" height="0.12" transform="translate(0 11.499) rotate(-66.509)" fill="#505720"/>
        </g>
        <path id="Path_5216" data-name="Path 5216" d="M330.431,108.6l-.065-.1c4.989-3.217,15.218.887,15.32.93l-.045.111C345.538,109.5,335.367,105.42,330.431,108.6Z" transform="translate(-314.537 -88.148)" fill="#505720"/>
        <path id="Path_5217" data-name="Path 5217" d="M328.529,109.841l-.08-.09c2.755-2.455,6.849-2.267,9.8-1.676a27.441,27.441,0,0,1,5.788,1.884l-.052.108C343.88,110.018,333.736,105.2,328.529,109.841Z" transform="translate(-313.75 -88.323)" fill="#505720"/>
        <path id="Path_5218" data-name="Path 5218" d="M349.6,110.859a25.75,25.75,0,0,0-5.759-1.726l.02-.118a25.944,25.944,0,0,1,5.79,1.736Z" transform="translate(-320.073 -88.863)" fill="#505720"/>
      </g>
      <g id="Group_943" data-name="Group 943" transform="translate(285.965 97.447)">
        <path id="Path_5219" data-name="Path 5219" d="M299.947,156.743c-.3-5.188,3.4-8.413,6.568-10.206a26.8,26.8,0,0,1,6.991-2.668l.024.118a26.64,26.64,0,0,0-6.959,2.656c-3.132,1.775-6.372,4.974-6.073,10.1Z" transform="translate(-299.93 -125.811)" fill="#505720"/>
        <g id="Group_942" data-name="Group 942" transform="translate(13.346)">
          <g id="Group_941" data-name="Group 941">
            <path id="Path_5220" data-name="Path 5220" d="M345.06,132.432c-.844-1.351.257-1.883.174-2.524a7.343,7.343,0,0,0-1.3-2.8,5.5,5.5,0,0,0-3.591-.147c-.869.473-5.884,1.85-5.407.818s6.874-1.858,7.528-2.523,3.349-1.112,2.261-3.724-1.635-.569-2.461-2.173-2.2-1.167-2.649-1.3-.83-1.934-1.645-1.889-1.113-.787-2.179-.76-.613-1.412-2.474-1.262-1.506-1.512-2.914-.487-.619.242-1.408,1.025-1.044,4.277-1.521,7.871c-.46,3.469-4.5,8.592-4.775,8.942l.022,0c.227-.08,1.563-.231,5.838,4.531,4.756,5.3,5.047,10.265,7.041,9.667s-.528-.443,1.676-1.507,2.824-1.224,2.855-2.059,1.857-.81,1.812-1.625,1.111-1.774,1.224-2.3,1.367-1.428,1.356-2.747S345.9,133.784,345.06,132.432Z" transform="translate(-322.627 -113.265)" fill="#c2be65"/>
            <path id="Path_5221" data-name="Path 5221" d="M345.062,132.359a1.526,1.526,0,0,1-.029-1.807,1.191,1.191,0,0,0,.213-.694,7.3,7.3,0,0,0-1.326-2.843,5.253,5.253,0,0,0-2.239-.4,3.274,3.274,0,0,0-1.416.249,16.736,16.736,0,0,1-4.8,1.186c-.391,0-.5-.081-.533-.13-.009-.014-.037-.058.01-.16.261-.564,2.567-1.109,4.419-1.546a10.815,10.815,0,0,0,3.1-.959,3.294,3.294,0,0,1,.723-.46c1.013-.544,2.4-1.29,1.551-3.329-.625-1.5-1.1-1.5-1.519-1.5-.321,0-.6,0-.945-.674a2.266,2.266,0,0,0-2.286-1.3,1.734,1.734,0,0,1-.4-.03c-.156-.046-.325-.369-.5-.711-.29-.554-.62-1.182-1.127-1.182h-.034a1.469,1.469,0,0,1-.906-.33,2.1,2.1,0,0,0-1.217-.43h-.082c-.4,0-.565-.233-.753-.5a1.494,1.494,0,0,0-1.43-.77c-.084,0-.173,0-.265.011a1.825,1.825,0,0,1-1.523-.506.964.964,0,0,0-.626-.316,1.44,1.44,0,0,0-.8.347,4.573,4.573,0,0,1-.923.6c-.089.035-.089.035-.493.434-.65.644-.941,3.046-1.278,5.828-.082.676-.167,1.375-.26,2.077-.468,3.536-4.736,8.88-4.779,8.934l-.006.008a1.207,1.207,0,0,1,.249.049h.009c.468,0,1.952.442,5.626,4.535a29.246,29.246,0,0,1,4.487,6.911c.851,1.7,1.414,2.825,2.283,2.825a1.164,1.164,0,0,0,.333-.052c.66-.2.823-.312.864-.424a.244.244,0,0,0-.055-.22.233.233,0,0,1-.057-.2c.047-.168.361-.393.934-.669.309-.15.587-.281.837-.4,1.555-.736,2.024-.958,2.053-1.711.015-.379.461-.576.893-.765.464-.2.943-.415.919-.865a2.67,2.67,0,0,1,.727-1.468,2.62,2.62,0,0,0,.5-.815,2.2,2.2,0,0,1,.42-.663,3.467,3.467,0,0,0,.938-2.1,2.229,2.229,0,0,1,.438-1.246A1.45,1.45,0,0,0,345.062,132.359Zm-.193,1.754a2.358,2.358,0,0,0-.457,1.31,3.375,3.375,0,0,1-.913,2.023,2.167,2.167,0,0,0-.443.711,2.641,2.641,0,0,1-.474.768,2.74,2.74,0,0,0-.751,1.547c.021.367-.4.553-.847.749-.465.205-.947.417-.965.87-.027.681-.48.9-1.985,1.607-.25.118-.528.25-.837.4-.817.395-.961.615-1,.745a.349.349,0,0,0,.071.295c.034.052.054.086.044.114-.032.085-.3.2-.786.35a1.028,1.028,0,0,1-.3.047c-.794,0-1.344-1.1-2.176-2.758a29.338,29.338,0,0,0-4.5-6.938c-3.706-4.129-5.231-4.575-5.715-4.575l-.051,0c.672-.864,4.266-5.607,4.7-8.856.093-.7.178-1.4.26-2.078.335-2.759.623-5.143,1.243-5.758.387-.382.387-.382.452-.408a4.522,4.522,0,0,0,.95-.61,1.336,1.336,0,0,1,.725-.325.865.865,0,0,1,.549.288,1.919,1.919,0,0,0,1.611.534c.088-.007.174-.011.255-.011a1.378,1.378,0,0,1,1.332.719.966.966,0,0,0,.851.554h.082a1.967,1.967,0,0,1,1.152.411,1.562,1.562,0,0,0,.978.349h.027c.435,0,.746.594,1.021,1.118.2.381.372.709.576.77a1.717,1.717,0,0,0,.432.035,2.138,2.138,0,0,1,2.181,1.234c.38.738.721.738,1.051.74.4,0,.815,0,1.409,1.43.807,1.939-.524,2.654-1.5,3.177a3.321,3.321,0,0,0-.751.481,11.444,11.444,0,0,1-3.04.926c-2.072.489-4.214,1-4.5,1.613a.274.274,0,0,0,0,.275c.08.125.287.185.634.185a16.948,16.948,0,0,0,4.858-1.2,3.03,3.03,0,0,1,1.359-.235,5.178,5.178,0,0,1,2.167.378,7.245,7.245,0,0,1,1.279,2.762,1.1,1.1,0,0,1-.2.622,1.641,1.641,0,0,0,.034,1.926A1.34,1.34,0,0,1,344.869,134.112Z" transform="translate(-322.579 -113.223)" fill="#505720"/>
          </g>
          <path id="Path_5222" data-name="Path 5222" d="M323.623,132.374l-.058-.106c6.328-3.416,5.5-15.924,5.488-16.05l.12-.009a33.191,33.191,0,0,1-.347,6.765C328.3,126.266,326.968,130.568,323.623,132.374Z" transform="translate(-322.984 -114.45)" fill="#505720"/>
          <path id="Path_5223" data-name="Path 5223" d="M328.357,118.681l-.12.01c.009.106.849,10.662-5.625,14.978l.016.025a1.191,1.191,0,0,1,.127.022C329.2,129.33,328.366,118.787,328.357,118.681Z" transform="translate(-322.593 -115.465)" fill="#505720"/>
          <path id="Path_5224" data-name="Path 5224" d="M323.62,131.514l-.037-.114c3.929-1.277,5.609-5.9,6.326-9.561a36.919,36.919,0,0,0,.62-7.729l.12-.005a37.074,37.074,0,0,1-.622,7.754C329.3,125.548,327.606,130.218,323.62,131.514Z" transform="translate(-322.991 -113.585)" fill="#505720"/>
          <path id="Path_5225" data-name="Path 5225" d="M323.38,131.933l-.047-.111c6.908-2.895,6.453-16.805,6.448-16.946l.12,0a37.018,37.018,0,0,1-.608,7.411C328.612,125.84,327.034,130.4,323.38,131.933Z" transform="translate(-322.889 -113.9)" fill="#505720"/>
          <path id="Path_5226" data-name="Path 5226" d="M323.879,131.12l-.031-.115c4.046-1.094,5.911-5.834,6.763-9.619a39.43,39.43,0,0,0,.888-8.051h.12a39.57,39.57,0,0,1-.891,8.079C329.5,126.886,327.127,130.243,323.879,131.12Z" transform="translate(-323.1 -113.268)" fill="#505720"/>
          <path id="Path_5227" data-name="Path 5227" d="M325.847,143.828" transform="translate(-323.921 -125.794)" fill="none" stroke="#1d1d1b" stroke-miterlimit="10" stroke-width="0.5"/>
          <path id="Path_5228" data-name="Path 5228" d="M325.854,131.348l-.046-.111a14.718,14.718,0,0,0,8.513-9.806,20.8,20.8,0,0,0,.829-6.627l.119-.009a20.9,20.9,0,0,1-.833,6.669A14.835,14.835,0,0,1,325.854,131.348Z" transform="translate(-323.905 -113.869)" fill="#505720"/>
          <path id="Path_5229" data-name="Path 5229" d="M324.493,131.719l-.048-.11a15.637,15.637,0,0,0,8.6-10.116,21.335,21.335,0,0,0,.9-6.689l.12-.007a21.431,21.431,0,0,1-.9,6.726A15.754,15.754,0,0,1,324.493,131.719Z" transform="translate(-323.345 -113.87)" fill="#505720"/>
          <path id="Path_5230" data-name="Path 5230" d="M331.853,113.933l-.12,0a31.254,31.254,0,0,1-1,7.828c-1,3.725-3.208,8.475-8.094,9.948l.01.034a1.129,1.129,0,0,1,.168.034c4.839-1.538,7.039-6.268,8.033-9.987A31.413,31.413,0,0,0,331.853,113.933Z" transform="translate(-322.604 -113.515)" fill="#505720"/>
          <path id="Path_5231" data-name="Path 5231" d="M323.241,132.029l-.041-.113c5.007-1.78,7.328-6.358,8.393-9.885a27.23,27.23,0,0,0,1.125-7.309l.12,0a27.406,27.406,0,0,1-1.13,7.346C330.635,125.62,328.294,130.232,323.241,132.029Z" transform="translate(-322.834 -113.838)" fill="#505720"/>
          <path id="Path_5232" data-name="Path 5232" d="M326.349,132.38l-.033-.115a15.879,15.879,0,0,0,9.746-8.62,23.35,23.35,0,0,0,2.091-6.455l.119.016a23.487,23.487,0,0,1-2.1,6.489A16,16,0,0,1,326.349,132.38Z" transform="translate(-324.114 -114.852)" fill="#505720"/>
          <path id="Path_5233" data-name="Path 5233" d="M326.071,132.246l-.033-.116a15.258,15.258,0,0,0,9.554-8.659,22.864,22.864,0,0,0,1.9-6.5l.119.012a22.958,22.958,0,0,1-1.909,6.529A15.376,15.376,0,0,1,326.071,132.246Z" transform="translate(-324 -114.765)" fill="#505720"/>
          <path id="Path_5234" data-name="Path 5234" d="M324.759,132.426l-.032-.115c5.272-1.5,8.113-5.656,9.567-8.88a24.262,24.262,0,0,0,1.915-6.717l.119.012a24.358,24.358,0,0,1-1.923,6.75C332.94,126.725,330.077,130.915,324.759,132.426Z" transform="translate(-323.461 -114.657)" fill="#505720"/>
          <path id="Path_5235" data-name="Path 5235" d="M324.292,132.114,324.26,132c5.273-1.5,8.027-5.834,9.41-9.207a25.716,25.716,0,0,0,1.756-7.039l.12.008a25.862,25.862,0,0,1-1.765,7.076C332.388,126.235,329.612,130.6,324.292,132.114Z" transform="translate(-323.269 -114.262)" fill="#505720"/>
          <path id="Path_5236" data-name="Path 5236" d="M327.04,132.407l-.033-.115A16.281,16.281,0,0,0,336.851,124a21.838,21.838,0,0,0,2.188-6.127l.119.019a21.987,21.987,0,0,1-2.2,6.161A16.4,16.4,0,0,1,327.04,132.407Z" transform="translate(-324.398 -115.132)" fill="#505720"/>
          <path id="Path_5237" data-name="Path 5237" d="M326.069,133.4l-.018-.118c5.337-.833,8.927-4.457,11-7.35a25.76,25.76,0,0,0,3.253-6.151l.114.038a25.9,25.9,0,0,1-3.268,6.18C335.064,128.911,331.449,132.56,326.069,133.4Z" transform="translate(-324.005 -115.916)" fill="#505720"/>
          <path id="Path_5238" data-name="Path 5238" d="M327.57,133.471l-.021-.118a17.237,17.237,0,0,0,10.607-6.948,23.176,23.176,0,0,0,3.106-5.6l.114.039a23.33,23.33,0,0,1-3.124,5.636A17.351,17.351,0,0,1,327.57,133.471Z" transform="translate(-324.62 -116.336)" fill="#505720"/>
          <path id="Path_5239" data-name="Path 5239" d="M327.57,133.664l-.018-.119a17.537,17.537,0,0,0,10.981-6.739,22.5,22.5,0,0,0,3.233-5.537l.113.041a22.633,22.633,0,0,1-3.25,5.568A17.661,17.661,0,0,1,327.57,133.664Z" transform="translate(-324.622 -116.528)" fill="#505720"/>
          <path id="Path_5240" data-name="Path 5240" d="M327.571,132.47l-.025-.117c4.635-1,7.82-4.747,9.675-7.714a29.454,29.454,0,0,0,2.95-6.274l.115.035a29.619,29.619,0,0,1-2.961,6.3C335.457,127.688,332.248,131.462,327.571,132.47Z" transform="translate(-324.619 -115.335)" fill="#505720"/>
          <path id="Path_5241" data-name="Path 5241" d="M326.069,132.99l-.022-.118c5.228-.993,8.751-4.693,10.787-7.622a26.676,26.676,0,0,0,3.2-6.188l.114.037a26.835,26.835,0,0,1-3.214,6.217C334.886,128.265,331.338,131.989,326.069,132.99Z" transform="translate(-324.004 -115.621)" fill="#505720"/>
          <path id="Path_5242" data-name="Path 5242" d="M336.975,131.835l-.052-.108c5.538-2.682,9.574-10.091,9.615-10.166l.1.057C346.6,121.693,342.547,129.136,336.975,131.835Z" transform="translate(-328.471 -116.648)" fill="#505720"/>
          <path id="Path_5243" data-name="Path 5243" d="M336.624,132.189l-.052-.108c5.541-2.683,10.708-9.87,10.76-9.942l.1.07C347.378,122.281,342.193,129.492,336.624,132.189Z" transform="translate(-328.327 -116.885)" fill="#505720"/>
          <path id="Path_5244" data-name="Path 5244" d="M336.433,132.731l-.059-.1a51.857,51.857,0,0,0,11.4-9.315l.09.08A51.982,51.982,0,0,1,336.433,132.731Z" transform="translate(-328.245 -117.367)" fill="#505720"/>
          <path id="Path_5245" data-name="Path 5245" d="M335.306,133.559l-.05-.108c6.29-2.884,12.532-8.9,12.594-8.958l.084.086C347.872,124.64,341.615,130.668,335.306,133.559Z" transform="translate(-327.786 -117.852)" fill="#505720"/>
          <path id="Path_5246" data-name="Path 5246" d="M335.69,133.6l-.045-.111c6.478-2.66,13.339-8.585,13.408-8.645l.079.091C349.063,124.992,342.187,130.93,335.69,133.6Z" transform="translate(-327.946 -117.996)" fill="#505720"/>
          <path id="Path_5247" data-name="Path 5247" d="M335.505,133.981l-.045-.111c6.481-2.662,13.939-8.158,14.014-8.213l.071.1C349.47,125.808,342,131.314,335.505,133.981Z" transform="translate(-327.87 -118.33)" fill="#505720"/>
          <path id="Path_5248" data-name="Path 5248" d="M334.853,134.572l-.042-.113a85.375,85.375,0,0,0,14.72-7.814l.067.1A85.518,85.518,0,0,1,334.853,134.572Z" transform="translate(-327.603 -118.736)" fill="#505720"/>
          <path id="Path_5249" data-name="Path 5249" d="M336.279,134.711l-.039-.113a80.291,80.291,0,0,0,14.122-6.66l.064.1A80.5,80.5,0,0,1,336.279,134.711Z" transform="translate(-328.19 -119.267)" fill="#505720"/>
          <path id="Path_5250" data-name="Path 5250" d="M335.829,135.5l-.042-.113c12.772-4.743,14.509-6.019,14.525-6.032l.073.095C350.321,129.5,348.651,130.739,335.829,135.5Z" transform="translate(-328.004 -119.85)" fill="#505720"/>
          <path id="Path_5251" data-name="Path 5251" d="M337.287,135.674l-.035-.115c12.323-3.741,13.432-4.993,13.442-5l.094.075C350.747,130.68,349.646,131.923,337.287,135.674Z" transform="translate(-328.606 -120.342)" fill="#505720"/>
          <path id="Path_5252" data-name="Path 5252" d="M336.73,157.257c-.054-.12-5.5-12.055-13.133-13.379l.02-.118c7.694,1.336,13.168,13.328,13.222,13.448Z" transform="translate(-322.997 -125.766)" fill="#505720"/>
          <path id="Path_5253" data-name="Path 5253" d="M336.093,158.171c-.052-.128-5.247-12.829-12.876-14.154l.021-.118c4.025.7,7.337,4.532,9.407,7.625a40.969,40.969,0,0,1,3.56,6.6Z" transform="translate(-322.841 -125.823)" fill="#505720"/>
          <path id="Path_5254" data-name="Path 5254" d="M335.3,158.354c-.051-.125-5.187-12.507-12.1-14.257l.03-.117c6.966,1.765,12.125,14.2,12.177,14.328Z" transform="translate(-322.838 -125.857)" fill="#505720"/>
          <path id="Path_5255" data-name="Path 5255" d="M341.357,153.753c-.1-.107-9.756-10.7-16.42-10.84l0-.12c6.716.142,16.409,10.772,16.507,10.879Z" transform="translate(-323.548 -125.369)" fill="#505720"/>
          <path id="Path_5256" data-name="Path 5256" d="M341.155,154.506c-.091-.11-9.195-10.964-15.858-11.384l.008-.12c6.715.423,15.851,11.316,15.943,11.427Z" transform="translate(-323.695 -125.455)" fill="#505720"/>
          <path id="Path_5257" data-name="Path 5257" d="M340.607,155.255c-.089-.113-8.966-11.266-15.563-11.956l.012-.119c6.648.7,15.556,11.888,15.644,12Z" transform="translate(-323.592 -125.528)" fill="#505720"/>
          <path id="Path_5258" data-name="Path 5258" d="M339.621,155.785c-.081-.116-8.219-11.6-15.145-12.259l.011-.12c6.981.662,15.151,12.194,15.233,12.31Z" transform="translate(-323.358 -125.621)" fill="#505720"/>
          <path id="Path_5259" data-name="Path 5259" d="M338.515,156.194c-.076-.12-7.721-12.012-14.645-12.669l.011-.12c6.983.662,14.659,12.6,14.735,12.724Z" transform="translate(-323.109 -125.621)" fill="#505720"/>
          <path id="Path_5260" data-name="Path 5260" d="M337.7,156.671c-.068-.123-6.913-12.264-13.835-12.921l.011-.12c6.985.663,13.86,12.859,13.929,12.982Z" transform="translate(-323.107 -125.713)" fill="#505720"/>
          <path id="Path_5261" data-name="Path 5261" d="M345.106,150.92c-.1-.086-10.407-8.591-16.316-8.693l0-.12c5.951.1,16.287,8.634,16.392,8.72Z" transform="translate(-325.13 -125.088)" fill="#505720"/>
          <path id="Path_5262" data-name="Path 5262" d="M344.3,151.631c-.1-.091-10.473-9.145-16.381-9.246l0-.12c5.952.1,16.354,9.185,16.458,9.276Z" transform="translate(-324.772 -125.152)" fill="#505720"/>
          <path id="Path_5263" data-name="Path 5263" d="M343.681,152.551c-.107-.1-10.74-9.8-16.647-9.9l0-.12c5.953.1,16.62,9.831,16.727,9.929Z" transform="translate(-324.409 -125.262)" fill="#505720"/>
          <path id="Path_5264" data-name="Path 5264" d="M342.826,153.22c-.108-.1-10.854-10.308-16.76-10.408l0-.12c5.953.1,16.733,10.339,16.842,10.442Z" transform="translate(-324.011 -125.327)" fill="#505720"/>
          <path id="Path_5265" data-name="Path 5265" d="M347.309,148.509c-.111-.069-11.1-6.884-16.608-6.884h-.015v-.12h.015c5.537,0,16.56,6.832,16.671,6.9Z" transform="translate(-325.909 -124.84)" fill="#505720"/>
          <path id="Path_5266" data-name="Path 5266" d="M346.536,149.244c-.11-.074-11.105-7.358-16.607-7.358h-.015v-.12h.014c5.538,0,16.563,7.3,16.674,7.378Z" transform="translate(-325.592 -124.947)" fill="#505720"/>
          <path id="Path_5267" data-name="Path 5267" d="M345.791,150c-.11-.08-11.1-7.97-16.6-7.97h-.014v-.12h.014c5.538,0,16.559,7.912,16.67,7.993Z" transform="translate(-325.29 -125.007)" fill="#505720"/>
          <path id="Path_5268" data-name="Path 5268" d="M348.266,146.551c-.1-.051-10.536-5.1-16.554-5.339l0-.12c6.043.241,16.5,5.3,16.6,5.351Z" transform="translate(-326.33 -124.67)" fill="#505720"/>
          <path id="Path_5269" data-name="Path 5269" d="M347.99,147.495c-.105-.059-10.632-5.879-16.649-6.119l0-.12c6.044.24,16.6,6.075,16.7,6.134Z" transform="translate(-326.178 -124.738)" fill="#505720"/>
          <path id="Path_5270" data-name="Path 5270" d="M348.74,145.546c-.095-.039-9.568-3.974-16.815-4.411l.007-.12c7.268.438,16.759,4.381,16.854,4.421Z" transform="translate(-326.418 -124.639)" fill="#505720"/>
          <path id="Path_5271" data-name="Path 5271" d="M349.123,143.04a157.384,157.384,0,0,0-15.78-2.561l.009-.12a157.554,157.554,0,0,1,15.8,2.564Z" transform="translate(-327 -124.369)" fill="#505720"/>
          <path id="Path_5272" data-name="Path 5272" d="M349.453,143.92c-.1-.028-10.441-2.775-16.237-3.211l.009-.12c5.807.437,16.155,3.187,16.259,3.215Z" transform="translate(-326.948 -124.464)" fill="#505720"/>
          <path id="Path_5273" data-name="Path 5273" d="M349.452,144.614c-.108-.033-10.832-3.322-16.626-3.758l.009-.12c5.808.437,16.545,3.729,16.653,3.763Z" transform="translate(-326.788 -124.525)" fill="#505720"/>
          <path id="Path_5274" data-name="Path 5274" d="M340.974,139.057c-1.306,0-2.716-.042-4.213-.143l.008-.12a54.338,54.338,0,0,0,13.529-.632l.025.118A49.965,49.965,0,0,1,340.974,139.057Z" transform="translate(-328.404 -123.467)" fill="#505720"/>
          <path id="Path_5275" data-name="Path 5275" d="M341.42,139.674c-1.736,0-3.65-.051-5.667-.188l.008-.12a83.163,83.163,0,0,0,14.357-.26l.015.119A77.49,77.49,0,0,1,341.42,139.674Z" transform="translate(-327.99 -123.855)" fill="#505720"/>
          <path id="Path_5276" data-name="Path 5276" d="M343.536,140.307a78.555,78.555,0,0,1-8.357-.418l.013-.12a87.6,87.6,0,0,0,14.9.184l.011.12C350.06,140.076,347.34,140.307,343.536,140.307Z" transform="translate(-327.755 -124.127)" fill="#505720"/>
          <path id="Path_5277" data-name="Path 5277" d="M347.515,140.73a107.22,107.22,0,0,1-12.681-.711l.015-.119a111.417,111.417,0,0,0,15.293.676l0,.12C350.118,140.7,349.123,140.73,347.515,140.73Z" transform="translate(-327.613 -124.181)" fill="#505720"/>
          <path id="Path_5278" data-name="Path 5278" d="M349.439,142.178c-.078-.011-7.9-1.117-15.392-1.932l.013-.12c7.493.816,15.317,1.922,15.4,1.933Z" transform="translate(-327.29 -124.274)" fill="#505720"/>
          <path id="Path_5279" data-name="Path 5279" d="M350.014,141.383c-.079,0-8-.323-15.491-1.138l.014-.12c7.491.815,15.4,1.134,15.482,1.137Z" transform="translate(-327.485 -124.274)" fill="#505720"/>
          <path id="Path_5280" data-name="Path 5280" d="M341.956,138.287a37.312,37.312,0,0,1-3.766-.2l.012-.12c7.885.8,12.153-1.117,12.2-1.137l.05.109A22.274,22.274,0,0,1,341.956,138.287Z" transform="translate(-328.991 -122.922)" fill="#505720"/>
          <path id="Path_5281" data-name="Path 5281" d="M341.334,137.843a9.635,9.635,0,0,1-2.114-.205l.027-.117c3.784.863,10.64-1.3,10.709-1.327l.037.115A34.725,34.725,0,0,1,341.334,137.843Z" transform="translate(-329.414 -122.658)" fill="#505720"/>
          <path id="Path_5282" data-name="Path 5282" d="M341.319,138.364a9.7,9.7,0,0,1-1.18-.083l.016-.118a6.687,6.687,0,0,0,1.943,0l.033.115A3.15,3.15,0,0,1,341.319,138.364Z" transform="translate(-329.792 -123.467)" fill="#505720"/>
          <path id="Path_5283" data-name="Path 5283" d="M341.122,137.915l-.012-.119c1.356-.146,1.409-.08,1.432-.051l.012.064-.114-.037.057.019-.034.042A8.776,8.776,0,0,0,341.122,137.915Z" transform="translate(-330.191 -123.279)" fill="#505720"/>
        </g>
      </g>
    </g>
  </g>
</svg>
