<svg xmlns="http://www.w3.org/2000/svg" width="557.537" height="167.265" viewBox="0 0 557.537 167.265">
  <g id="hint" transform="translate(-725.405 -580.76)">
    <path id="Path_1574" data-name="Path 1574" d="M3469.5,335.013a6.423,6.423,0,1,1-6.41-6.423,6.424,6.424,0,0,1,6.41,6.423Z" transform="translate(-2731.245 382.492)" fill="#5ac1f7"/>
    <path id="Path_1576" data-name="Path 1576" d="M3583.09,240.647,3460.88,364.992l1.3,1.326L3583.859,242.6a15.239,15.239,0,0,1,10.879-4.587H3936.3V236.1H3593.931a15.187,15.187,0,0,0-10.84,4.547Z" transform="translate(-2729.964 352.23)" fill="#5ac1f7"/>
    <rect id="Rectangle_8" data-name="Rectangle 8" width="330.607" height="1.876" transform="translate(875.719 580.76)" fill="#5ac1f7"/>
    <rect id="Rectangle_9" data-name="Rectangle 9" width="1.876" height="68.649" transform="translate(876.344 595.144)" fill="#5ac1f7"/>
    <path id="Path_1623" data-name="Path 1623" d="M3575.363,232.14h-8.4a15.321,15.321,0,0,0-10.866,4.508l-10.71,10.71-1.3-1.3,11.257-11.257a15.376,15.376,0,0,1,10.88-4.508h9.12Z" transform="translate(-2704.763 350.47)" fill="#5ac1f7"/>
    <path id="Path_1575" data-name="Path 1575" d="M3584,239.77V385.888c0,2.025.907,3.671,2.033,3.687h394.25c1.125-.016,2.032-1.662,2.032-3.687V239.77Z" transform="translate(-2699.373 358.45)" fill="#71c0ff" opacity="0.1"/>
  </g>
</svg>
