<?xml version="1.0" encoding="utf-8"?>
<!-- Generator: Adobe Illustrator 24.0.1, SVG Export Plug-In . SVG Version: 6.00 Build 0)  -->
<svg version="1.1" id="Layer_1" xmlns="http://www.w3.org/2000/svg" xmlns:xlink="http://www.w3.org/1999/xlink" x="0px" y="0px"
	 viewBox="0 0 81.9 77.4" style="enable-background:new 0 0 81.9 77.4;" xml:space="preserve">
<style type="text/css">
	.st0{fill:url(#Ellipse_19_1_);}
	.st1{opacity:0.5;fill:#FFFFFF;enable-background:new    ;}
	.st2{opacity:0.3;fill:#C088FF;enable-background:new    ;}
	.st3{fill:#7B704F;}
	.st4{fill:url(#Path_8096_1_);}
	.st5{fill:#FFF4C5;}
	.st6{fill:#4A2300;}
	.st7{fill:#8AD1FC;}
	.st8{font-family:'LucidaGrande-Bold';}
	.st9{font-size:19px;}
	.st10{fill:url(#SVGID_1_);}
	.st11{fill:url(#SVGID_2_);}
	.st12{fill:url(#SVGID_3_);}
	.st13{fill:url(#SVGID_4_);}
	.st14{fill:url(#SVGID_5_);}
	.st15{opacity:0.5;fill:url(#SVGID_6_);enable-background:new    ;}
	.st16{opacity:0.5;fill:url(#SVGID_7_);enable-background:new    ;}
	.st17{fill:url(#SVGID_8_);}
	.st18{opacity:0.5;fill:url(#SVGID_9_);enable-background:new    ;}
	.st19{opacity:0.5;fill:url(#SVGID_10_);enable-background:new    ;}
	.st20{opacity:0.5;fill:url(#SVGID_11_);enable-background:new    ;}
	.st21{clip-path:url(#SVGID_13_);}
	.st22{fill:url(#SVGID_14_);}
	.st23{fill:url(#SVGID_15_);}
	.st24{clip-path:url(#SVGID_17_);}
	.st25{fill:url(#SVGID_18_);}
	.st26{fill:url(#SVGID_19_);}
	.st27{clip-path:url(#SVGID_21_);}
	.st28{fill:url(#SVGID_22_);}
	.st29{fill:url(#SVGID_23_);}
	.st30{fill:url(#SVGID_24_);}
	.st31{fill:url(#SVGID_25_);}
	.st32{fill:url(#SVGID_26_);}
	.st33{fill:url(#SVGID_27_);}
	.st34{fill:url(#SVGID_28_);}
	.st35{opacity:0.5;fill:url(#SVGID_29_);enable-background:new    ;}
	.st36{opacity:0.5;fill:url(#SVGID_30_);enable-background:new    ;}
	.st37{fill:url(#SVGID_31_);}
	.st38{opacity:0.5;fill:url(#SVGID_32_);enable-background:new    ;}
	.st39{opacity:0.5;fill:url(#SVGID_33_);enable-background:new    ;}
	.st40{opacity:0.5;fill:url(#SVGID_34_);enable-background:new    ;}
	.st41{clip-path:url(#SVGID_36_);}
	.st42{fill:url(#SVGID_37_);}
	.st43{fill:url(#SVGID_38_);}
	.st44{fill:url(#SVGID_39_);}
	.st45{fill:url(#SVGID_40_);}
	.st46{fill:url(#SVGID_41_);}
	.st47{fill:url(#SVGID_42_);}
	.st48{fill:url(#SVGID_43_);}
	.st49{opacity:0.5;fill:url(#SVGID_44_);enable-background:new    ;}
	.st50{opacity:0.5;fill:url(#SVGID_45_);enable-background:new    ;}
	.st51{fill:url(#SVGID_46_);}
	.st52{opacity:0.5;fill:url(#SVGID_47_);enable-background:new    ;}
	.st53{opacity:0.5;fill:url(#SVGID_48_);enable-background:new    ;}
	.st54{opacity:0.5;fill:url(#SVGID_49_);enable-background:new    ;}
	.st55{fill:url(#SVGID_50_);}
	.st56{fill:url(#SVGID_51_);}
	.st57{fill:url(#SVGID_52_);}
	.st58{fill:url(#SVGID_53_);}
	.st59{fill:url(#SVGID_54_);}
	.st60{opacity:0.5;fill:url(#SVGID_55_);enable-background:new    ;}
	.st61{opacity:0.5;fill:url(#SVGID_56_);enable-background:new    ;}
	.st62{fill:url(#SVGID_57_);}
	.st63{opacity:0.5;fill:url(#SVGID_58_);enable-background:new    ;}
	.st64{opacity:0.5;fill:url(#SVGID_59_);enable-background:new    ;}
	.st65{opacity:0.5;fill:url(#SVGID_60_);enable-background:new    ;}
	.st66{fill:url(#SVGID_61_);}
	.st67{fill:url(#SVGID_62_);}
	.st68{fill:url(#SVGID_63_);}
	.st69{fill:url(#SVGID_64_);}
	.st70{fill:url(#SVGID_65_);}
	.st71{opacity:0.5;fill:url(#SVGID_66_);enable-background:new    ;}
	.st72{opacity:0.5;fill:url(#SVGID_67_);enable-background:new    ;}
	.st73{fill:url(#SVGID_68_);}
	.st74{opacity:0.5;fill:url(#SVGID_69_);enable-background:new    ;}
	.st75{opacity:0.5;fill:url(#SVGID_70_);enable-background:new    ;}
	.st76{opacity:0.5;fill:url(#SVGID_71_);enable-background:new    ;}
</style>
<g id="Hyaluronic" transform="translate(0 0)">
	
		<linearGradient id="Ellipse_19_1_" gradientUnits="userSpaceOnUse" x1="-520.1422" y1="11.4947" x2="-520.1422" y2="10.4953" gradientTransform="matrix(71.756 0 0 67.842 37364.2188 -707.2245)">
		<stop  offset="0" style="stop-color:#001555"/>
		<stop  offset="0.174" style="stop-color:#001555"/>
		<stop  offset="0.27" style="stop-color:#011D58"/>
		<stop  offset="0.422" style="stop-color:#043462"/>
		<stop  offset="0.612" style="stop-color:#0A5A72"/>
		<stop  offset="0.831" style="stop-color:#237CAA"/>
		<stop  offset="1" style="stop-color:#279BD7"/>
	</linearGradient>
	<ellipse id="Ellipse_19" class="st0" cx="40.9" cy="38.7" rx="35.9" ry="33.9"/>
	
		<image style="overflow:visible;opacity:0.1;enable-background:new    ;" width="1780" height="1230" id="Rectangle_11" xlink:href="33109A35B983CFDF.png"  transform="matrix(3.775112e-02 0 0 3.775112e-02 6.9865 4.7905)">
	</image>
	<path id="Path_8093" class="st1" d="M40.9,7.4c14.8,0,27.6,8.5,33,20.6c0.2-0.4,0.4-0.9,0.6-1.3c-5.1-12.8-18.2-22-33.6-22
		s-28.5,9.1-33.6,22c0.2,0.4,0.4,0.9,0.6,1.3C13.4,15.9,26.1,7.4,40.9,7.4z"/>
	<path id="Path_8094" class="st2" d="M40.9,69C21.7,69,6.1,54.8,5.1,36.9c0,0.6,0,1.2-0.1,1.8c0,18.7,16.1,33.9,35.9,33.9
		s35.9-15.2,35.9-33.9c0-0.6,0-1.2-0.1-1.8C75.8,54.8,60.1,69,40.9,69z"/>
	<path id="Path_8095" class="st3" d="M40.9,76.2C19,76.2,1.2,59.4,1.2,38.7S19.1,1.2,40.9,1.2S80.6,18,80.6,38.7
		S62.8,76.2,40.9,76.2z M40.9,2.9C20.1,2.9,3.1,19,3.1,38.7s17,35.8,37.8,35.8s37.8-16.1,37.8-35.8S61.8,2.9,40.9,2.9L40.9,2.9z"/>
	
		<linearGradient id="Path_8096_1_" gradientUnits="userSpaceOnUse" x1="-520.5241" y1="10.9489" x2="-520.5241" y2="9.9485" gradientTransform="matrix(75.693 0 0 71.569 39440.9805 -709.1017)">
		<stop  offset="0" style="stop-color:#EBC459"/>
		<stop  offset="7.500000e-02" style="stop-color:#D1BC4B"/>
		<stop  offset="0.162" style="stop-color:#DEC243"/>
		<stop  offset="0.244" style="stop-color:#D1B128"/>
		<stop  offset="0.318" style="stop-color:#E3C95D"/>
		<stop  offset="0.375" style="stop-color:#F1C40F"/>
		<stop  offset="0.53" style="stop-color:#F59325"/>
		<stop  offset="0.748" style="stop-color:#EA8C22"/>
		<stop  offset="0.911" style="stop-color:#A34201"/>
		<stop  offset="1" style="stop-color:#9C3600"/>
	</linearGradient>
	<path id="Path_8096" class="st4" d="M40.9,74.5C20,74.5,3.1,58.4,3.1,38.7s17-35.8,37.8-35.8S78.8,19,78.8,38.7
		S61.8,74.5,40.9,74.5z M40.9,4.8C21.1,4.8,5.1,20,5.1,38.7S21.2,72.6,41,72.6s35.9-15.2,35.9-33.9S60.7,4.8,40.9,4.8z"/>
	<path id="Path_8097" class="st5" d="M40.9,74.8c-10,0.1-19.7-3.7-27-10.6c-14.1-13-15-35-2-49c0.6-0.7,1.3-1.4,2-2
		c15.2-14.1,38.7-14.1,54,0c14.1,13,15,35,2,49c-0.6,0.7-1.3,1.4-2,2C60.6,71.1,50.9,74.9,40.9,74.8z M40.9,3.2
		C20.2,3.2,3.4,19.1,3.4,38.7s16.8,35.5,37.5,35.5s37.5-15.9,37.5-35.5S61.6,3.2,40.9,3.2z"/>
	<path id="Path_8098" class="st6" d="M40.9,1.2c21.9,0,39.7,16.8,39.7,37.5S62.8,76.2,40.9,76.2S1.3,59.4,1.3,38.7
		S19.1,1.2,40.9,1.2 M40.9,72.6c19.8,0,35.9-15.2,35.9-33.9S60.7,4.8,40.9,4.8S5.1,20,5.1,38.7S21.1,72.6,40.9,72.6 M40.9,0
		C18.4,0,0,17.4,0,38.7s18.4,38.7,40.9,38.7s41-17.4,41-38.7S63.5,0,40.9,0L40.9,0z M40.9,71.4c-19.1,0-34.6-14.7-34.6-32.7
		S21.9,6,40.9,6s34.6,14.7,34.6,32.7S60,71.4,40.9,71.4L40.9,71.4z"/>
	<text transform="matrix(1 0 0 1 36.4864 57.039)" class="st7 st8 st9">HA</text>
	<g>
		<g>
			<g>
				
					<linearGradient id="SVGID_1_" gradientUnits="userSpaceOnUse" x1="-1830.4667" y1="931.4543" x2="-1817.4579" y2="925.0792" gradientTransform="matrix(0.4824 -0.8759 -0.8759 -0.4824 1718.2949 -1130.3148)">
					<stop  offset="0" style="stop-color:#4E87DE"/>
					<stop  offset="0.314" style="stop-color:#4F8AD6"/>
					<stop  offset="0.9954" style="stop-color:#5290C7"/>
				</linearGradient>
				<path class="st10" d="M31.3,22.3c-0.8,1.5-2.2,2.6-3.8,3.1c-1.6,0.5-3.4,0.3-4.9-0.5C21.1,24,20,22.6,19.5,21s-0.3-3.3,0.6-4.8
					c0.8-1.5,2.2-2.6,3.8-3.1c1.6-0.5,3.4-0.3,4.9,0.5s2.6,2.2,3.1,3.9C32.3,19.1,32.1,20.8,31.3,22.3z"/>
				
					<radialGradient id="SVGID_2_" cx="-2516.1589" cy="-6547.4155" r="7.0994" gradientTransform="matrix(0.4645 -0.8433 -0.8433 -0.4645 -4328.1318 -5143.6709)" gradientUnits="userSpaceOnUse">
					<stop  offset="4.566210e-03" style="stop-color:#96C1FF"/>
					<stop  offset="0.3687" style="stop-color:#7CAEE9"/>
					<stop  offset="0.8584" style="stop-color:#5290C7"/>
					<stop  offset="1" style="stop-color:#87ABDE"/>
				</radialGradient>
				<path class="st11" d="M20.2,16.2c-1.7,3.1-0.6,7,2.4,8.6c3,1.7,6.9,0.5,8.6-2.6s0.6-7-2.4-8.6C25.7,12,21.9,13.1,20.2,16.2z"/>
				
					<radialGradient id="SVGID_3_" cx="-2517.9609" cy="-6545.2285" r="5.2358" gradientTransform="matrix(0.4645 -0.8433 -0.8433 -0.4645 -4328.1318 -5143.6709)" gradientUnits="userSpaceOnUse">
					<stop  offset="4.566210e-03" style="stop-color:#FFFFFF"/>
					<stop  offset="0.1879" style="stop-color:#E4EEF6"/>
					<stop  offset="0.5816" style="stop-color:#A0C2E0"/>
					<stop  offset="1" style="stop-color:#5290C7"/>
				</radialGradient>
				<path class="st12" d="M20.2,16.2c-1.7,3.1-0.6,7,2.4,8.6c3,1.7,6.9,0.5,8.6-2.6s0.6-7-2.4-8.6C25.7,12,21.9,13.1,20.2,16.2z"/>
				
					<radialGradient id="SVGID_4_" cx="-2517.9609" cy="-6545.2285" r="5.2358" gradientTransform="matrix(0.4645 -0.8433 -0.8433 -0.4645 -4328.1318 -5143.6709)" gradientUnits="userSpaceOnUse">
					<stop  offset="4.566210e-03" style="stop-color:#D1EEFC"/>
					<stop  offset="0.2465" style="stop-color:#B9D4ED"/>
					<stop  offset="0.7622" style="stop-color:#7D90C6"/>
					<stop  offset="1" style="stop-color:#5F6FB3"/>
				</radialGradient>
				<path class="st13" d="M20.2,16.2c-1.7,3.1-0.6,7,2.4,8.6c3,1.7,6.9,0.5,8.6-2.6s0.6-7-2.4-8.6C25.7,12,21.9,13.1,20.2,16.2z"/>
				
					<radialGradient id="SVGID_5_" cx="-2971.9226" cy="-9072.5225" r="10.0098" gradientTransform="matrix(0.3982 -0.7228 -0.7228 -0.3982 -5346.2324 -5742.5757)" gradientUnits="userSpaceOnUse">
					<stop  offset="4.566210e-03" style="stop-color:#C9C9C9"/>
					<stop  offset="0.2044" style="stop-color:#BBC7D7"/>
					<stop  offset="0.6662" style="stop-color:#A0C3F4"/>
					<stop  offset="0.9315" style="stop-color:#96C1FF"/>
					<stop  offset="1" style="stop-color:#5F6FB3"/>
				</radialGradient>
				<path class="st14" d="M20.1,16.4c-1.5,2.6-0.2,6.1,2.8,7.8s6.7,0.9,8.1-1.8c1.5-2.6,0.2-6.1-2.8-7.8
					C25.2,12.9,21.5,13.7,20.1,16.4z"/>
				
					<linearGradient id="SVGID_6_" gradientUnits="userSpaceOnUse" x1="-1833.7124" y1="928.0475" x2="-1825.7117" y2="928.0475" gradientTransform="matrix(0.4824 -0.8759 -0.8759 -0.4824 1718.2949 -1130.3148)">
					<stop  offset="0" style="stop-color:#2B3E8B"/>
					<stop  offset="1" style="stop-color:#FFFFFF"/>
				</linearGradient>
				<path class="st15" d="M20.6,16.4C20.5,16.5,20.5,16.5,20.6,16.4c1.4-2.5,4.8-3.3,7.6-1.7s4,4.9,2.5,7.5
					c-1.4,2.6-4.9,3.5-7.7,1.9c-2.4-1.3-3.6-4.1-3-6.4c-0.8,2.8,0.2,5.7,2.7,7.1c2.8,1.6,6.5,0.4,8.2-2.7c1.7-3,0.7-6.8-2.1-8.4
					C25.9,12.2,22.2,13.4,20.6,16.4z"/>
				
					<linearGradient id="SVGID_7_" gradientUnits="userSpaceOnUse" x1="-1829.6229" y1="924.7271" x2="-1818.6189" y2="924.7271" gradientTransform="matrix(0.4824 -0.8759 -0.8759 -0.4824 1718.2949 -1130.3148)">
					<stop  offset="0" style="stop-color:#FFFFFF"/>
					<stop  offset="1" style="stop-color:#2B3E8B"/>
				</linearGradient>
				<path class="st16" d="M29.6,21.2c-1.3,2.4-3.6,3.8-5.9,3.9c2.6,0.7,5.5-0.5,6.8-2.9c1.1-1.9,0.9-4.2-0.1-5.9
					C30.8,17.8,30.5,19.6,29.6,21.2z"/>
				
					<radialGradient id="SVGID_8_" cx="-2695.2922" cy="-7467.6885" r="5.1586" gradientTransform="matrix(0.4378 -0.7949 -0.7949 -0.4378 -4732.1055 -5393.7236)" gradientUnits="userSpaceOnUse">
					<stop  offset="4.566210e-03" style="stop-color:#FFFFFF"/>
					<stop  offset="0.1363" style="stop-color:#ECF4FF"/>
					<stop  offset="0.4962" style="stop-color:#BED8FF"/>
					<stop  offset="0.773" style="stop-color:#A1C7FF"/>
					<stop  offset="0.9315" style="stop-color:#96C1FF"/>
					<stop  offset="1" style="stop-color:#5F6FB3"/>
				</radialGradient>
				<path class="st17" d="M24.1,24c-2.5-1.4-3.5-4.5-2.2-7c1-1.9,3.1-2.8,5.2-2.5c-2.4-1-5.2-0.1-6.4,2.2c-1.3,2.4-0.4,5.6,2.2,7
					c0.6,0.3,1.2,0.5,1.9,0.6C24.5,24.2,24.3,24.1,24.1,24z"/>
				<path class="st1" d="M30.7,22L30.7,22c-1.3,2.3-4.6,2.9-7.4,1.4s-4-4.7-2.7-7.2c1.3-2.4,4.7-3.1,7.5-1.6
					c2.4,1.3,3.6,3.9,3.1,6.1c0.8-2.6-0.3-5.4-2.8-6.7c-2.8-1.6-6.4-0.5-7.9,2.3c-1.6,2.8-0.5,6.4,2.3,7.9
					C25.6,25.9,29.1,24.8,30.7,22z"/>
				
					<linearGradient id="SVGID_9_" gradientUnits="userSpaceOnUse" x1="-1829.4941" y1="931.3116" x2="-1823.11" y2="931.3116" gradientTransform="matrix(0.4824 -0.8759 -0.8759 -0.4824 1718.2949 -1130.3148)">
					<stop  offset="0" style="stop-color:#FFFFFF"/>
					<stop  offset="1" style="stop-color:#231F20"/>
				</linearGradient>
				<path class="st18" d="M22.6,21.1c0.2-0.3,0.4-0.6,0.6-0.8c-1.3-1.1-2-2.6-2.1-4.1c-0.2,0.3-0.5,0.6-0.6,0.9
					c-1.2,2.2-0.5,5.1,1.6,6.9C21.9,23,22.1,22,22.6,21.1z"/>
				
					<linearGradient id="SVGID_10_" gradientUnits="userSpaceOnUse" x1="-1825.1526" y1="924.3781" x2="-1817.8516" y2="924.3781" gradientTransform="matrix(0.4824 -0.8759 -0.8759 -0.4824 1718.2949 -1130.3148)">
					<stop  offset="0" style="stop-color:#FFFFFF"/>
					<stop  offset="1" style="stop-color:#231F20"/>
				</linearGradient>
				<path class="st19" d="M28.7,18c-0.2,0.3-0.5,0.6-0.8,0.9c1.3,1.3,2.1,2.9,2,4.6c0.3-0.3,0.6-0.6,0.8-0.9
					c1.7-2.4,1.1-5.5-1.1-7.6C29.6,16,29.3,17,28.7,18z"/>
				
					<linearGradient id="SVGID_11_" gradientUnits="userSpaceOnUse" x1="-1829.7639" y1="924.2369" x2="-1817.6194" y2="924.2369" gradientTransform="matrix(0.4824 -0.8759 -0.8759 -0.4824 1718.2949 -1130.3148)">
					<stop  offset="0" style="stop-color:#FFFFFF"/>
					<stop  offset="1" style="stop-color:#2B3E8B"/>
				</linearGradient>
				<path class="st20" d="M30.3,21.9c-1.3,2.4-3.8,3.7-6.3,3.5c2.7,0.7,5.6-0.5,7.1-3.1c1.4-2.5,0.9-5.6-1.1-7.5
					C31.4,16.8,31.6,19.6,30.3,21.9z"/>
				<path class="st1" d="M21.2,16.8c1.4-2.5,3.9-3.8,6.4-3.6c-2.7-0.7-5.8,0.5-7.2,3.1c-1.4,2.6-0.9,5.7,1.1,7.6
					C20.1,22,19.9,19.2,21.2,16.8z"/>
			</g>
		</g>
		<g>
			<g>
				<g>
					<g>
						<defs>
							<path id="SVGID_12_" d="M30.2,29.6c-0.4-1.7-0.7-2.9-2.3-4.2c0.3-0.6,0.8-0.9,1.4-0.9c0.7,1.5,1.4,2.9,2.3,4.2
								C31.3,29.3,30.8,29.6,30.2,29.6z"/>
						</defs>
						<clipPath id="SVGID_13_">
							<use xlink:href="#SVGID_12_"  style="overflow:visible;"/>
						</clipPath>
						<g class="st21">
							
								<image style="overflow:visible;enable-background:new    ;" width="5" height="7" xlink:href="33109A35B983CFDD.png"  transform="matrix(1 0 0 1 27 23.393)">
							</image>
						</g>
					</g>
				</g>
			</g>
			<g>
				
					<radialGradient id="SVGID_14_" cx="98.5562" cy="286.2679" r="1.6103" gradientTransform="matrix(0.604 1.0972 1.0972 -0.604 -343.8703 91.8025)" gradientUnits="userSpaceOnUse">
					<stop  offset="0" style="stop-color:#FFFFFF"/>
					<stop  offset="0.1647" style="stop-color:#F6F9FC"/>
					<stop  offset="0.4349" style="stop-color:#DDE9F6"/>
					<stop  offset="0.7752" style="stop-color:#B5CEEA"/>
					<stop  offset="1" style="stop-color:#97BAE2"/>
				</radialGradient>
				<path class="st22" d="M30.1,29.7L30.1,29.7c-0.3-1.5-0.8-3.1-2.3-4.2l0,0v-0.1c0.3-0.6,0.8-0.9,1.5-1l0,0l0,0
					c0.7,1.5,1.4,2.9,2.3,4.2l0,0l0,0C31.3,29.3,30.8,29.6,30.1,29.7L30.1,29.7z M28,25.3c1.4,1.1,2,2.7,2.3,4.2
					c0.5,0,1-0.3,1.3-0.8c-0.8-1.3-1.6-2.7-2.3-4.2C28.7,24.6,28.3,24.8,28,25.3z"/>
			</g>
			
				<linearGradient id="SVGID_15_" gradientUnits="userSpaceOnUse" x1="1989.3915" y1="1554.9213" x2="1995.611" y2="1554.9213" gradientTransform="matrix(0.4332 0.7244 1.6978 -1.0156 -3473.3721 162.8181)">
				<stop  offset="0" style="stop-color:#FFFFFF"/>
				<stop  offset="1" style="stop-color:#000000"/>
			</linearGradient>
			<path class="st23" d="M30.2,29.6c-0.3-1.3-0.4-2.7-2.3-4.2c0.3-0.6,0.8-0.9,1.4-0.9c0.7,1.5,1.4,2.9,2.3,4.2
				C31.3,29.3,30.8,29.6,30.2,29.6z"/>
		</g>
		<g>
			<g>
				<g>
					<g>
						<defs>
							<path id="SVGID_16_" d="M36.1,30.1c1.2-0.7,2.1-1.2,2.6-2.8c0.5,0.1,0.9,0.4,1.1,0.8c-0.9,1-1.8,1.9-2.6,2.9
								C36.7,30.9,36.3,30.6,36.1,30.1z"/>
						</defs>
						<clipPath id="SVGID_17_">
							<use xlink:href="#SVGID_16_"  style="overflow:visible;"/>
						</clipPath>
						<g class="st24">
							
								<image style="overflow:visible;enable-background:new    ;" width="4" height="5" xlink:href="33109A35B983CFE3.png"  transform="matrix(1 0 0 1 36 26.393)">
							</image>
						</g>
					</g>
				</g>
			</g>
			<g>
				
					<radialGradient id="SVGID_18_" cx="103.2061" cy="291.2" r="1.424" gradientTransform="matrix(0.604 1.0972 1.0972 -0.604 -343.8703 91.8025)" gradientUnits="userSpaceOnUse">
					<stop  offset="0" style="stop-color:#FFFFFF"/>
					<stop  offset="0.1647" style="stop-color:#F6F9FC"/>
					<stop  offset="0.4349" style="stop-color:#DDE9F6"/>
					<stop  offset="0.7752" style="stop-color:#B5CEEA"/>
					<stop  offset="1" style="stop-color:#97BAE2"/>
				</radialGradient>
				<path class="st25" d="M36.1,30.1L36.1,30.1c1.1-0.6,2.2-1.4,2.6-2.8l0,0l0,0c0.5,0.1,0.9,0.4,1.1,0.9l0,0l0,0
					C38.9,29.1,38,30,37.2,31l0,0l0,0C36.6,30.9,36.3,30.6,36.1,30.1L36.1,30.1z M38.8,27.4c-0.5,1.4-1.6,2.2-2.6,2.8
					c0.2,0.4,0.5,0.7,0.9,0.8c0.8-1,1.7-1.9,2.6-2.8C39.6,27.7,39.3,27.5,38.8,27.4z"/>
			</g>
			
				<linearGradient id="SVGID_19_" gradientUnits="userSpaceOnUse" x1="844.0525" y1="2247.2986" x2="849.0612" y2="2247.2986" gradientTransform="matrix(-0.549 0.6411 1.5027 1.2867 -2874.301 -3405.2322)">
				<stop  offset="0" style="stop-color:#FFFFFF"/>
				<stop  offset="1" style="stop-color:#000000"/>
			</linearGradient>
			<path class="st26" d="M36.1,30.1c0.9-0.6,2-1,2.6-2.8c0.5,0.1,0.9,0.4,1.1,0.8c-0.9,1-1.8,1.9-2.6,2.9
				C36.7,30.9,36.3,30.6,36.1,30.1z"/>
		</g>
		<g>
			<g>
				<g>
					<g>
						<defs>
							<path id="SVGID_20_" d="M44.5,35.1c-1.7-0.5-2.8-0.9-4.8-0.1c-0.3-0.6-0.4-1.1-0.1-1.7c1.6,0.1,3.2,0.2,4.8,0.1
								C44.7,34,44.8,34.5,44.5,35.1z"/>
						</defs>
						<clipPath id="SVGID_21_">
							<use xlink:href="#SVGID_20_"  style="overflow:visible;"/>
						</clipPath>
						<g class="st27">
							
								<image style="overflow:visible;enable-background:new    ;" width="6" height="3" xlink:href="33109A35B983CFE5.png"  transform="matrix(1 0 0 1 39 32.393)">
							</image>
						</g>
					</g>
				</g>
			</g>
			<g>
				
					<radialGradient id="SVGID_22_" cx="108.3335" cy="292.1057" r="1.818" gradientTransform="matrix(0.604 1.0972 1.0972 -0.604 -343.8703 91.8025)" gradientUnits="userSpaceOnUse">
					<stop  offset="0" style="stop-color:#FFFFFF"/>
					<stop  offset="0.1647" style="stop-color:#F6F9FC"/>
					<stop  offset="0.4349" style="stop-color:#DDE9F6"/>
					<stop  offset="0.7752" style="stop-color:#B5CEEA"/>
					<stop  offset="1" style="stop-color:#97BAE2"/>
				</radialGradient>
				<path class="st28" d="M44.5,35.2L44.5,35.2c-1.5-0.5-3.1-0.8-4.8-0.1l0,0V35c-0.4-0.6-0.4-1.2-0.1-1.8l0,0l0,0
					c1.6,0.1,3.2,0.2,4.8,0.1l0,0l0,0C44.8,34,44.8,34.6,44.5,35.2L44.5,35.2z M39.7,34.9c1.7-0.7,3.3-0.4,4.7,0.1
					c0.2-0.5,0.2-1-0.1-1.5c-1.6,0.1-3.1,0.1-4.7-0.1C39.4,33.9,39.5,34.4,39.7,34.9z"/>
			</g>
			
				<linearGradient id="SVGID_23_" gradientUnits="userSpaceOnUse" x1="1151.6489" y1="1006.8989" x2="1157.838" y2="1006.8989" gradientTransform="matrix(0.8437 -2.167789e-02 -5.086404e-02 -1.9777 -881.0262 2050.5771)">
				<stop  offset="0" style="stop-color:#FFFFFF"/>
				<stop  offset="1" style="stop-color:#000000"/>
			</linearGradient>
			<path class="st29" d="M44.5,35.1c-1.3-0.4-2.5-1-4.8-0.1c-0.3-0.6-0.4-1.1-0.1-1.7c1.6,0.1,3.2,0.2,4.8,0.1
				C44.7,34,44.8,34.5,44.5,35.1z"/>
		</g>
		<g>
			<g>
				
					<linearGradient id="SVGID_24_" gradientUnits="userSpaceOnUse" x1="-1839.2502" y1="916.8705" x2="-1826.9071" y2="910.8217" gradientTransform="matrix(0.4824 -0.8759 -0.8759 -0.4824 1718.2949 -1130.3148)">
					<stop  offset="0" style="stop-color:#4E87DE"/>
					<stop  offset="0.314" style="stop-color:#4F8AD6"/>
					<stop  offset="0.9954" style="stop-color:#5290C7"/>
				</linearGradient>
				<path class="st30" d="M39.2,37.2c-0.8,1.4-2.1,2.4-3.6,2.9c-1.6,0.5-3.2,0.3-4.7-0.5c-1.4-0.8-2.5-2.1-2.9-3.7
					c-0.4-1.5-0.2-3.2,0.5-4.6c0.8-1.4,2.1-2.4,3.6-2.9c1.6-0.5,3.2-0.3,4.7,0.5c1.4,0.8,2.5,2.1,2.9,3.7
					C40.2,34.1,40,35.7,39.2,37.2z"/>
				
					<radialGradient id="SVGID_25_" cx="-2525.6306" cy="-6562.4448" r="6.7361" gradientTransform="matrix(0.4645 -0.8433 -0.8433 -0.4645 -4328.1318 -5143.6709)" gradientUnits="userSpaceOnUse">
					<stop  offset="4.566210e-03" style="stop-color:#96C1FF"/>
					<stop  offset="0.3687" style="stop-color:#7CAEE9"/>
					<stop  offset="0.8584" style="stop-color:#5290C7"/>
					<stop  offset="1" style="stop-color:#87ABDE"/>
				</radialGradient>
				<path class="st31" d="M28.7,31.3c-1.6,2.9-0.6,6.6,2.3,8.2c2.9,1.6,6.5,0.5,8.2-2.4s0.6-6.6-2.3-8.2
					C33.9,27.3,30.3,28.4,28.7,31.3z"/>
				
					<radialGradient id="SVGID_26_" cx="-2527.3403" cy="-6560.3701" r="4.9679" gradientTransform="matrix(0.4645 -0.8433 -0.8433 -0.4645 -4328.1318 -5143.6709)" gradientUnits="userSpaceOnUse">
					<stop  offset="4.566210e-03" style="stop-color:#FFFFFF"/>
					<stop  offset="0.1879" style="stop-color:#E4EEF6"/>
					<stop  offset="0.5816" style="stop-color:#A0C2E0"/>
					<stop  offset="1" style="stop-color:#5290C7"/>
				</radialGradient>
				<path class="st32" d="M28.7,31.3c-1.6,2.9-0.6,6.6,2.3,8.2c2.9,1.6,6.5,0.5,8.2-2.4s0.6-6.6-2.3-8.2
					C33.9,27.3,30.3,28.4,28.7,31.3z"/>
				
					<radialGradient id="SVGID_27_" cx="-2527.3403" cy="-6560.3701" r="4.9679" gradientTransform="matrix(0.4645 -0.8433 -0.8433 -0.4645 -4328.1318 -5143.6709)" gradientUnits="userSpaceOnUse">
					<stop  offset="4.566210e-03" style="stop-color:#D1EEFC"/>
					<stop  offset="0.2465" style="stop-color:#B9D4ED"/>
					<stop  offset="0.7622" style="stop-color:#7D90C6"/>
					<stop  offset="1" style="stop-color:#5F6FB3"/>
				</radialGradient>
				<path class="st33" d="M28.7,31.3c-1.6,2.9-0.6,6.6,2.3,8.2c2.9,1.6,6.5,0.5,8.2-2.4s0.6-6.6-2.3-8.2
					C33.9,27.3,30.3,28.4,28.7,31.3z"/>
				
					<radialGradient id="SVGID_28_" cx="-2983.147" cy="-9089.9131" r="9.4976" gradientTransform="matrix(0.3982 -0.7228 -0.7228 -0.3982 -5346.2324 -5742.5757)" gradientUnits="userSpaceOnUse">
					<stop  offset="4.566210e-03" style="stop-color:#C9C9C9"/>
					<stop  offset="0.2044" style="stop-color:#BBC7D7"/>
					<stop  offset="0.6662" style="stop-color:#A0C3F4"/>
					<stop  offset="0.9315" style="stop-color:#96C1FF"/>
					<stop  offset="1" style="stop-color:#5F6FB3"/>
				</radialGradient>
				<path class="st34" d="M28.6,31.5c-1.4,2.5-0.2,5.8,2.7,7.4c2.9,1.6,6.3,0.8,7.7-1.7c1.4-2.5,0.2-5.8-2.7-7.4
					C33.4,28.2,30,29,28.6,31.5z"/>
				
					<linearGradient id="SVGID_29_" gradientUnits="userSpaceOnUse" x1="-1842.3422" y1="913.5541" x2="-1834.7509" y2="913.5541" gradientTransform="matrix(0.4824 -0.8759 -0.8759 -0.4824 1718.2949 -1130.3148)">
					<stop  offset="0" style="stop-color:#2B3E8B"/>
					<stop  offset="1" style="stop-color:#FFFFFF"/>
				</linearGradient>
				<path class="st35" d="M29.1,31.6C29,31.6,29,31.6,29.1,31.6c1.3-2.3,4.6-3.1,7.2-1.6c2.7,1.5,3.8,4.7,2.4,7.2
					c-1.4,2.5-4.6,3.3-7.3,1.8c-2.3-1.3-3.4-3.8-2.8-6.1c-0.8,2.6,0.2,5.4,2.5,6.7c2.7,1.5,6.2,0.3,7.8-2.5c1.6-2.9,0.7-6.4-2-7.9
					C34.1,27.5,30.7,28.7,29.1,31.6z"/>
				
					<linearGradient id="SVGID_30_" gradientUnits="userSpaceOnUse" x1="-1838.462" y1="910.4724" x2="-1828.0162" y2="910.4724" gradientTransform="matrix(0.4824 -0.8759 -0.8759 -0.4824 1718.2949 -1130.3148)">
					<stop  offset="0" style="stop-color:#FFFFFF"/>
					<stop  offset="1" style="stop-color:#2B3E8B"/>
				</linearGradient>
				<path class="st36" d="M37.6,36.1c-1.2,2.2-3.4,3.6-5.6,3.7c2.5,0.6,5.2-0.4,6.5-2.8c1-1.8,0.9-3.9-0.1-5.6
					C38.7,32.9,38.5,34.6,37.6,36.1z"/>
				
					<radialGradient id="SVGID_31_" cx="-2705.3608" cy="-7483.7183" r="4.8963" gradientTransform="matrix(0.4378 -0.7949 -0.7949 -0.4378 -4732.1055 -5393.7236)" gradientUnits="userSpaceOnUse">
					<stop  offset="4.566210e-03" style="stop-color:#FFFFFF"/>
					<stop  offset="0.1363" style="stop-color:#ECF4FF"/>
					<stop  offset="0.4962" style="stop-color:#BED8FF"/>
					<stop  offset="0.773" style="stop-color:#A1C7FF"/>
					<stop  offset="0.9315" style="stop-color:#96C1FF"/>
					<stop  offset="1" style="stop-color:#5F6FB3"/>
				</radialGradient>
				<path class="st37" d="M32.4,38.7c-2.4-1.3-3.3-4.3-2.1-6.6c1-1.8,3-2.7,4.9-2.4c-2.3-0.9-4.9-0.1-6.1,2.1
					c-1.3,2.3-0.4,5.3,2.1,6.6c0.6,0.3,1.2,0.5,1.8,0.6C32.8,38.9,32.6,38.8,32.4,38.7z"/>
				<path class="st1" d="M38.6,36.9C38.7,36.8,38.7,36.8,38.6,36.9c-1.2,2.2-4.4,2.8-7,1.3c-2.7-1.5-3.8-4.5-2.5-6.8s4.4-3,7.1-1.5
					c2.3,1.3,3.5,3.7,2.9,5.8c0.7-2.4-0.3-5.1-2.6-6.4c-2.7-1.5-6-0.5-7.5,2.2s-0.5,6,2.2,7.5C33.8,40.5,37.2,39.5,38.6,36.9z"/>
				
					<linearGradient id="SVGID_32_" gradientUnits="userSpaceOnUse" x1="-1838.3451" y1="916.8256" x2="-1832.2877" y2="916.8256" gradientTransform="matrix(0.4824 -0.8759 -0.8759 -0.4824 1718.2949 -1130.3148)">
					<stop  offset="0" style="stop-color:#FFFFFF"/>
					<stop  offset="1" style="stop-color:#231F20"/>
				</linearGradient>
				<path class="st38" d="M30.9,36c0.2-0.3,0.3-0.6,0.6-0.8c-1.2-1.1-1.9-2.5-2-3.9c-0.2,0.3-0.4,0.5-0.6,0.8
					c-1.2,2.1-0.5,4.8,1.5,6.6C30.3,37.8,30.5,36.9,30.9,36z"/>
				
					<linearGradient id="SVGID_33_" gradientUnits="userSpaceOnUse" x1="-1834.2205" y1="910.1843" x2="-1827.2866" y2="910.1843" gradientTransform="matrix(0.4824 -0.8759 -0.8759 -0.4824 1718.2949 -1130.3148)">
					<stop  offset="0" style="stop-color:#FFFFFF"/>
					<stop  offset="1" style="stop-color:#231F20"/>
				</linearGradient>
				<path class="st39" d="M36.7,33c-0.2,0.3-0.5,0.6-0.7,0.8c1.3,1.2,1.9,2.8,1.9,4.3c0.3-0.3,0.6-0.6,0.8-0.9
					c1.6-2.2,1.1-5.2-1-7.2C37.7,31.1,37.4,32.1,36.7,33z"/>
				
					<linearGradient id="SVGID_34_" gradientUnits="userSpaceOnUse" x1="-1838.5958" y1="910.0014" x2="-1827.0726" y2="910.0014" gradientTransform="matrix(0.4824 -0.8759 -0.8759 -0.4824 1718.2949 -1130.3148)">
					<stop  offset="0" style="stop-color:#FFFFFF"/>
					<stop  offset="1" style="stop-color:#2B3E8B"/>
				</linearGradient>
				<path class="st40" d="M38.3,36.8c-1.3,2.3-3.6,3.5-6,3.3c2.6,0.7,5.4-0.5,6.7-2.9s0.8-5.3-1-7.1C39.4,31.9,39.6,34.5,38.3,36.8z
					"/>
				<path class="st1" d="M29.7,31.9c1.3-2.3,3.7-3.6,6.1-3.4c-2.6-0.7-5.5,0.5-6.8,3c-1.3,2.4-0.8,5.4,1,7.2
					C28.6,36.9,28.4,34.2,29.7,31.9z"/>
			</g>
		</g>
		<g>
			<g>
				<g>
					<g>
						<defs>
							<path id="SVGID_35_" d="M31.5,39.5c-1.1,1-1.9,1.7-2.1,3.4c-0.6,0-1-0.2-1.2-0.7c0.8-1.1,1.5-2.2,2.1-3.4
								C30.8,38.8,31.2,39.1,31.5,39.5z"/>
						</defs>
						<clipPath id="SVGID_36_">
							<use xlink:href="#SVGID_35_"  style="overflow:visible;"/>
						</clipPath>
						<g class="st41">
							
								<image style="overflow:visible;enable-background:new    ;" width="5" height="5" xlink:href="33109A35B983CFE7.png"  transform="matrix(1 0 0 1 27 38.393)">
							</image>
						</g>
					</g>
				</g>
			</g>
			<g>
				
					<radialGradient id="SVGID_37_" cx="108.2563" cy="280.9554" r="1.5582" gradientTransform="matrix(0.604 1.0972 1.0972 -0.604 -343.8703 91.8025)" gradientUnits="userSpaceOnUse">
					<stop  offset="0" style="stop-color:#FFFFFF"/>
					<stop  offset="0.1647" style="stop-color:#F6F9FC"/>
					<stop  offset="0.4349" style="stop-color:#DDE9F6"/>
					<stop  offset="0.7752" style="stop-color:#B5CEEA"/>
					<stop  offset="1" style="stop-color:#97BAE2"/>
				</radialGradient>
				<path class="st42" d="M31.6,39.5L31.6,39.5c-1,0.9-2,1.9-2.2,3.4l0,0h-0.1c-0.6,0-1-0.2-1.3-0.7l0,0l0,0
					c0.8-1.1,1.5-2.2,2.1-3.4l0,0l0,0C30.8,38.8,31.2,39,31.6,39.5L31.6,39.5z M29.3,42.9c0.2-1.5,1.2-2.6,2.1-3.4
					c-0.3-0.4-0.6-0.6-1.1-0.6c-0.6,1.2-1.3,2.3-2.1,3.4C28.4,42.7,28.8,42.8,29.3,42.9z"/>
			</g>
			
				<linearGradient id="SVGID_38_" gradientUnits="userSpaceOnUse" x1="-590.7643" y1="784.9346" x2="-585.5307" y2="784.9346" gradientTransform="matrix(0.4188 -0.7328 -1.7176 -0.9817 1624.3533 380.4549)">
				<stop  offset="0" style="stop-color:#FFFFFF"/>
				<stop  offset="1" style="stop-color:#000000"/>
			</linearGradient>
			<path class="st43" d="M31.5,39.5c-0.8,0.8-1.8,1.4-2.1,3.4c-0.6,0-1-0.2-1.2-0.7c0.8-1.1,1.5-2.2,2.1-3.4
				C30.8,38.8,31.2,39.1,31.5,39.5z"/>
		</g>
		<g>
			<g>
				
					<linearGradient id="SVGID_39_" gradientUnits="userSpaceOnUse" x1="-1854.9105" y1="917.2572" x2="-1842.6001" y2="911.2244" gradientTransform="matrix(0.4824 -0.8759 -0.8759 -0.4824 1718.2949 -1130.3148)">
					<stop  offset="0" style="stop-color:#4E87DE"/>
					<stop  offset="0.314" style="stop-color:#4F8AD6"/>
					<stop  offset="0.9954" style="stop-color:#5290C7"/>
				</linearGradient>
				<path class="st44" d="M31.3,50.7c-0.8,1.4-2.1,2.4-3.6,2.9c-1.6,0.5-3.2,0.3-4.6-0.5s-2.5-2.1-2.9-3.7c-0.4-1.5-0.2-3.2,0.5-4.6
					c0.8-1.4,2.1-2.4,3.6-2.9c1.6-0.5,3.2-0.3,4.6,0.5s2.5,2.1,2.9,3.7C32.3,47.6,32.1,49.3,31.3,50.7z"/>
				
					<radialGradient id="SVGID_40_" cx="-2541.8982" cy="-6562.0083" r="6.7182" gradientTransform="matrix(0.4645 -0.8433 -0.8433 -0.4645 -4328.1318 -5143.6709)" gradientUnits="userSpaceOnUse">
					<stop  offset="4.566210e-03" style="stop-color:#96C1FF"/>
					<stop  offset="0.3687" style="stop-color:#7CAEE9"/>
					<stop  offset="0.8584" style="stop-color:#5290C7"/>
					<stop  offset="1" style="stop-color:#87ABDE"/>
				</radialGradient>
				<path class="st45" d="M20.8,44.9c-1.6,2.9-0.6,6.6,2.3,8.2c2.9,1.6,6.5,0.5,8.1-2.4s0.6-6.6-2.3-8.2
					C26,40.9,22.4,41.9,20.8,44.9z"/>
				
					<radialGradient id="SVGID_41_" cx="-2543.6035" cy="-6559.939" r="4.9547" gradientTransform="matrix(0.4645 -0.8433 -0.8433 -0.4645 -4328.1318 -5143.6709)" gradientUnits="userSpaceOnUse">
					<stop  offset="4.566210e-03" style="stop-color:#FFFFFF"/>
					<stop  offset="0.1879" style="stop-color:#E4EEF6"/>
					<stop  offset="0.5816" style="stop-color:#A0C2E0"/>
					<stop  offset="1" style="stop-color:#5290C7"/>
				</radialGradient>
				<path class="st46" d="M20.8,44.9c-1.6,2.9-0.6,6.6,2.3,8.2c2.9,1.6,6.5,0.5,8.1-2.4s0.6-6.6-2.3-8.2
					C26,40.9,22.4,41.9,20.8,44.9z"/>
				
					<radialGradient id="SVGID_42_" cx="-2543.6035" cy="-6559.939" r="4.9547" gradientTransform="matrix(0.4645 -0.8433 -0.8433 -0.4645 -4328.1318 -5143.6709)" gradientUnits="userSpaceOnUse">
					<stop  offset="4.566210e-03" style="stop-color:#D1EEFC"/>
					<stop  offset="0.2465" style="stop-color:#B9D4ED"/>
					<stop  offset="0.7622" style="stop-color:#7D90C6"/>
					<stop  offset="1" style="stop-color:#5F6FB3"/>
				</radialGradient>
				<path class="st47" d="M20.8,44.9c-1.6,2.9-0.6,6.6,2.3,8.2c2.9,1.6,6.5,0.5,8.1-2.4s0.6-6.6-2.3-8.2
					C26,40.9,22.4,41.9,20.8,44.9z"/>
				
					<radialGradient id="SVGID_43_" cx="-3002.1348" cy="-9089.3984" r="9.4724" gradientTransform="matrix(0.3982 -0.7228 -0.7228 -0.3982 -5346.2324 -5742.5757)" gradientUnits="userSpaceOnUse">
					<stop  offset="4.566210e-03" style="stop-color:#C9C9C9"/>
					<stop  offset="0.2044" style="stop-color:#BBC7D7"/>
					<stop  offset="0.6662" style="stop-color:#A0C3F4"/>
					<stop  offset="0.9315" style="stop-color:#96C1FF"/>
					<stop  offset="1" style="stop-color:#5F6FB3"/>
				</radialGradient>
				<path class="st48" d="M20.7,45c-1.4,2.5-0.2,5.8,2.7,7.4c2.9,1.6,6.3,0.8,7.7-1.7s0.2-5.8-2.7-7.4C25.5,41.8,22,42.5,20.7,45z"
					/>
				
					<linearGradient id="SVGID_44_" gradientUnits="userSpaceOnUse" x1="-1857.981" y1="914.0403" x2="-1850.4098" y2="914.0403" gradientTransform="matrix(0.4824 -0.8759 -0.8759 -0.4824 1718.2949 -1130.3148)">
					<stop  offset="0" style="stop-color:#2B3E8B"/>
					<stop  offset="1" style="stop-color:#FFFFFF"/>
				</linearGradient>
				<path class="st49" d="M21.1,45.1L21.1,45.1c1.3-2.3,4.6-3.1,7.2-1.6c2.7,1.5,3.7,4.7,2.4,7.1c-1.4,2.5-4.6,3.3-7.3,1.8
					c-2.3-1.3-3.4-3.8-2.8-6.1c-0.8,2.6,0.2,5.4,2.5,6.7c2.7,1.5,6.2,0.3,7.8-2.5c1.6-2.9,0.7-6.4-2-7.9
					C26.2,41.1,22.7,42.2,21.1,45.1z"/>
				
					<linearGradient id="SVGID_45_" gradientUnits="userSpaceOnUse" x1="-1854.1111" y1="910.8796" x2="-1843.6978" y2="910.8796" gradientTransform="matrix(0.4824 -0.8759 -0.8759 -0.4824 1718.2949 -1130.3148)">
					<stop  offset="0" style="stop-color:#FFFFFF"/>
					<stop  offset="1" style="stop-color:#2B3E8B"/>
				</linearGradient>
				<path class="st50" d="M29.7,49.6c-1.2,2.2-3.4,3.6-5.6,3.7c2.5,0.6,5.2-0.4,6.5-2.8c1-1.8,0.9-3.9-0.1-5.6
					C30.8,46.4,30.5,48.1,29.7,49.6z"/>
				
					<radialGradient id="SVGID_46_" cx="-2722.6208" cy="-7483.2568" r="4.8816" gradientTransform="matrix(0.4378 -0.7949 -0.7949 -0.4378 -4732.1055 -5393.7236)" gradientUnits="userSpaceOnUse">
					<stop  offset="4.566210e-03" style="stop-color:#FFFFFF"/>
					<stop  offset="0.1363" style="stop-color:#ECF4FF"/>
					<stop  offset="0.4962" style="stop-color:#BED8FF"/>
					<stop  offset="0.773" style="stop-color:#A1C7FF"/>
					<stop  offset="0.9315" style="stop-color:#96C1FF"/>
					<stop  offset="1" style="stop-color:#5F6FB3"/>
				</radialGradient>
				<path class="st51" d="M24.4,52.2c-2.4-1.3-3.3-4.3-2.1-6.6c1-1.8,2.9-2.7,4.9-2.4c-2.3-0.9-4.9-0.1-6.1,2.1
					c-1.3,2.3-0.4,5.3,2.1,6.6c0.6,0.3,1.2,0.5,1.8,0.6C24.8,52.4,24.6,52.3,24.4,52.2z"/>
				<path class="st1" d="M30.7,50.4C30.7,50.3,30.7,50.3,30.7,50.4c-1.2,2.1-4.4,2.8-7,1.3s-3.8-4.5-2.5-6.8s4.4-3,7.1-1.5
					c2.3,1.3,3.4,3.7,2.9,5.8c0.7-2.4-0.3-5.1-2.6-6.4c-2.7-1.5-6-0.5-7.5,2.2s-0.5,6,2.2,7.5S29.2,53,30.7,50.4z"/>
				
					<linearGradient id="SVGID_47_" gradientUnits="userSpaceOnUse" x1="-1853.9891" y1="917.2569" x2="-1847.9479" y2="917.2569" gradientTransform="matrix(0.4824 -0.8759 -0.8759 -0.4824 1718.2949 -1130.3148)">
					<stop  offset="0" style="stop-color:#FFFFFF"/>
					<stop  offset="1" style="stop-color:#231F20"/>
				</linearGradient>
				<path class="st52" d="M23,49.5c0.2-0.3,0.3-0.6,0.6-0.8c-1.2-1.1-1.9-2.5-2-3.9c-0.2,0.3-0.4,0.5-0.6,0.8
					c-1.2,2.1-0.5,4.8,1.5,6.5C22.4,51.3,22.6,50.4,23,49.5z"/>
				
					<linearGradient id="SVGID_48_" gradientUnits="userSpaceOnUse" x1="-1849.8807" y1="910.5915" x2="-1842.9653" y2="910.5915" gradientTransform="matrix(0.4824 -0.8759 -0.8759 -0.4824 1718.2949 -1130.3148)">
					<stop  offset="0" style="stop-color:#FFFFFF"/>
					<stop  offset="1" style="stop-color:#231F20"/>
				</linearGradient>
				<path class="st53" d="M28.8,46.5c-0.2,0.3-0.5,0.6-0.7,0.8c1.3,1.2,1.9,2.8,1.9,4.3c0.3-0.3,0.6-0.6,0.8-0.9
					c1.6-2.2,1.1-5.2-1-7.2C29.7,44.6,29.4,45.6,28.8,46.5z"/>
				
					<linearGradient id="SVGID_49_" gradientUnits="userSpaceOnUse" x1="-1854.2435" y1="910.3211" x2="-1842.7511" y2="910.3211" gradientTransform="matrix(0.4824 -0.8759 -0.8759 -0.4824 1718.2949 -1130.3148)">
					<stop  offset="0" style="stop-color:#FFFFFF"/>
					<stop  offset="1" style="stop-color:#2B3E8B"/>
				</linearGradient>
				<path class="st54" d="M30.4,50.3c-1.3,2.3-3.6,3.5-5.9,3.3c2.5,0.7,5.3-0.5,6.7-2.9c1.3-2.4,0.8-5.3-1-7.1
					C31.4,45.5,31.6,48,30.4,50.3z"/>
				<path class="st1" d="M21.8,45.5c1.3-2.3,3.7-3.6,6-3.4c-2.6-0.7-5.4,0.5-6.8,2.9c-1.3,2.4-0.8,5.4,1,7.2
					C20.7,50.4,20.5,47.7,21.8,45.5z"/>
			</g>
		</g>
		<g>
			<g>
				
					<linearGradient id="SVGID_50_" gradientUnits="userSpaceOnUse" x1="-1826.2369" y1="914.0252" x2="-1816.7751" y2="909.3884" gradientTransform="matrix(0.4824 -0.8759 -0.8759 -0.4824 1718.2949 -1130.3148)">
					<stop  offset="0" style="stop-color:#4E87DE"/>
					<stop  offset="0.314" style="stop-color:#4F8AD6"/>
					<stop  offset="0.9954" style="stop-color:#5290C7"/>
				</linearGradient>
				<path class="st55" d="M45.4,27.4c-0.6,1.1-1.6,1.9-2.8,2.2c-1.2,0.4-2.5,0.2-3.6-0.4s-1.9-1.6-2.2-2.8c-0.3-1.2-0.2-2.4,0.4-3.5
					c0.6-1.1,1.6-1.9,2.8-2.2c1.2-0.4,2.5-0.2,3.6,0.4s1.9,1.6,2.2,2.8C46.1,25.1,46,26.4,45.4,27.4z"/>
				
					<radialGradient id="SVGID_51_" cx="-2513.5771" cy="-6564.7881" r="5.1637" gradientTransform="matrix(0.4645 -0.8433 -0.8433 -0.4645 -4328.1318 -5143.6709)" gradientUnits="userSpaceOnUse">
					<stop  offset="4.566210e-03" style="stop-color:#96C1FF"/>
					<stop  offset="0.3687" style="stop-color:#7CAEE9"/>
					<stop  offset="0.8584" style="stop-color:#5290C7"/>
					<stop  offset="1" style="stop-color:#87ABDE"/>
				</radialGradient>
				<path class="st56" d="M37.3,23c-1.2,2.2-0.4,5.1,1.8,6.3c2.2,1.2,5,0.4,6.3-1.9c1.2-2.2,0.4-5.1-1.8-6.3
					C41.3,19.9,38.5,20.7,37.3,23z"/>
				
					<radialGradient id="SVGID_52_" cx="-2514.8879" cy="-6563.1973" r="3.8082" gradientTransform="matrix(0.4645 -0.8433 -0.8433 -0.4645 -4328.1318 -5143.6709)" gradientUnits="userSpaceOnUse">
					<stop  offset="4.566210e-03" style="stop-color:#FFFFFF"/>
					<stop  offset="0.1879" style="stop-color:#E4EEF6"/>
					<stop  offset="0.5816" style="stop-color:#A0C2E0"/>
					<stop  offset="1" style="stop-color:#5290C7"/>
				</radialGradient>
				<path class="st57" d="M37.3,23c-1.2,2.2-0.4,5.1,1.8,6.3c2.2,1.2,5,0.4,6.3-1.9c1.2-2.2,0.4-5.1-1.8-6.3
					C41.3,19.9,38.5,20.7,37.3,23z"/>
				
					<radialGradient id="SVGID_53_" cx="-2514.8879" cy="-6563.1973" r="3.8082" gradientTransform="matrix(0.4645 -0.8433 -0.8433 -0.4645 -4328.1318 -5143.6709)" gradientUnits="userSpaceOnUse">
					<stop  offset="4.566210e-03" style="stop-color:#D1EEFC"/>
					<stop  offset="0.2465" style="stop-color:#B9D4ED"/>
					<stop  offset="0.7622" style="stop-color:#7D90C6"/>
					<stop  offset="1" style="stop-color:#5F6FB3"/>
				</radialGradient>
				<path class="st58" d="M37.3,23c-1.2,2.2-0.4,5.1,1.8,6.3c2.2,1.2,5,0.4,6.3-1.9c1.2-2.2,0.4-5.1-1.8-6.3
					C41.3,19.9,38.5,20.7,37.3,23z"/>
				
					<radialGradient id="SVGID_54_" cx="-2969.8433" cy="-9092.0195" r="7.2806" gradientTransform="matrix(0.3982 -0.7228 -0.7228 -0.3982 -5346.2324 -5742.5757)" gradientUnits="userSpaceOnUse">
					<stop  offset="4.566210e-03" style="stop-color:#C9C9C9"/>
					<stop  offset="0.2044" style="stop-color:#BBC7D7"/>
					<stop  offset="0.6662" style="stop-color:#A0C3F4"/>
					<stop  offset="0.9315" style="stop-color:#96C1FF"/>
					<stop  offset="1" style="stop-color:#5F6FB3"/>
				</radialGradient>
				<path class="st59" d="M37.2,23.1c-1.1,1.9-0.1,4.5,2.1,5.7c2.2,1.2,4.8,0.6,5.9-1.3c1.1-1.9,0.1-4.5-2.1-5.7
					C40.9,20.6,38.3,21.2,37.2,23.1z"/>
				
					<linearGradient id="SVGID_55_" gradientUnits="userSpaceOnUse" x1="-1828.6152" y1="911.4973" x2="-1822.796" y2="911.4973" gradientTransform="matrix(0.4824 -0.8759 -0.8759 -0.4824 1718.2949 -1130.3148)">
					<stop  offset="0" style="stop-color:#2B3E8B"/>
					<stop  offset="1" style="stop-color:#FFFFFF"/>
				</linearGradient>
				<path class="st60" d="M37.6,23.1C37.6,23.2,37.6,23.2,37.6,23.1c1-1.8,3.5-2.4,5.6-1.3s2.9,3.6,1.8,5.5c-1,1.9-3.6,2.5-5.6,1.4
					c-1.8-1-2.6-2.9-2.2-4.7c-0.6,2,0.1,4.2,1.9,5.2c2.1,1.1,4.7,0.3,6-1.9c1.2-2.2,0.5-4.9-1.5-6.1C41.5,20.1,38.8,20.9,37.6,23.1z
					"/>
				
					<linearGradient id="SVGID_56_" gradientUnits="userSpaceOnUse" x1="-1825.6407" y1="909.0575" x2="-1817.6371" y2="909.0575" gradientTransform="matrix(0.4824 -0.8759 -0.8759 -0.4824 1718.2949 -1130.3148)">
					<stop  offset="0" style="stop-color:#FFFFFF"/>
					<stop  offset="1" style="stop-color:#2B3E8B"/>
				</linearGradient>
				<path class="st61" d="M44.2,26.6c-0.9,1.7-2.6,2.7-4.3,2.8c1.9,0.5,4-0.3,5-2.1c0.8-1.4,0.7-3-0.1-4.3
					C45,24.2,44.8,25.5,44.2,26.6z"/>
				
					<radialGradient id="SVGID_57_" cx="-2692.6628" cy="-7486.5439" r="3.7496" gradientTransform="matrix(0.4378 -0.7949 -0.7949 -0.4378 -4732.1055 -5393.7236)" gradientUnits="userSpaceOnUse">
					<stop  offset="4.566210e-03" style="stop-color:#FFFFFF"/>
					<stop  offset="0.1363" style="stop-color:#ECF4FF"/>
					<stop  offset="0.4962" style="stop-color:#BED8FF"/>
					<stop  offset="0.773" style="stop-color:#A1C7FF"/>
					<stop  offset="0.9315" style="stop-color:#96C1FF"/>
					<stop  offset="1" style="stop-color:#5F6FB3"/>
				</radialGradient>
				<path class="st62" d="M40.1,28.6c-1.9-1-2.6-3.3-1.6-5.1c0.7-1.4,2.3-2,3.8-1.8c-1.8-0.7-3.8-0.1-4.7,1.6c-1,1.8-0.3,4,1.6,5.1
					c0.4,0.2,0.9,0.4,1.4,0.5C40.4,28.8,40.3,28.7,40.1,28.6z"/>
				<path class="st1" d="M44.9,27.2L44.9,27.2c-1,1.7-3.4,2.1-5.4,1s-2.9-3.5-1.9-5.2c1-1.8,3.4-2.3,5.4-1.1c1.8,1,2.6,2.8,2.2,4.5
					c0.5-1.9-0.3-3.9-2-4.9c-2-1.1-4.6-0.4-5.8,1.7c-1.1,2-0.4,4.6,1.7,5.8C41.2,30,43.8,29.3,44.9,27.2z"/>
				
					<linearGradient id="SVGID_58_" gradientUnits="userSpaceOnUse" x1="-1825.5471" y1="914.0414" x2="-1820.9037" y2="914.0414" gradientTransform="matrix(0.4824 -0.8759 -0.8759 -0.4824 1718.2949 -1130.3148)">
					<stop  offset="0" style="stop-color:#FFFFFF"/>
					<stop  offset="1" style="stop-color:#231F20"/>
				</linearGradient>
				<path class="st63" d="M39,26.6c0.1-0.2,0.3-0.4,0.4-0.6c-0.9-0.8-1.5-1.9-1.5-3c-0.2,0.2-0.3,0.4-0.5,0.6
					c-0.9,1.6-0.4,3.7,1.1,5C38.5,27.9,38.7,27.2,39,26.6z"/>
				
					<linearGradient id="SVGID_59_" gradientUnits="userSpaceOnUse" x1="-1822.3931" y1="908.8554" x2="-1817.0779" y2="908.8554" gradientTransform="matrix(0.4824 -0.8759 -0.8759 -0.4824 1718.2949 -1130.3148)">
					<stop  offset="0" style="stop-color:#FFFFFF"/>
					<stop  offset="1" style="stop-color:#231F20"/>
				</linearGradient>
				<path class="st64" d="M43.5,24.3c-0.2,0.2-0.4,0.4-0.6,0.6c1,0.9,1.5,2.1,1.5,3.3c0.2-0.2,0.4-0.4,0.6-0.7
					c1.2-1.7,0.8-4-0.8-5.5C44.2,22.8,44,23.6,43.5,24.3z"/>
				
					<linearGradient id="SVGID_60_" gradientUnits="userSpaceOnUse" x1="-1825.7433" y1="908.7177" x2="-1816.9102" y2="908.7177" gradientTransform="matrix(0.4824 -0.8759 -0.8759 -0.4824 1718.2949 -1130.3148)">
					<stop  offset="0" style="stop-color:#FFFFFF"/>
					<stop  offset="1" style="stop-color:#2B3E8B"/>
				</linearGradient>
				<path class="st65" d="M44.7,27.1c-1,1.8-2.8,2.7-4.6,2.6c2,0.5,4.1-0.3,5.1-2.2c1-1.8,0.6-4.1-0.8-5.5
					C45.5,23.4,45.6,25.4,44.7,27.1z"/>
				<path class="st1" d="M38.1,23.4c1-1.8,2.8-2.8,4.6-2.6c-2-0.5-4.2,0.4-5.2,2.3s-0.7,4.1,0.8,5.6C37.2,27.2,37.1,25.2,38.1,23.4z
					"/>
			</g>
		</g>
		<g>
			<g>
				
					<linearGradient id="SVGID_61_" gradientUnits="userSpaceOnUse" x1="-1831.8369" y1="902.1917" x2="-1817.9222" y2="895.3726" gradientTransform="matrix(0.4824 -0.8759 -0.8759 -0.4824 1718.2949 -1130.3148)">
					<stop  offset="0" style="stop-color:#4E87DE"/>
					<stop  offset="0.314" style="stop-color:#4F8AD6"/>
					<stop  offset="0.9954" style="stop-color:#5290C7"/>
				</linearGradient>
				<path class="st66" d="M57.1,37.6c-0.9,1.6-2.3,2.8-4.1,3.3s-3.6,0.3-5.3-0.6c-1.6-0.9-2.8-2.4-3.3-4.1c-0.5-1.7-0.3-3.6,0.6-5.2
					c0.9-1.6,2.3-2.8,4.1-3.3s3.6-0.3,5.3,0.6c1.6,0.9,2.8,2.4,3.3,4.1C58.2,34.2,58,36,57.1,37.6z"/>
				
					<radialGradient id="SVGID_62_" cx="-2517.1541" cy="-6578.0669" r="7.5938" gradientTransform="matrix(0.4645 -0.8433 -0.8433 -0.4645 -4328.1318 -5143.6709)" gradientUnits="userSpaceOnUse">
					<stop  offset="4.566210e-03" style="stop-color:#96C1FF"/>
					<stop  offset="0.3687" style="stop-color:#7CAEE9"/>
					<stop  offset="0.8584" style="stop-color:#5290C7"/>
					<stop  offset="1" style="stop-color:#87ABDE"/>
				</radialGradient>
				<path class="st67" d="M45.2,31.1c-1.8,3.3-0.7,7.4,2.6,9.2s7.4,0.6,9.2-2.7s0.7-7.4-2.6-9.2C51.2,26.5,47,27.8,45.2,31.1z"/>
				
					<radialGradient id="SVGID_63_" cx="-2519.0815" cy="-6575.728" r="5.6004" gradientTransform="matrix(0.4645 -0.8433 -0.8433 -0.4645 -4328.1318 -5143.6709)" gradientUnits="userSpaceOnUse">
					<stop  offset="4.566210e-03" style="stop-color:#FFFFFF"/>
					<stop  offset="0.1879" style="stop-color:#E4EEF6"/>
					<stop  offset="0.5816" style="stop-color:#A0C2E0"/>
					<stop  offset="1" style="stop-color:#5290C7"/>
				</radialGradient>
				<path class="st68" d="M45.2,31.1c-1.8,3.3-0.7,7.4,2.6,9.2s7.4,0.6,9.2-2.7s0.7-7.4-2.6-9.2C51.2,26.5,47,27.8,45.2,31.1z"/>
				
					<radialGradient id="SVGID_64_" cx="-2519.0815" cy="-6575.728" r="5.6004" gradientTransform="matrix(0.4645 -0.8433 -0.8433 -0.4645 -4328.1318 -5143.6709)" gradientUnits="userSpaceOnUse">
					<stop  offset="4.566210e-03" style="stop-color:#D1EEFC"/>
					<stop  offset="0.2465" style="stop-color:#B9D4ED"/>
					<stop  offset="0.7622" style="stop-color:#7D90C6"/>
					<stop  offset="1" style="stop-color:#5F6FB3"/>
				</radialGradient>
				<path class="st69" d="M45.2,31.1c-1.8,3.3-0.7,7.4,2.6,9.2s7.4,0.6,9.2-2.7s0.7-7.4-2.6-9.2C51.2,26.5,47,27.8,45.2,31.1z"/>
				
					<radialGradient id="SVGID_65_" cx="-2972.842" cy="-9108.4805" r="10.7069" gradientTransform="matrix(0.3982 -0.7228 -0.7228 -0.3982 -5346.2324 -5742.5757)" gradientUnits="userSpaceOnUse">
					<stop  offset="4.566210e-03" style="stop-color:#C9C9C9"/>
					<stop  offset="0.2044" style="stop-color:#BBC7D7"/>
					<stop  offset="0.6662" style="stop-color:#A0C3F4"/>
					<stop  offset="0.9315" style="stop-color:#96C1FF"/>
					<stop  offset="1" style="stop-color:#5F6FB3"/>
				</radialGradient>
				<path class="st70" d="M45.1,31.2c-1.6,2.8-0.2,6.6,3,8.4s7.1,0.9,8.7-1.9c1.6-2.8,0.2-6.6-3-8.4C50.6,27.6,46.7,28.4,45.1,31.2z
					"/>
				
					<linearGradient id="SVGID_66_" gradientUnits="userSpaceOnUse" x1="-1835.3384" y1="898.4986" x2="-1826.7805" y2="898.4986" gradientTransform="matrix(0.4824 -0.8759 -0.8759 -0.4824 1718.2949 -1130.3148)">
					<stop  offset="0" style="stop-color:#2B3E8B"/>
					<stop  offset="1" style="stop-color:#FFFFFF"/>
				</linearGradient>
				<path class="st71" d="M45.7,31.3C45.6,31.3,45.6,31.4,45.7,31.3c1.5-2.6,5.2-3.5,8.2-1.9c3,1.7,4.2,5.3,2.7,8.1s-5.2,3.7-8.3,2
					c-2.6-1.4-3.9-4.3-3.2-6.9c-0.9,2.9,0.2,6.1,2.8,7.6c3,1.7,7,0.4,8.8-2.9c1.8-3.3,0.8-7.3-2.3-8.9C51.4,26.8,47.4,28,45.7,31.3z
					"/>
				
					<linearGradient id="SVGID_67_" gradientUnits="userSpaceOnUse" x1="-1830.9641" y1="894.9651" x2="-1819.1937" y2="894.9651" gradientTransform="matrix(0.4824 -0.8759 -0.8759 -0.4824 1718.2949 -1130.3148)">
					<stop  offset="0" style="stop-color:#FFFFFF"/>
					<stop  offset="1" style="stop-color:#2B3E8B"/>
				</linearGradient>
				<path class="st72" d="M55.3,36.4c-1.4,2.5-3.8,4-6.3,4.1c2.8,0.7,5.8-0.5,7.3-3.1c1.1-2.1,1-4.5-0.1-6.4
					C56.6,32.8,56.3,34.7,55.3,36.4z"/>
				
					<radialGradient id="SVGID_68_" cx="-2696.3181" cy="-7500.0977" r="5.5178" gradientTransform="matrix(0.4378 -0.7949 -0.7949 -0.4378 -4732.1055 -5393.7236)" gradientUnits="userSpaceOnUse">
					<stop  offset="4.566210e-03" style="stop-color:#FFFFFF"/>
					<stop  offset="0.1363" style="stop-color:#ECF4FF"/>
					<stop  offset="0.4962" style="stop-color:#BED8FF"/>
					<stop  offset="0.773" style="stop-color:#A1C7FF"/>
					<stop  offset="0.9315" style="stop-color:#96C1FF"/>
					<stop  offset="1" style="stop-color:#5F6FB3"/>
				</radialGradient>
				<path class="st73" d="M49.4,39.4c-2.7-1.5-3.8-4.8-2.3-7.5c1.1-2,3.3-3,5.5-2.7c-2.6-1-5.6-0.1-6.9,2.3c-1.4,2.6-0.4,6,2.3,7.5
					c0.6,0.4,1.3,0.6,2,0.7C49.8,39.6,49.6,39.5,49.4,39.4z"/>
				<path class="st1" d="M56.5,37.3C56.5,37.2,56.5,37.2,56.5,37.3c-1.4,2.4-4.9,3.2-7.9,1.5c-3-1.6-4.3-5.1-2.8-7.7
					c1.4-2.6,5-3.3,8-1.7c2.6,1.4,3.9,4.2,3.3,6.6c0.8-2.7-0.4-5.8-3-7.2c-3-1.7-6.8-0.6-8.5,2.5c-1.7,3-0.6,6.8,2.5,8.5
					C51,41.4,54.8,40.3,56.5,37.3z"/>
				
					<linearGradient id="SVGID_69_" gradientUnits="userSpaceOnUse" x1="-1830.8263" y1="902.1417" x2="-1823.9977" y2="902.1417" gradientTransform="matrix(0.4824 -0.8759 -0.8759 -0.4824 1718.2949 -1130.3148)">
					<stop  offset="0" style="stop-color:#FFFFFF"/>
					<stop  offset="1" style="stop-color:#231F20"/>
				</linearGradient>
				<path class="st74" d="M47.8,36.3c0.2-0.3,0.4-0.6,0.6-0.9c-1.3-1.2-2.1-2.8-2.3-4.4c-0.3,0.3-0.5,0.6-0.7,1
					c-1.3,2.4-0.5,5.4,1.7,7.4C47.1,38.3,47.3,37.3,47.8,36.3z"/>
				
					<linearGradient id="SVGID_70_" gradientUnits="userSpaceOnUse" x1="-1826.1825" y1="894.5669" x2="-1818.3658" y2="894.5669" gradientTransform="matrix(0.4824 -0.8759 -0.8759 -0.4824 1718.2949 -1130.3148)">
					<stop  offset="0" style="stop-color:#FFFFFF"/>
					<stop  offset="1" style="stop-color:#231F20"/>
				</linearGradient>
				<path class="st75" d="M54.3,32.9c-0.2,0.3-0.5,0.7-0.8,0.9c1.4,1.4,2.2,3.1,2.2,4.9c0.3-0.3,0.6-0.6,0.9-1
					c1.8-2.5,1.2-5.9-1.2-8.1C55.4,30.8,55,31.9,54.3,32.9z"/>
				
					<linearGradient id="SVGID_71_" gradientUnits="userSpaceOnUse" x1="-1831.115" y1="894.2903" x2="-1818.1246" y2="894.2903" gradientTransform="matrix(0.4824 -0.8759 -0.8759 -0.4824 1718.2949 -1130.3148)">
					<stop  offset="0" style="stop-color:#FFFFFF"/>
					<stop  offset="1" style="stop-color:#2B3E8B"/>
				</linearGradient>
				<path class="st76" d="M56.1,37.2c-1.4,2.6-4.1,4-6.7,3.8c2.9,0.8,6-0.5,7.6-3.3c1.5-2.7,0.9-6-1.1-8
					C57.3,31.7,57.5,34.7,56.1,37.2z"/>
				<path class="st1" d="M46.4,31.7c1.4-2.6,4.2-4.1,6.8-3.8c-2.9-0.8-6.2,0.5-7.7,3.3s-1,6.1,1.2,8.2C45.2,37.3,45,34.3,46.4,31.7z
					"/>
			</g>
		</g>
	</g>
</g>
</svg>
