<?xml version="1.0" encoding="utf-8"?>
<!-- Generator: Adobe Illustrator 24.0.1, SVG Export Plug-In . SVG Version: 6.00 Build 0)  -->
<svg version="1.1" id="Layer_1" xmlns="http://www.w3.org/2000/svg" xmlns:xlink="http://www.w3.org/1999/xlink" x="0px" y="0px"
	 viewBox="0 0 92.2 77.4" style="enable-background:new 0 0 92.2 77.4;" xml:space="preserve">
<style type="text/css">
	.st0{fill:url(#Ellipse_16_1_);}
	.st1{opacity:0.5;fill:#FFFFFF;enable-background:new    ;}
	.st2{opacity:0.3;fill:#C088FF;enable-background:new    ;}
	.st3{fill:#7B704F;}
	.st4{fill:url(#Path_8078_1_);}
	.st5{fill:#FFF4C5;}
	.st6{fill:#4A2300;}
	.st7{fill:#105477;fill-opacity:0;}
	.st8{fill:#8AD1FC;}
	.st9{font-family:'LucidaGrande-Bold';}
	.st10{font-size:16px;}
</style>
<g id="Hypromellose" transform="translate(5.273)">
	
		<linearGradient id="Ellipse_16_1_" gradientUnits="userSpaceOnUse" x1="-260.1635" y1="429.7525" x2="-260.1635" y2="430.7525" gradientTransform="matrix(71.756 0 0 -67.842 18709.2227 29227.8887)">
		<stop  offset="0" style="stop-color:#001555"/>
		<stop  offset="0.174" style="stop-color:#001555"/>
		<stop  offset="0.27" style="stop-color:#011D58"/>
		<stop  offset="0.422" style="stop-color:#043462"/>
		<stop  offset="0.612" style="stop-color:#0A5A72"/>
		<stop  offset="0.831" style="stop-color:#237CAA"/>
		<stop  offset="1" style="stop-color:#279BD7"/>
	</linearGradient>
	<ellipse id="Ellipse_16" class="st0" cx="40.9" cy="38.7" rx="35.9" ry="33.9"/>
	
		<image style="overflow:visible;opacity:0.1;enable-background:new    ;" width="1759" height="1217" id="Rectangle_11" xlink:href="37257344D7A3B610.png"  transform="matrix(3.818647e-02 0 0 3.818647e-02 7 4.771)">
	</image>
	<path id="Path_8075" class="st1" d="M40.9,7.4c14.8,0,27.6,8.5,33,20.6c0.2-0.4,0.4-0.9,0.6-1.3c-5.1-12.8-18.2-22-33.6-22
		s-28.5,9.1-33.6,22c0.2,0.4,0.4,0.9,0.6,1.3C13.4,15.9,26.1,7.4,40.9,7.4z"/>
	<path id="Path_8076" class="st2" d="M40.9,69C21.7,69,6.1,54.8,5.1,36.9c0,0.6,0,1.2-0.1,1.8c0,18.7,16.1,33.9,35.9,33.9
		s35.9-15.2,35.9-33.9c0-0.6,0-1.2-0.1-1.8C75.8,54.8,60.1,69,40.9,69z"/>
	<path id="Path_8077" class="st3" d="M40.9,76.2c-21.9,0-39.7-16.8-39.7-37.5S19.1,1.2,40.9,1.2S80.6,18,80.6,38.7
		S62.8,76.2,40.9,76.2z M40.9,2.9C20.1,2.9,3.1,19,3.1,38.7s17,35.8,37.8,35.8s37.8-16.1,37.8-35.8S61.8,2.9,40.9,2.9L40.9,2.9z"/>
	
		<linearGradient id="Path_8078_1_" gradientUnits="userSpaceOnUse" x1="-260.3513" y1="430.0258" x2="-260.3513" y2="431.0258" gradientTransform="matrix(75.693 0 0 -71.569 19747.6953 30850.9824)">
		<stop  offset="0" style="stop-color:#EBC459"/>
		<stop  offset="7.500000e-02" style="stop-color:#D1BC4B"/>
		<stop  offset="0.162" style="stop-color:#DEC243"/>
		<stop  offset="0.244" style="stop-color:#D1B128"/>
		<stop  offset="0.318" style="stop-color:#E3C95D"/>
		<stop  offset="0.375" style="stop-color:#F1C40F"/>
		<stop  offset="0.53" style="stop-color:#F59325"/>
		<stop  offset="0.748" style="stop-color:#EA8C22"/>
		<stop  offset="0.911" style="stop-color:#A34201"/>
		<stop  offset="1" style="stop-color:#9C3600"/>
	</linearGradient>
	<path id="Path_8078" class="st4" d="M40.9,74.5c-20.9,0-37.8-16.1-37.8-35.8s17-35.8,37.8-35.8S78.8,19,78.8,38.7
		S61.8,74.5,40.9,74.5z M40.9,4.8C21.1,4.8,5.1,20,5.1,38.7s16.1,33.9,35.9,33.9s35.9-15.2,35.9-33.9S60.7,4.8,40.9,4.8z"/>
	<path id="Path_8079" class="st5" d="M40.9,74.8c-10,0.1-19.7-3.7-27-10.6c-14.1-13-15-35-2-49c0.6-0.7,1.3-1.4,2-2
		c15.2-14.1,38.7-14.1,54,0c14.1,13,15,35,2,49c-0.6,0.7-1.3,1.4-2,2C60.6,71.1,50.9,74.9,40.9,74.8z M40.9,3.2
		C20.2,3.2,3.4,19.1,3.4,38.7s16.8,35.5,37.5,35.5s37.5-15.9,37.5-35.5S61.6,3.2,40.9,3.2z"/>
	<path id="Path_8080" class="st6" d="M40.9,1.2c21.9,0,39.7,16.8,39.7,37.5S62.8,76.2,40.9,76.2S1.3,59.4,1.3,38.7
		S19.1,1.2,40.9,1.2 M40.9,72.6c19.8,0,35.9-15.2,35.9-33.9S60.7,4.8,40.9,4.8S5.1,20,5.1,38.7S21.1,72.6,40.9,72.6 M40.9,0
		C18.4,0,0,17.4,0,38.7s18.4,38.7,40.9,38.7S81.9,60,81.9,38.7S63.5,0,40.9,0L40.9,0z M40.9,71.4c-19.1,0-34.6-14.7-34.6-32.7
		S21.9,6,40.9,6s34.6,14.7,34.6,32.7S60,71.4,40.9,71.4L40.9,71.4z"/>
	<g id="Comp10png" transform="matrix(0.999, -0.035, 0.035, 0.999, 1.902, 11.184)">
		<path id="Rectangle_85" class="st7" d="M20,0l43,0c11,0,20,9,20,20v20c0,11-9,20-20,20H20C9,60,0,51,0,40l0-20C0,9,9,0,20,0z"/>
		
			<image style="overflow:visible;enable-background:new    ;" width="786" height="342" id="Hypromellose.psd" xlink:href="37257344D7A3B611.png"  transform="matrix(0.104 -1.837405e-02 1.837405e-02 0.104 -7.505 9.3342)">
		</image>
	</g>
	<text transform="matrix(1 0 0 1 16.5606 57.354)" class="st8 st9 st10">HPMC</text>
</g>
</svg>
