<svg id="information_1_" data-name="information (1)" xmlns="http://www.w3.org/2000/svg" width="29.639" height="29.639" viewBox="0 0 29.639 29.639">
  <path id="Path_8066" data-name="Path 8066" d="M14.82,0a14.82,14.82,0,1,0,14.82,14.82A14.837,14.837,0,0,0,14.82,0Zm0,26.945A12.125,12.125,0,1,1,26.945,14.82,12.139,12.139,0,0,1,14.82,26.945Z" fill="#55ace0"/>
  <path id="Path_8067" data-name="Path 8067" d="M146.8,70a1.8,1.8,0,1,0,1.8,1.8A1.8,1.8,0,0,0,146.8,70Z" transform="translate(-131.978 -63.713)" fill="#55ace0"/>
  <path id="Path_8068" data-name="Path 8068" d="M151.347,140A1.347,1.347,0,0,0,150,141.347v8.083a1.347,1.347,0,0,0,2.694,0v-8.083A1.347,1.347,0,0,0,151.347,140Z" transform="translate(-136.528 -127.426)" fill="#55ace0"/>
</svg>
