<svg xmlns="http://www.w3.org/2000/svg" width="433.481" height="885.537" viewBox="0 0 433.481 885.537">
  <g id="left" transform="translate(0 -200.85)">
    <path id="Path_497" data-name="Path 497" d="M275.775,426.125c.009-7.2,1.973-14.084,5.438-19.059L290.4,393.91c3.253-4.678,7.584-7.284,12.086-7.272h18.449c4.989.02,9.777-2.959,13.3-8.273l14.017-21.1c3.281-4.95,7.742-7.727,12.392-7.712H663.611c4.65-.015,9.111,2.761,12.392,7.712l15.3,22.992c3.3,4.927,5.146,11.632,5.132,18.62V903.652h1.278V398.874c.013-7.5-1.969-14.691-5.506-19.979l-15.3-22.992c-3.519-5.314-8.307-8.293-13.3-8.273H360.665c-4.989-.02-9.777,2.959-13.3,8.273l-14.071,21.1c-3.279,4.955-7.742,7.732-12.392,7.712H302.483c-4.83-.013-9.477,2.779-12.97,7.793l-9.191,13.166c-3.713,5.334-5.819,12.71-5.832,20.428V903.652h1.285Z" transform="translate(-274.49 -117.925)" fill="#153761"/>
    <path id="Path_499" data-name="Path 499" d="M419.76,348.715,434.4,324.793c2.12-3.465,4.995-5.413,7.993-5.413H662.728c3,0,5.872,1.946,7.992,5.411l15.375,25.129Z" transform="translate(-294.842 -118.53)" fill="#153761"/>
    <path id="Path_500" data-name="Path 500" d="M906.78,460.162a30.13,30.13,0,0,0-3.912-15.433L895.6,432.85l.25,468.978h10.937Z" transform="translate(-473.306 -116.101)" fill="#153761"/>
    <path id="Path_501" data-name="Path 501" d="M275.775,1114.166c.011,7.2,1.974,14.089,5.438,19.07l9.191,13.156c3.253,4.675,7.585,7.278,12.086,7.262h18.449c4.991-.02,9.779,2.963,13.3,8.284l14.017,21.092c3.279,4.955,7.742,7.733,12.392,7.712H663.611c4.651.021,9.113-2.756,12.392-7.712l15.3-22.992c3.3-4.923,5.146-11.625,5.132-18.61V892h1.278v249.427c.012,7.5-1.971,14.689-5.506,19.979l-15.3,22.981c-3.518,5.318-8.306,8.3-13.3,8.273H360.665c-4.99.024-9.779-2.955-13.3-8.274L333.3,1163.3c-3.279-4.955-7.742-7.732-12.392-7.712H302.483c-4.832.014-9.48-2.783-12.97-7.8l-9.19-13.156c-3.71-5.336-5.816-12.711-5.832-20.428V892h1.285Z" transform="translate(-274.49 -106.274)" fill="#046"/>
    <path id="Path_503" data-name="Path 503" d="M688.108,390.658l-14.428-21.5c-3.2-4.8-7.552-7.5-12.087-7.5H368.719c-4.535,0-8.884,2.694-12.087,7.5l-13.213,19.774c-3.2,4.8-7.553,7.493-12.087,7.487H313.97c-4.392,0-8.614,2.533-11.793,7.068l-8.64,12.287c-3.386,4.826-5.3,11.52-5.3,18.518V901.125H693.11V408.747a33.119,33.119,0,0,0-5-18.089Z" transform="translate(-279.647 -117.625)" fill="#046" opacity="0.412"/>
    <path id="Path_504" data-name="Path 504" d="M288.23,1101.363c0,7,1.91,13.692,5.3,18.518l8.647,12.328c3.179,4.535,7.4,7.066,11.793,7.068h17.362c4.534-.007,8.883,2.687,12.087,7.487l13.213,19.774c3.2,4.8,7.552,7.5,12.087,7.5h292.9c4.534,0,8.884-2.693,12.087-7.5L688.1,1145a33.117,33.117,0,0,0,5-18.089V889.82H288.23Z" transform="translate(-279.643 -106.32)" fill="#046" opacity="0.412"/>
    <g id="Group_12" data-name="Group 12" transform="translate(8.881 245.751)">
      <path id="Path_498" data-name="Path 498" d="M289.341,436.452c.01-6.864,1.887-13.425,5.2-18.171l8.646-12.328c3.112-4.461,7.257-6.946,11.567-6.935h17.367c4.61.008,9.032-2.738,12.283-7.63l13.211-19.774c3.136-4.722,7.4-7.37,11.853-7.354H662.357c4.451-.018,8.721,2.631,11.86,7.354l14.4,21.541a32.27,32.27,0,0,1,4.906,17.752V903.315h.648V410.907c0-6.9-1.834-13.519-5.1-18.385L674.674,370.97c-3.26-4.9-7.7-7.652-12.317-7.63H369.5c-4.61-.008-9.031,2.738-12.283,7.63L343.974,390.7c-3.136,4.722-7.4,7.37-11.853,7.354H314.754c-4.469-.022-8.772,2.54-12.01,7.15L294.1,417.546c-3.441,4.925-5.39,11.739-5.4,18.865v466.9h.641Z" transform="translate(-288.7 -363.34)" fill="#046"/>
      <path id="Path_502" data-name="Path 502" d="M289.341,1103.512c.008,6.861,1.886,13.42,5.2,18.161l8.646,12.339c3.115,4.454,7.259,6.935,11.567,6.925h17.367c4.611,0,9.032,2.746,12.283,7.64l13.211,19.775c3.136,4.722,7.4,7.37,11.853,7.354H662.357c4.451.018,8.721-2.63,11.86-7.354l14.4-21.552a32.23,32.23,0,0,0,4.906-17.752V892h.648v237.078c.012,6.919-1.826,13.558-5.1,18.436l-14.392,21.542c-3.259,4.907-7.695,7.658-12.317,7.64H369.5c-4.611,0-9.032-2.746-12.283-7.64L344,1149.281c-3.137-4.719-7.405-7.364-11.853-7.344H314.754c-4.474.007-8.777-2.573-12.01-7.2l-8.646-12.328c-3.439-4.927-5.388-11.739-5.4-18.865V892h.641Z" transform="translate(-288.7 -352.025)" fill="#046"/>
      <path id="Path_505" data-name="Path 505" d="M906.78,1078.314a30.16,30.16,0,0,1-3.913,15.435l-7.267,11.877L895.85,892h10.937Z" transform="translate(-482.186 -352.025)" fill="#153761"/>
    </g>
  </g>
</svg>
