<svg xmlns="http://www.w3.org/2000/svg" xmlns:xlink="http://www.w3.org/1999/xlink" width="140" height="103" viewBox="0 0 140 103">
  <defs>
    <radialGradient id="radial-gradient" cx="0.719" cy="0.66" r="0.964" gradientTransform="translate(7.979 151.264) rotate(157.243)" gradientUnits="objectBoundingBox">
      <stop offset="0" stop-color="#fff"/>
      <stop offset="0.016" stop-color="#f2f7fb"/>
      <stop offset="0.079" stop-color="#c6dded"/>
      <stop offset="0.139" stop-color="#a4c8e2"/>
      <stop offset="0.197" stop-color="#8bb9db"/>
      <stop offset="0.249" stop-color="#7db1d6"/>
      <stop offset="0.292" stop-color="#78aed5"/>
      <stop offset="0.646" stop-color="#536ea9"/>
      <stop offset="0.776" stop-color="#8369a3"/>
      <stop offset="0.994" stop-color="#dd6199"/>
    </radialGradient>
    <radialGradient id="radial-gradient-2" cx="0.732" cy="0.36" r="0.964" gradientTransform="translate(61.588 85.127) rotate(90)" xlink:href="#radial-gradient"/>
    <radialGradient id="radial-gradient-3" cx="0.732" cy="0.36" r="0.964" gradientTransform="translate(63.025 80.532) rotate(90)" xlink:href="#radial-gradient"/>
    <radialGradient id="radial-gradient-4" cx="0.732" cy="0.36" r="0.964" gradientTransform="translate(59.019 78.341) rotate(90)" xlink:href="#radial-gradient"/>
    <radialGradient id="radial-gradient-5" cx="0.732" cy="0.36" r="0.964" gradientTransform="translate(55.051 80.659) rotate(90)" xlink:href="#radial-gradient"/>
    <radialGradient id="radial-gradient-6" cx="0.718" cy="0.661" r="0.964" gradientTransform="translate(-1.526 129.668) rotate(157.5)" xlink:href="#radial-gradient"/>
    <radialGradient id="radial-gradient-7" cx="0.732" cy="0.36" r="0.964" gradientTransform="translate(47.054 80.659) rotate(90)" xlink:href="#radial-gradient"/>
    <radialGradient id="radial-gradient-8" cx="0.718" cy="0.661" r="0.964" gradientTransform="matrix(-0.924, 0.383, -0.383, -0.924, -10.61, 123.597)" xlink:href="#radial-gradient"/>
  </defs>
  <g id="Comp8" transform="translate(-1622 -740)">
    <rect id="Rectangle_83" data-name="Rectangle 83" width="140" height="103" rx="20" transform="translate(1622 740)" fill="#105477" opacity="0"/>
    <g id="lipoic" transform="translate(1198.014 485.565)">
      <g id="Group_928" data-name="Group 928" transform="translate(439.406 265.588)">
        <path id="Path_5075" data-name="Path 5075" d="M535.864,308.058c-1.167-.643-2.324-1.3-3.483-1.956-.577-.332-1.164-.648-1.734-.991l-1.7-1.046-6.808-4.172h.216l-14.045,8.344-.108.064-.107-.064-14.034-8.344h.215l-6.918,4.172-3.459,2.086-1.729,1.043c-.575.35-1.15.7-1.731,1.042l-.111.065-.105-.066-13.507-8.522,13.725,8.166h-.217c.574-.353,1.151-.7,1.73-1.044l1.73-1.042,3.459-2.086,6.918-4.172.108-.065.108.065,14.034,8.343H508.1l14.046-8.343.109-.065.108.065,6.808,4.173,1.7,1.04c.565.352,1.113.731,1.67,1.1C533.65,306.579,534.762,307.311,535.864,308.058Z" transform="translate(-443.191 -270.284)" fill="#fff"/>
        <g id="Group_923" data-name="Group 923" transform="translate(3.508 4.346)">
          <path id="Path_5076" data-name="Path 5076" d="M453.765,295.9q1.242-.072,2.483-.126l1.241-.058c.414-.016.828-.047,1.241-.047.828.007,1.656,0,2.483,0l2.483-.008-.2.146,5.035-15.667.077.234-12.9-9.31.241,0-2.294,1.569c-.384.259-.76.531-1.146.787l-1.169.752c-1.561,1-3.117,2.009-4.685,3,1.49-1.1,2.992-2.19,4.49-3.282l1.125-.817c.378-.268.768-.519,1.147-.784l2.294-1.569.121-.084.12.086,12.9,9.31.123.089-.047.145L463.9,295.929l-.046.145H463.7l-2.483.008c-.828.005-1.656,0-2.483.013-.413,0-.828-.025-1.241-.039l-1.242-.049Q455.007,295.961,453.765,295.9Z" transform="translate(-443.919 -270.633)" fill="#fff"/>
          <path id="Path_5077" data-name="Path 5077" d="M443.478,287.972s.067.094.175.26c.054.084.12.184.19.3l.113.187a1.949,1.949,0,0,1,.078.224l.786,2.29c.285.833.571,1.666.786,2.29a1.663,1.663,0,0,1,.073.225l.025.218c.017.135.028.256.037.354.018.2.023.312.023.312s-.065-.093-.173-.26c-.053-.084-.118-.185-.188-.3l-.114-.188a1.47,1.47,0,0,1-.08-.222l-.786-2.291c-.285-.832-.571-1.665-.785-2.29a2.047,2.047,0,0,1-.077-.225l-.025-.217c-.017-.136-.028-.256-.036-.355C443.482,288.087,443.478,287.972,443.478,287.972Z" transform="translate(-443.478 -273.036)" fill="#fff"/>
        </g>
        <path id="Path_5078" data-name="Path 5078" d="M548.924,310.821s.033.15.081.413c.024.131.053.29.081.473l.046.291c.016.1-.005.211,0,.323v6.6a2.854,2.854,0,0,1,0,.322l-.047.292c-.028.183-.057.342-.08.473-.047.263-.079.413-.079.413s-.032-.15-.079-.413c-.023-.131-.052-.29-.08-.473l-.047-.292a2.854,2.854,0,0,1,0-.322v-6.6c.006-.112-.015-.221,0-.323l.047-.291c.028-.183.057-.342.081-.473C548.892,310.971,548.924,310.821,548.924,310.821Z" transform="translate(-454.555 -271.857)" fill="#fff"/>
        <path id="Path_5079" data-name="Path 5079" d="M545.226,310.821s.034.15.082.413c.023.131.053.29.081.473l.046.291c.016.1-.005.211,0,.323v6.6a2.667,2.667,0,0,1,0,.322l-.047.292c-.028.183-.057.342-.08.473-.047.263-.079.413-.079.413s-.031-.15-.078-.413c-.023-.131-.053-.29-.08-.473l-.047-.292a2.849,2.849,0,0,1,0-.322c0-.9,0-2.1,0-3.3s0-2.4,0-3.3c.006-.112-.014-.221,0-.323l.046-.291c.028-.183.057-.342.081-.473C545.193,310.971,545.226,310.821,545.226,310.821Z" transform="translate(-454.043 -271.857)" fill="#fff"/>
        <path id="Path_5080" data-name="Path 5080" d="M555.441,303.8s-.114.1-.317.277c-.1.086-.225.191-.37.307l-.229.185c-.081.065-.184.1-.279.163l-2.858,1.65-2.858,1.65a2.839,2.839,0,0,1-.281.159l-.276.105c-.172.067-.325.122-.451.168-.251.09-.4.137-.4.137s.114-.1.318-.275c.1-.085.225-.19.37-.306l.229-.186a2.749,2.749,0,0,1,.277-.165l2.858-1.65,2.858-1.65c.1-.051.184-.123.28-.161l.276-.105c.172-.067.325-.122.451-.167C555.295,303.844,555.441,303.8,555.441,303.8Z" transform="translate(-454.336 -270.884)" fill="#fff"/>
        <path id="Path_5081" data-name="Path 5081" d="M569.711,303.7H568.5v-2.773h-2.745V303.7h-1.2v-6.255h1.2v2.407H568.5v-2.407h1.207Z" transform="translate(-456.752 -270.003)" fill="#536ea8"/>
        <g id="Group_924" data-name="Group 924" transform="translate(101.53 27.467)">
          <path id="Path_5082" data-name="Path 5082" d="M563.108,300.538a2.888,2.888,0,0,1-2.118,3.058,3,3,0,0,1-3.236-1.178,3.8,3.8,0,0,1-.044-3.621,2.938,2.938,0,0,1,3.141-1.265A2.838,2.838,0,0,1,563.108,300.538Zm-1.246.04a1.97,1.97,0,0,0-1-1.936,1.613,1.613,0,0,0-2.015.618,2.991,2.991,0,0,0-.134,2.383,1.6,1.6,0,0,0,1.845.964A1.838,1.838,0,0,0,561.862,300.578Z" transform="translate(-557.272 -297.474)" fill="#536eaa"/>
        </g>
        <g id="Group_925" data-name="Group 925" transform="translate(89.894 48.661)">
          <path id="Path_5083" data-name="Path 5083" d="M549.6,325.142a2.889,2.889,0,0,1-2.118,3.058,3,3,0,0,1-3.236-1.178,3.8,3.8,0,0,1-.044-3.621,2.938,2.938,0,0,1,3.141-1.265A2.837,2.837,0,0,1,549.6,325.142Zm-1.246.041a1.971,1.971,0,0,0-1-1.937,1.613,1.613,0,0,0-2.015.619,2.985,2.985,0,0,0-.134,2.382,1.6,1.6,0,0,0,1.845.964A1.838,1.838,0,0,0,548.354,325.183Z" transform="translate(-543.764 -322.079)" fill="#536eaa"/>
        </g>
        <g id="Group_926" data-name="Group 926" transform="translate(0 9.098)">
          <path id="Path_5084" data-name="Path 5084" d="M440.539,280.385a1.333,1.333,0,0,0,.982,1.047,1.852,1.852,0,0,0,1.495-.189.657.657,0,0,0-.125-1.15,6.572,6.572,0,0,0-1.406-.391,3.341,3.341,0,0,1-1.353-.57,1.5,1.5,0,0,1-.523-1.323,2.042,2.042,0,0,1,2.187-1.659,2.258,2.258,0,0,1,2.494,1.949h-.823c-.051,0-.262.033-.3,0s-.073-.234-.1-.292a1,1,0,0,0-.189-.267,1.632,1.632,0,0,0-1.464-.277.854.854,0,0,0-.6.392.5.5,0,0,0,.187.674,7.152,7.152,0,0,0,1.833.522,2.154,2.154,0,0,1,1.5,1.1,1.806,1.806,0,0,1-.207,1.7,2.333,2.333,0,0,1-1.644.88,3.271,3.271,0,0,1-2.065-.392,2.249,2.249,0,0,1-1-1.758Z" transform="translate(-439.406 -276.15)" fill="#536eaa"/>
        </g>
        <g id="Group_927" data-name="Group 927" transform="translate(6.246 26.921)">
          <path id="Path_5085" data-name="Path 5085" d="M447.79,301.076a1.335,1.335,0,0,0,.983,1.048,1.85,1.85,0,0,0,1.495-.19.656.656,0,0,0-.125-1.149,6.533,6.533,0,0,0-1.406-.391,3.345,3.345,0,0,1-1.354-.57,1.5,1.5,0,0,1-.522-1.323,2.042,2.042,0,0,1,2.187-1.66,2.258,2.258,0,0,1,2.494,1.95h-.823c-.05,0-.262.033-.3,0s-.072-.234-.1-.292a1,1,0,0,0-.189-.267,1.629,1.629,0,0,0-1.464-.276.856.856,0,0,0-.6.391.5.5,0,0,0,.186.674,7.159,7.159,0,0,0,1.834.522,2.149,2.149,0,0,1,1.5,1.1,1.8,1.8,0,0,1-.206,1.7,2.333,2.333,0,0,1-1.644.881,3.269,3.269,0,0,1-2.065-.393,2.248,2.248,0,0,1-1-1.758Z" transform="translate(-446.657 -296.84)" fill="#536eaa"/>
        </g>
        <circle id="Ellipse_7" data-name="Ellipse 7" cx="3.508" cy="3.508" r="3.508" transform="translate(10.839 6.47) rotate(-67.243)" fill="url(#radial-gradient)"/>
        <circle id="Ellipse_8" data-name="Ellipse 8" cx="3.508" cy="3.508" r="3.508" transform="translate(24.607 9.992)" fill="url(#radial-gradient-2)"/>
        <circle id="Ellipse_9" data-name="Ellipse 9" cx="3.508" cy="3.508" r="3.508" transform="translate(19.568 26.112)" fill="url(#radial-gradient-3)"/>
        <path id="Path_5086" data-name="Path 5086" d="M481.941,311.839a3.508,3.508,0,1,1,3.508-3.508A3.508,3.508,0,0,1,481.941,311.839Z" transform="translate(-444.815 -271.026)" fill="url(#radial-gradient-4)"/>
        <circle id="Ellipse_10" data-name="Ellipse 10" cx="3.508" cy="3.508" r="3.508" transform="translate(47.54 25.666)" fill="url(#radial-gradient-5)"/>
        <circle id="Ellipse_11" data-name="Ellipse 11" cx="3.508" cy="3.508" r="3.508" transform="translate(60.595 39.204) rotate(-67.5)" fill="url(#radial-gradient-6)"/>
        <circle id="Ellipse_12" data-name="Ellipse 12" cx="3.508" cy="3.508" r="3.508" transform="translate(75.592 25.666)" fill="url(#radial-gradient-7)"/>
        <circle id="Ellipse_13" data-name="Ellipse 13" cx="3.508" cy="3.508" r="3.508" transform="translate(88.229 39.204) rotate(-67.5)" fill="url(#radial-gradient-8)"/>
      </g>
    </g>
  </g>
</svg>
