<?xml version="1.0" encoding="utf-8"?>
<!-- Generator: Adobe Illustrator 24.0.1, SVG Export Plug-In . SVG Version: 6.00 Build 0)  -->
<svg version="1.1" id="Layer_1" xmlns="http://www.w3.org/2000/svg" xmlns:xlink="http://www.w3.org/1999/xlink" x="0px" y="0px"
	 viewBox="0 0 81.9 77.4" style="enable-background:new 0 0 81.9 77.4;" xml:space="preserve">
<style type="text/css">
	.st0{fill:url(#Ellipse_21_1_);}
	.st1{opacity:0.5;fill:#FFFFFF;enable-background:new    ;}
	.st2{opacity:0.3;fill:#C088FF;enable-background:new    ;}
	.st3{fill:#7B704F;}
	.st4{fill:url(#Path_8108_1_);}
	.st5{fill:#FFF4C5;}
	.st6{fill:#4A2300;}
	.st7{fill:#8AD1FC;}
	.st8{font-family:'LucidaGrande-Bold';}
	.st9{font-size:19px;}
	.st10{fill:url(#SVGID_1_);}
	.st11{fill:url(#SVGID_2_);}
	.st12{fill:url(#SVGID_3_);}
	.st13{fill:url(#SVGID_4_);}
	.st14{fill:url(#SVGID_5_);}
	.st15{opacity:0.5;fill:url(#SVGID_6_);enable-background:new    ;}
	.st16{opacity:0.5;fill:url(#SVGID_7_);enable-background:new    ;}
	.st17{fill:url(#SVGID_8_);}
	.st18{opacity:0.5;fill:url(#SVGID_9_);enable-background:new    ;}
	.st19{opacity:0.5;fill:url(#SVGID_10_);enable-background:new    ;}
	.st20{opacity:0.5;fill:url(#SVGID_11_);enable-background:new    ;}
	.st21{clip-path:url(#SVGID_13_);}
	.st22{fill:url(#SVGID_14_);}
	.st23{fill:url(#SVGID_15_);}
	.st24{clip-path:url(#SVGID_17_);}
	.st25{fill:url(#SVGID_18_);}
	.st26{fill:url(#SVGID_19_);}
	.st27{clip-path:url(#SVGID_21_);}
	.st28{fill:url(#SVGID_22_);}
	.st29{fill:url(#SVGID_23_);}
	.st30{fill:url(#SVGID_24_);}
	.st31{fill:url(#SVGID_25_);}
	.st32{fill:url(#SVGID_26_);}
	.st33{fill:url(#SVGID_27_);}
	.st34{fill:url(#SVGID_28_);}
	.st35{opacity:0.5;fill:url(#SVGID_29_);enable-background:new    ;}
	.st36{opacity:0.5;fill:url(#SVGID_30_);enable-background:new    ;}
	.st37{fill:url(#SVGID_31_);}
	.st38{opacity:0.5;fill:url(#SVGID_32_);enable-background:new    ;}
	.st39{opacity:0.5;fill:url(#SVGID_33_);enable-background:new    ;}
	.st40{opacity:0.5;fill:url(#SVGID_34_);enable-background:new    ;}
	.st41{clip-path:url(#SVGID_36_);}
	.st42{fill:url(#SVGID_37_);}
	.st43{fill:url(#SVGID_38_);}
	.st44{fill:url(#SVGID_39_);}
	.st45{fill:url(#SVGID_40_);}
	.st46{fill:url(#SVGID_41_);}
	.st47{fill:url(#SVGID_42_);}
	.st48{fill:url(#SVGID_43_);}
	.st49{opacity:0.5;fill:url(#SVGID_44_);enable-background:new    ;}
	.st50{opacity:0.5;fill:url(#SVGID_45_);enable-background:new    ;}
	.st51{fill:url(#SVGID_46_);}
	.st52{opacity:0.5;fill:url(#SVGID_47_);enable-background:new    ;}
	.st53{opacity:0.5;fill:url(#SVGID_48_);enable-background:new    ;}
	.st54{opacity:0.5;fill:url(#SVGID_49_);enable-background:new    ;}
	.st55{fill:url(#SVGID_50_);}
	.st56{fill:url(#SVGID_51_);}
	.st57{fill:url(#SVGID_52_);}
	.st58{fill:url(#SVGID_53_);}
	.st59{fill:url(#SVGID_54_);}
	.st60{opacity:0.5;fill:url(#SVGID_55_);enable-background:new    ;}
	.st61{opacity:0.5;fill:url(#SVGID_56_);enable-background:new    ;}
	.st62{fill:url(#SVGID_57_);}
	.st63{opacity:0.5;fill:url(#SVGID_58_);enable-background:new    ;}
	.st64{opacity:0.5;fill:url(#SVGID_59_);enable-background:new    ;}
	.st65{opacity:0.5;fill:url(#SVGID_60_);enable-background:new    ;}
	.st66{fill:url(#SVGID_61_);}
	.st67{fill:url(#SVGID_62_);}
	.st68{fill:url(#SVGID_63_);}
	.st69{fill:url(#SVGID_64_);}
	.st70{fill:url(#SVGID_65_);}
	.st71{opacity:0.5;fill:url(#SVGID_66_);enable-background:new    ;}
	.st72{opacity:0.5;fill:url(#SVGID_67_);enable-background:new    ;}
	.st73{fill:url(#SVGID_68_);}
	.st74{opacity:0.5;fill:url(#SVGID_69_);enable-background:new    ;}
	.st75{opacity:0.5;fill:url(#SVGID_70_);enable-background:new    ;}
	.st76{opacity:0.5;fill:url(#SVGID_71_);enable-background:new    ;}
</style>
<g id="LA" transform="translate(0 0)">
	<g id="Lipoic">
		
			<linearGradient id="Ellipse_21_1_" gradientUnits="userSpaceOnUse" x1="-259.8209" y1="429.7525" x2="-259.8209" y2="430.7525" gradientTransform="matrix(71.756 0 0 -67.842 18684.6348 29227.8887)">
			<stop  offset="0" style="stop-color:#001555"/>
			<stop  offset="0.174" style="stop-color:#001555"/>
			<stop  offset="0.27" style="stop-color:#011D58"/>
			<stop  offset="0.422" style="stop-color:#043462"/>
			<stop  offset="0.612" style="stop-color:#0A5A72"/>
			<stop  offset="0.831" style="stop-color:#237CAA"/>
			<stop  offset="1" style="stop-color:#279BD7"/>
		</linearGradient>
		<ellipse id="Ellipse_21" class="st0" cx="40.9" cy="38.7" rx="35.9" ry="33.9"/>
		
			<image style="overflow:visible;opacity:0.1;enable-background:new    ;" width="1759" height="1217" id="Rectangle_11" xlink:href="11ABAE321AC64009.png"  transform="matrix(3.818647e-02 0 0 3.818647e-02 7 4.771)">
		</image>
		<path id="Path_8105" class="st1" d="M40.9,7.4c14.8,0,27.6,8.5,33,20.6c0.2-0.4,0.4-0.9,0.6-1.3c-5.1-12.8-18.2-22-33.6-22
			s-28.5,9.1-33.6,22c0.2,0.4,0.4,0.9,0.6,1.3C13.4,15.9,26.1,7.4,40.9,7.4z"/>
		<path id="Path_8106" class="st2" d="M40.9,69C21.7,69,6.1,54.8,5.1,36.9c0,0.6,0,1.2-0.1,1.8c0,18.7,16.1,33.9,35.9,33.9
			s35.9-15.2,35.9-33.9c0-0.6,0-1.2-0.1-1.8C75.8,54.8,60.1,69,40.9,69z"/>
		<path id="Path_8107" class="st3" d="M40.9,76.2c-21.9,0-39.7-16.8-39.7-37.5S19.1,1.2,40.9,1.2S80.6,18,80.6,38.7
			S62.8,76.2,40.9,76.2z M40.9,2.9C20.1,2.9,3.1,19,3.1,38.7s17,35.8,37.8,35.8s37.8-16.1,37.8-35.8S61.8,2.9,40.9,2.9L40.9,2.9z"/>
		
			<linearGradient id="Path_8108_1_" gradientUnits="userSpaceOnUse" x1="-260.0122" y1="430.0258" x2="-260.0122" y2="431.0258" gradientTransform="matrix(75.693 0 0 -71.569 19722.0293 30850.9824)">
			<stop  offset="0" style="stop-color:#EBC459"/>
			<stop  offset="7.500000e-02" style="stop-color:#D1BC4B"/>
			<stop  offset="0.162" style="stop-color:#DEC243"/>
			<stop  offset="0.244" style="stop-color:#D1B128"/>
			<stop  offset="0.318" style="stop-color:#E3C95D"/>
			<stop  offset="0.375" style="stop-color:#F1C40F"/>
			<stop  offset="0.53" style="stop-color:#F59325"/>
			<stop  offset="0.748" style="stop-color:#EA8C22"/>
			<stop  offset="0.911" style="stop-color:#A34201"/>
			<stop  offset="1" style="stop-color:#9C3600"/>
		</linearGradient>
		<path id="Path_8108" class="st4" d="M40.9,74.5c-20.9,0-37.8-16.1-37.8-35.8s17-35.8,37.8-35.8S78.8,19,78.8,38.7
			S61.8,74.5,40.9,74.5z M40.9,4.8C21.1,4.8,5.1,20,5.1,38.7s16.1,33.9,35.9,33.9s35.9-15.2,35.9-33.9S60.7,4.8,40.9,4.8z"/>
		<path id="Path_8109" class="st5" d="M40.9,74.8c-10,0.1-19.7-3.7-27-10.6c-14.1-13-15-35-2-49c0.6-0.7,1.3-1.4,2-2
			c15.2-14.1,38.7-14.1,54,0c14.1,13,15,35,2,49c-0.6,0.7-1.3,1.4-2,2C60.6,71.1,50.9,74.9,40.9,74.8z M40.9,3.2
			C20.2,3.2,3.4,19.1,3.4,38.7s16.8,35.5,37.5,35.5s37.5-15.9,37.5-35.5S61.6,3.2,40.9,3.2z"/>
		<path id="Path_8110" class="st6" d="M40.9,1.2c21.9,0,39.7,16.8,39.7,37.5S62.8,76.2,40.9,76.2S1.3,59.4,1.3,38.7
			S19.1,1.2,40.9,1.2 M40.9,72.6c19.8,0,35.9-15.2,35.9-33.9S60.7,4.8,40.9,4.8S5.1,20,5.1,38.7S21.1,72.6,40.9,72.6 M40.9,0
			C18.4,0,0,17.4,0,38.7s18.4,38.7,40.9,38.7S81.9,60,81.9,38.7S63.5,0,40.9,0L40.9,0z M40.9,71.4c-19.1,0-34.6-14.7-34.6-32.7
			S21.9,6,40.9,6s34.6,14.7,34.6,32.7S60,71.4,40.9,71.4L40.9,71.4z"/>
		<text transform="matrix(1 0 0 1 35.7003 61.829)" class="st7 st8 st9">LA</text>
	</g>
	<g>
		<g>
			<g>
				
					<linearGradient id="SVGID_1_" gradientUnits="userSpaceOnUse" x1="-2280.6628" y1="-93.0379" x2="-2267.6541" y2="-86.6629" gradientTransform="matrix(0.4824 -0.8759 0.8759 0.4824 1199.7561 -1927.8788)">
					<stop  offset="0" style="stop-color:#4E87DE"/>
					<stop  offset="0.314" style="stop-color:#4F8AD6"/>
					<stop  offset="0.9954" style="stop-color:#5290C7"/>
				</linearGradient>
				<path class="st10" d="M30,23.5c-0.8,1.5-2.2,2.6-3.8,3.1c-1.6,0.5-3.4,0.3-4.9-0.5c-1.5-0.9-2.6-2.3-3.1-3.9s-0.3-3.3,0.6-4.8
					c0.8-1.5,2.2-2.6,3.8-3.1c1.6-0.5,3.4-0.3,4.9,0.5s2.6,2.2,3.1,3.9C31,20.3,30.8,22,30,23.5z"/>
				
					<radialGradient id="SVGID_2_" cx="-2973.5271" cy="7401.3867" r="7.0994" gradientTransform="matrix(0.4645 -0.8433 0.8433 0.4645 -4837.1826 -5924.8242)" gradientUnits="userSpaceOnUse">
					<stop  offset="4.566210e-03" style="stop-color:#96C1FF"/>
					<stop  offset="0.3687" style="stop-color:#7CAEE9"/>
					<stop  offset="0.8584" style="stop-color:#5290C7"/>
					<stop  offset="1" style="stop-color:#87ABDE"/>
				</radialGradient>
				<path class="st11" d="M18.9,17.4c-1.7,3.1-0.6,7,2.4,8.6c3,1.7,6.9,0.5,8.6-2.6s0.6-7-2.4-8.6C24.4,13.2,20.6,14.3,18.9,17.4z"
					/>
				
					<radialGradient id="SVGID_3_" cx="-2975.3291" cy="7399.1997" r="5.2358" gradientTransform="matrix(0.4645 -0.8433 0.8433 0.4645 -4837.1826 -5924.8242)" gradientUnits="userSpaceOnUse">
					<stop  offset="4.566210e-03" style="stop-color:#FFFFFF"/>
					<stop  offset="0.1879" style="stop-color:#E4EEF6"/>
					<stop  offset="0.5816" style="stop-color:#A0C2E0"/>
					<stop  offset="1" style="stop-color:#5290C7"/>
				</radialGradient>
				<path class="st12" d="M18.9,17.4c-1.7,3.1-0.6,7,2.4,8.6c3,1.7,6.9,0.5,8.6-2.6s0.6-7-2.4-8.6C24.4,13.2,20.6,14.3,18.9,17.4z"
					/>
				
					<radialGradient id="SVGID_4_" cx="-2975.3291" cy="7399.1997" r="5.2358" gradientTransform="matrix(0.4645 -0.8433 0.8433 0.4645 -4837.1826 -5924.8242)" gradientUnits="userSpaceOnUse">
					<stop  offset="4.566210e-03" style="stop-color:#D1EEFC"/>
					<stop  offset="0.2465" style="stop-color:#B9D4ED"/>
					<stop  offset="0.7622" style="stop-color:#7D90C6"/>
					<stop  offset="1" style="stop-color:#5F6FB3"/>
				</radialGradient>
				<path class="st13" d="M18.9,17.4c-1.7,3.1-0.6,7,2.4,8.6c3,1.7,6.9,0.5,8.6-2.6s0.6-7-2.4-8.6C24.4,13.2,20.6,14.3,18.9,17.4z"
					/>
				
					<radialGradient id="SVGID_5_" cx="-3461.4805" cy="9996.1709" r="10.0098" gradientTransform="matrix(0.3982 -0.7228 0.7228 0.3982 -5820.2485 -6463.0103)" gradientUnits="userSpaceOnUse">
					<stop  offset="4.566210e-03" style="stop-color:#C9C9C9"/>
					<stop  offset="0.2044" style="stop-color:#BBC7D7"/>
					<stop  offset="0.6662" style="stop-color:#A0C3F4"/>
					<stop  offset="0.9315" style="stop-color:#96C1FF"/>
					<stop  offset="1" style="stop-color:#5F6FB3"/>
				</radialGradient>
				<path class="st14" d="M18.8,17.6c-1.5,2.6-0.2,6.1,2.8,7.8s6.7,0.9,8.1-1.8c1.5-2.6,0.2-6.1-2.8-7.8
					C23.9,14.1,20.2,14.9,18.8,17.6z"/>
				
					<linearGradient id="SVGID_6_" gradientUnits="userSpaceOnUse" x1="-2283.9087" y1="-89.6312" x2="-2275.908" y2="-89.6312" gradientTransform="matrix(0.4824 -0.8759 0.8759 0.4824 1199.7561 -1927.8788)">
					<stop  offset="0" style="stop-color:#2B3E8B"/>
					<stop  offset="1" style="stop-color:#FFFFFF"/>
				</linearGradient>
				<path class="st15" d="M19.3,17.6C19.2,17.7,19.2,17.7,19.3,17.6c1.4-2.5,4.8-3.3,7.6-1.7s4,4.9,2.5,7.5
					c-1.4,2.6-4.9,3.5-7.7,1.9c-2.4-1.3-3.6-4.1-3-6.4c-0.8,2.8,0.2,5.7,2.7,7.1c2.8,1.6,6.5,0.4,8.2-2.7c1.7-3,0.7-6.8-2.1-8.4
					C24.6,13.4,20.9,14.6,19.3,17.6z"/>
				
					<linearGradient id="SVGID_7_" gradientUnits="userSpaceOnUse" x1="-2279.8191" y1="-86.3107" x2="-2268.8152" y2="-86.3107" gradientTransform="matrix(0.4824 -0.8759 0.8759 0.4824 1199.7561 -1927.8788)">
					<stop  offset="0" style="stop-color:#FFFFFF"/>
					<stop  offset="1" style="stop-color:#2B3E8B"/>
				</linearGradient>
				<path class="st16" d="M28.3,22.4c-1.3,2.4-3.6,3.8-5.9,3.9c2.6,0.7,5.5-0.5,6.8-2.9c1.1-1.9,0.9-4.2-0.1-5.9
					C29.5,19,29.2,20.8,28.3,22.4z"/>
				
					<radialGradient id="SVGID_8_" cx="-3164.4561" cy="8347.1104" r="5.1586" gradientTransform="matrix(0.4378 -0.7949 0.7949 0.4378 -5227.1025 -6150.458)" gradientUnits="userSpaceOnUse">
					<stop  offset="4.566210e-03" style="stop-color:#FFFFFF"/>
					<stop  offset="0.1363" style="stop-color:#ECF4FF"/>
					<stop  offset="0.4962" style="stop-color:#BED8FF"/>
					<stop  offset="0.773" style="stop-color:#A1C7FF"/>
					<stop  offset="0.9315" style="stop-color:#96C1FF"/>
					<stop  offset="1" style="stop-color:#5F6FB3"/>
				</radialGradient>
				<path class="st17" d="M22.8,25.2c-2.5-1.4-3.5-4.5-2.2-7c1-1.9,3.1-2.8,5.2-2.5c-2.4-1-5.2-0.1-6.4,2.2c-1.3,2.4-0.4,5.6,2.2,7
					c0.6,0.3,1.2,0.5,1.9,0.6C23.2,25.4,23,25.3,22.8,25.2z"/>
				<path class="st1" d="M29.4,23.2L29.4,23.2c-1.3,2.3-4.6,2.9-7.4,1.4s-4-4.7-2.7-7.2c1.3-2.4,4.7-3.1,7.5-1.6
					c2.4,1.3,3.6,3.9,3.1,6.1c0.8-2.6-0.3-5.4-2.8-6.7c-2.8-1.6-6.4-0.5-7.9,2.3c-1.6,2.8-0.5,6.4,2.3,7.9
					C24.3,27.1,27.8,26,29.4,23.2z"/>
				
					<linearGradient id="SVGID_9_" gradientUnits="userSpaceOnUse" x1="-2279.6904" y1="-92.8953" x2="-2273.3062" y2="-92.8953" gradientTransform="matrix(0.4824 -0.8759 0.8759 0.4824 1199.7561 -1927.8788)">
					<stop  offset="0" style="stop-color:#FFFFFF"/>
					<stop  offset="1" style="stop-color:#231F20"/>
				</linearGradient>
				<path class="st18" d="M21.3,22.3c0.2-0.3,0.4-0.6,0.6-0.8c-1.3-1.1-2-2.6-2.1-4.1c-0.2,0.3-0.5,0.6-0.6,0.9
					c-1.2,2.2-0.5,5.1,1.6,6.9C20.6,24.2,20.8,23.2,21.3,22.3z"/>
				
					<linearGradient id="SVGID_10_" gradientUnits="userSpaceOnUse" x1="-2275.3489" y1="-85.9617" x2="-2268.0479" y2="-85.9617" gradientTransform="matrix(0.4824 -0.8759 0.8759 0.4824 1199.7561 -1927.8788)">
					<stop  offset="0" style="stop-color:#FFFFFF"/>
					<stop  offset="1" style="stop-color:#231F20"/>
				</linearGradient>
				<path class="st19" d="M27.4,19.2c-0.2,0.3-0.5,0.6-0.8,0.9c1.3,1.3,2.1,2.9,2,4.6c0.3-0.3,0.6-0.6,0.8-0.9
					c1.7-2.4,1.1-5.5-1.1-7.6C28.3,17.2,28,18.2,27.4,19.2z"/>
				
					<linearGradient id="SVGID_11_" gradientUnits="userSpaceOnUse" x1="-2279.9602" y1="-85.8206" x2="-2267.8157" y2="-85.8206" gradientTransform="matrix(0.4824 -0.8759 0.8759 0.4824 1199.7561 -1927.8788)">
					<stop  offset="0" style="stop-color:#FFFFFF"/>
					<stop  offset="1" style="stop-color:#2B3E8B"/>
				</linearGradient>
				<path class="st20" d="M29,23.1c-1.3,2.4-3.8,3.7-6.3,3.5c2.7,0.7,5.6-0.5,7.1-3.1c1.4-2.5,0.9-5.6-1.1-7.5
					C30.1,18,30.3,20.8,29,23.1z"/>
				<path class="st1" d="M19.9,18c1.4-2.5,3.9-3.8,6.4-3.6c-2.7-0.7-5.8,0.5-7.2,3.1c-1.4,2.6-0.9,5.7,1.1,7.6
					C18.8,23.2,18.6,20.4,19.9,18z"/>
			</g>
		</g>
		<g>
			<g>
				<g>
					<g>
						<g>
							<defs>
								<path id="SVGID_12_" d="M28.9,30.8c-0.4-1.7-0.7-2.9-2.3-4.2c0.3-0.6,0.8-0.9,1.4-0.9c0.7,1.5,1.4,2.9,2.3,4.2
									C30,30.5,29.5,30.8,28.9,30.8z"/>
							</defs>
							<clipPath id="SVGID_13_">
								<use xlink:href="#SVGID_12_"  style="overflow:visible;"/>
							</clipPath>
							<g class="st21">
								
									<image style="overflow:visible;enable-background:new    ;" width="5" height="7" xlink:href="../game -update -icons/33109A35B983CFDD.png"  transform="matrix(1 0 0 1 25.6554 24.6079)">
								</image>
							</g>
						</g>
					</g>
				</g>
			</g>
			<g>
				
					<radialGradient id="SVGID_14_" cx="185.5429" cy="103.5605" r="1.6103" gradientTransform="matrix(0.604 1.0972 -1.0972 0.604 29.9649 -237.8807)" gradientUnits="userSpaceOnUse">
					<stop  offset="0" style="stop-color:#FFFFFF"/>
					<stop  offset="0.1647" style="stop-color:#F6F9FC"/>
					<stop  offset="0.4349" style="stop-color:#DDE9F6"/>
					<stop  offset="0.7752" style="stop-color:#B5CEEA"/>
					<stop  offset="1" style="stop-color:#97BAE2"/>
				</radialGradient>
				<path class="st22" d="M28.8,30.9L28.8,30.9c-0.3-1.5-0.8-3.1-2.3-4.2l0,0v-0.1c0.3-0.6,0.8-0.9,1.5-1l0,0l0,0
					c0.7,1.5,1.4,2.9,2.3,4.2l0,0l0,0C30,30.5,29.5,30.8,28.8,30.9L28.8,30.9z M26.7,26.5c1.4,1.1,2,2.7,2.3,4.2
					c0.5,0,1-0.3,1.3-0.8c-0.8-1.3-1.6-2.7-2.3-4.2C27.4,25.8,27,26,26.7,26.5z"/>
			</g>
			
				<linearGradient id="SVGID_15_" gradientUnits="userSpaceOnUse" x1="2248.334" y1="-1140.194" x2="2254.5535" y2="-1140.194" gradientTransform="matrix(0.4332 0.7244 -1.6978 1.0156 -2882.7664 -444.7419)">
				<stop  offset="0" style="stop-color:#FFFFFF"/>
				<stop  offset="1" style="stop-color:#000000"/>
			</linearGradient>
			<path class="st23" d="M28.9,30.8c-0.3-1.3-0.4-2.7-2.3-4.2c0.3-0.6,0.8-0.9,1.4-0.9c0.7,1.5,1.4,2.9,2.3,4.2
				C30,30.5,29.5,30.8,28.9,30.8z"/>
		</g>
		<g>
			<g>
				<g>
					<g>
						<g>
							<defs>
								<path id="SVGID_16_" d="M34.8,31.3c1.2-0.7,2.1-1.2,2.6-2.8c0.5,0.1,0.9,0.4,1.1,0.8c-0.9,1-1.8,1.9-2.6,2.9
									C35.4,32.1,35,31.8,34.8,31.3z"/>
							</defs>
							<clipPath id="SVGID_17_">
								<use xlink:href="#SVGID_16_"  style="overflow:visible;"/>
							</clipPath>
							<g class="st24">
								
									<image style="overflow:visible;enable-background:new    ;" width="4" height="5" xlink:href="../game -update -icons/33109A35B983CFE3.png"  transform="matrix(1 0 0 1 34.6554 27.6079)">
								</image>
							</g>
						</g>
					</g>
				</g>
			</g>
			<g>
				
					<radialGradient id="SVGID_18_" cx="190.1928" cy="98.6284" r="1.424" gradientTransform="matrix(0.604 1.0972 -1.0972 0.604 29.9649 -237.8807)" gradientUnits="userSpaceOnUse">
					<stop  offset="0" style="stop-color:#FFFFFF"/>
					<stop  offset="0.1647" style="stop-color:#F6F9FC"/>
					<stop  offset="0.4349" style="stop-color:#DDE9F6"/>
					<stop  offset="0.7752" style="stop-color:#B5CEEA"/>
					<stop  offset="1" style="stop-color:#97BAE2"/>
				</radialGradient>
				<path class="st25" d="M34.8,31.3L34.8,31.3c1.1-0.6,2.2-1.4,2.6-2.8l0,0l0,0c0.5,0.1,0.9,0.4,1.1,0.9l0,0l0,0
					c-0.9,0.9-1.8,1.8-2.6,2.8l0,0l0,0C35.3,32.1,35,31.8,34.8,31.3L34.8,31.3z M37.5,28.6c-0.5,1.4-1.6,2.2-2.6,2.8
					c0.2,0.4,0.5,0.7,0.9,0.8c0.8-1,1.7-1.9,2.6-2.8C38.3,28.9,38,28.7,37.5,28.6z"/>
			</g>
			
				<linearGradient id="SVGID_19_" gradientUnits="userSpaceOnUse" x1="699.127" y1="-2029.5905" x2="704.1357" y2="-2029.5905" gradientTransform="matrix(-0.549 0.6411 -1.5027 -1.2867 -2628.0598 -3030.9805)">
				<stop  offset="0" style="stop-color:#FFFFFF"/>
				<stop  offset="1" style="stop-color:#000000"/>
			</linearGradient>
			<path class="st26" d="M34.8,31.3c0.9-0.6,2-1,2.6-2.8c0.5,0.1,0.9,0.4,1.1,0.8c-0.9,1-1.8,1.9-2.6,2.9
				C35.4,32.1,35,31.8,34.8,31.3z"/>
		</g>
		<g>
			<g>
				<g>
					<g>
						<g>
							<defs>
								<path id="SVGID_20_" d="M43.2,36.3c-1.7-0.5-2.8-0.9-4.8-0.1c-0.3-0.6-0.4-1.1-0.1-1.7c1.6,0.1,3.2,0.2,4.8,0.1
									C43.4,35.2,43.5,35.7,43.2,36.3z"/>
							</defs>
							<clipPath id="SVGID_21_">
								<use xlink:href="#SVGID_20_"  style="overflow:visible;"/>
							</clipPath>
							<g class="st27">
								
									<image style="overflow:visible;enable-background:new    ;" width="6" height="3" xlink:href="../game -update -icons/33109A35B983CFE5.png"  transform="matrix(1 0 0 1 37.6554 33.6079)">
								</image>
							</g>
						</g>
					</g>
				</g>
			</g>
			<g>
				
					<radialGradient id="SVGID_22_" cx="195.3202" cy="97.7227" r="1.818" gradientTransform="matrix(0.604 1.0972 -1.0972 0.604 29.9649 -237.8807)" gradientUnits="userSpaceOnUse">
					<stop  offset="0" style="stop-color:#FFFFFF"/>
					<stop  offset="0.1647" style="stop-color:#F6F9FC"/>
					<stop  offset="0.4349" style="stop-color:#DDE9F6"/>
					<stop  offset="0.7752" style="stop-color:#B5CEEA"/>
					<stop  offset="1" style="stop-color:#97BAE2"/>
				</radialGradient>
				<path class="st28" d="M43.2,36.4L43.2,36.4c-1.5-0.5-3.1-0.8-4.8-0.1l0,0v-0.1C38,35.6,38,35,38.3,34.4l0,0l0,0
					c1.6,0.1,3.2,0.2,4.8,0.1l0,0l0,0C43.5,35.2,43.5,35.8,43.2,36.4L43.2,36.4z M38.4,36.1c1.7-0.7,3.3-0.4,4.7,0.1
					c0.2-0.5,0.2-1-0.1-1.5c-1.6,0.1-3.1,0.1-4.7-0.1C38.1,35.1,38.2,35.6,38.4,36.1z"/>
			</g>
			
				<linearGradient id="SVGID_23_" gradientUnits="userSpaceOnUse" x1="1187.8751" y1="-386.9866" x2="1194.0642" y2="-386.9866" gradientTransform="matrix(0.8437 -2.167789e-02 5.086404e-02 1.9777 -944.4661 826.577)">
				<stop  offset="0" style="stop-color:#FFFFFF"/>
				<stop  offset="1" style="stop-color:#000000"/>
			</linearGradient>
			<path class="st29" d="M43.2,36.3c-1.3-0.4-2.5-1-4.8-0.1c-0.3-0.6-0.4-1.1-0.1-1.7c1.6,0.1,3.2,0.2,4.8,0.1
				C43.4,35.2,43.5,35.7,43.2,36.3z"/>
		</g>
		<g>
			<g>
				
					<linearGradient id="SVGID_24_" gradientUnits="userSpaceOnUse" x1="-2289.4465" y1="-78.4541" x2="-2277.1033" y2="-72.4053" gradientTransform="matrix(0.4824 -0.8759 0.8759 0.4824 1199.7561 -1927.8788)">
					<stop  offset="0" style="stop-color:#4E87DE"/>
					<stop  offset="0.314" style="stop-color:#4F8AD6"/>
					<stop  offset="0.9954" style="stop-color:#5290C7"/>
				</linearGradient>
				<path class="st30" d="M37.9,38.4c-0.8,1.4-2.1,2.4-3.6,2.9c-1.6,0.5-3.2,0.3-4.7-0.5c-1.4-0.8-2.5-2.1-2.9-3.7
					c-0.4-1.5-0.2-3.2,0.5-4.6c0.8-1.4,2.1-2.4,3.6-2.9c1.6-0.5,3.2-0.3,4.7,0.5c1.4,0.8,2.5,2.1,2.9,3.7
					C38.9,35.3,38.7,36.9,37.9,38.4z"/>
				
					<radialGradient id="SVGID_25_" cx="-2982.9988" cy="7416.416" r="6.7361" gradientTransform="matrix(0.4645 -0.8433 0.8433 0.4645 -4837.1826 -5924.8242)" gradientUnits="userSpaceOnUse">
					<stop  offset="4.566210e-03" style="stop-color:#96C1FF"/>
					<stop  offset="0.3687" style="stop-color:#7CAEE9"/>
					<stop  offset="0.8584" style="stop-color:#5290C7"/>
					<stop  offset="1" style="stop-color:#87ABDE"/>
				</radialGradient>
				<path class="st31" d="M27.4,32.5c-1.6,2.9-0.6,6.6,2.3,8.2c2.9,1.6,6.5,0.5,8.2-2.4s0.6-6.6-2.3-8.2
					C32.6,28.5,29,29.6,27.4,32.5z"/>
				
					<radialGradient id="SVGID_26_" cx="-2984.7085" cy="7414.3413" r="4.9679" gradientTransform="matrix(0.4645 -0.8433 0.8433 0.4645 -4837.1826 -5924.8242)" gradientUnits="userSpaceOnUse">
					<stop  offset="4.566210e-03" style="stop-color:#FFFFFF"/>
					<stop  offset="0.1879" style="stop-color:#E4EEF6"/>
					<stop  offset="0.5816" style="stop-color:#A0C2E0"/>
					<stop  offset="1" style="stop-color:#5290C7"/>
				</radialGradient>
				<path class="st32" d="M27.4,32.5c-1.6,2.9-0.6,6.6,2.3,8.2c2.9,1.6,6.5,0.5,8.2-2.4s0.6-6.6-2.3-8.2
					C32.6,28.5,29,29.6,27.4,32.5z"/>
				
					<radialGradient id="SVGID_27_" cx="-2984.7085" cy="7414.3413" r="4.9679" gradientTransform="matrix(0.4645 -0.8433 0.8433 0.4645 -4837.1826 -5924.8242)" gradientUnits="userSpaceOnUse">
					<stop  offset="4.566210e-03" style="stop-color:#D1EEFC"/>
					<stop  offset="0.2465" style="stop-color:#B9D4ED"/>
					<stop  offset="0.7622" style="stop-color:#7D90C6"/>
					<stop  offset="1" style="stop-color:#5F6FB3"/>
				</radialGradient>
				<path class="st33" d="M27.4,32.5c-1.6,2.9-0.6,6.6,2.3,8.2c2.9,1.6,6.5,0.5,8.2-2.4s0.6-6.6-2.3-8.2
					C32.6,28.5,29,29.6,27.4,32.5z"/>
				
					<radialGradient id="SVGID_28_" cx="-3472.7048" cy="10013.5615" r="9.4976" gradientTransform="matrix(0.3982 -0.7228 0.7228 0.3982 -5820.2485 -6463.0103)" gradientUnits="userSpaceOnUse">
					<stop  offset="4.566210e-03" style="stop-color:#C9C9C9"/>
					<stop  offset="0.2044" style="stop-color:#BBC7D7"/>
					<stop  offset="0.6662" style="stop-color:#A0C3F4"/>
					<stop  offset="0.9315" style="stop-color:#96C1FF"/>
					<stop  offset="1" style="stop-color:#5F6FB3"/>
				</radialGradient>
				<path class="st34" d="M27.3,32.7c-1.4,2.5-0.2,5.8,2.7,7.4c2.9,1.6,6.3,0.8,7.7-1.7c1.4-2.5,0.2-5.8-2.7-7.4
					C32.1,29.4,28.7,30.2,27.3,32.7z"/>
				
					<linearGradient id="SVGID_29_" gradientUnits="userSpaceOnUse" x1="-2292.5383" y1="-75.1378" x2="-2284.947" y2="-75.1378" gradientTransform="matrix(0.4824 -0.8759 0.8759 0.4824 1199.7561 -1927.8788)">
					<stop  offset="0" style="stop-color:#2B3E8B"/>
					<stop  offset="1" style="stop-color:#FFFFFF"/>
				</linearGradient>
				<path class="st35" d="M27.8,32.8C27.7,32.8,27.7,32.8,27.8,32.8c1.3-2.3,4.6-3.1,7.2-1.6c2.7,1.5,3.8,4.7,2.4,7.2
					c-1.4,2.5-4.6,3.3-7.3,1.8c-2.3-1.3-3.4-3.8-2.8-6.1c-0.8,2.6,0.2,5.4,2.5,6.7c2.7,1.5,6.2,0.3,7.8-2.5c1.6-2.9,0.7-6.4-2-7.9
					C32.8,28.7,29.4,29.9,27.8,32.8z"/>
				
					<linearGradient id="SVGID_30_" gradientUnits="userSpaceOnUse" x1="-2288.6582" y1="-72.056" x2="-2278.2124" y2="-72.056" gradientTransform="matrix(0.4824 -0.8759 0.8759 0.4824 1199.7561 -1927.8788)">
					<stop  offset="0" style="stop-color:#FFFFFF"/>
					<stop  offset="1" style="stop-color:#2B3E8B"/>
				</linearGradient>
				<path class="st36" d="M36.3,37.3c-1.2,2.2-3.4,3.6-5.6,3.7c2.5,0.6,5.2-0.4,6.5-2.8c1-1.8,0.9-3.9-0.1-5.6
					C37.4,34.1,37.2,35.8,36.3,37.3z"/>
				
					<radialGradient id="SVGID_31_" cx="-3174.5247" cy="8363.1396" r="4.8965" gradientTransform="matrix(0.4378 -0.7949 0.7949 0.4378 -5227.1025 -6150.458)" gradientUnits="userSpaceOnUse">
					<stop  offset="4.566210e-03" style="stop-color:#FFFFFF"/>
					<stop  offset="0.1363" style="stop-color:#ECF4FF"/>
					<stop  offset="0.4962" style="stop-color:#BED8FF"/>
					<stop  offset="0.773" style="stop-color:#A1C7FF"/>
					<stop  offset="0.9315" style="stop-color:#96C1FF"/>
					<stop  offset="1" style="stop-color:#5F6FB3"/>
				</radialGradient>
				<path class="st37" d="M31.1,39.9c-2.4-1.3-3.3-4.3-2.1-6.6c1-1.8,3-2.7,4.9-2.4C31.6,30,29,30.8,27.8,33
					c-1.3,2.3-0.4,5.3,2.1,6.6c0.6,0.3,1.2,0.5,1.8,0.6C31.5,40.1,31.3,40,31.1,39.9z"/>
				<path class="st1" d="M37.3,38.1C37.4,38,37.4,38,37.3,38.1c-1.2,2.2-4.4,2.8-7,1.3c-2.7-1.5-3.8-4.5-2.5-6.8s4.4-3,7.1-1.5
					c2.3,1.3,3.5,3.7,2.9,5.8c0.7-2.4-0.3-5.1-2.6-6.4c-2.7-1.5-6-0.5-7.5,2.2c-1.5,2.7-0.5,6,2.2,7.5
					C32.5,41.7,35.9,40.7,37.3,38.1z"/>
				
					<linearGradient id="SVGID_32_" gradientUnits="userSpaceOnUse" x1="-2288.5413" y1="-78.4092" x2="-2282.4839" y2="-78.4092" gradientTransform="matrix(0.4824 -0.8759 0.8759 0.4824 1199.7561 -1927.8788)">
					<stop  offset="0" style="stop-color:#FFFFFF"/>
					<stop  offset="1" style="stop-color:#231F20"/>
				</linearGradient>
				<path class="st38" d="M29.6,37.2c0.2-0.3,0.3-0.6,0.6-0.8c-1.2-1.1-1.9-2.5-2-3.9c-0.2,0.3-0.4,0.5-0.6,0.8
					c-1.2,2.1-0.5,4.8,1.5,6.6C29,39,29.2,38.1,29.6,37.2z"/>
				
					<linearGradient id="SVGID_33_" gradientUnits="userSpaceOnUse" x1="-2284.4167" y1="-71.7679" x2="-2277.4829" y2="-71.7679" gradientTransform="matrix(0.4824 -0.8759 0.8759 0.4824 1199.7561 -1927.8788)">
					<stop  offset="0" style="stop-color:#FFFFFF"/>
					<stop  offset="1" style="stop-color:#231F20"/>
				</linearGradient>
				<path class="st39" d="M35.4,34.2c-0.2,0.3-0.5,0.6-0.7,0.8c1.3,1.2,1.9,2.8,1.9,4.3c0.3-0.3,0.6-0.6,0.8-0.9
					c1.6-2.2,1.1-5.2-1-7.2C36.4,32.3,36.1,33.3,35.4,34.2z"/>
				
					<linearGradient id="SVGID_34_" gradientUnits="userSpaceOnUse" x1="-2288.792" y1="-71.585" x2="-2277.2688" y2="-71.585" gradientTransform="matrix(0.4824 -0.8759 0.8759 0.4824 1199.7561 -1927.8788)">
					<stop  offset="0" style="stop-color:#FFFFFF"/>
					<stop  offset="1" style="stop-color:#2B3E8B"/>
				</linearGradient>
				<path class="st40" d="M37,38c-1.3,2.3-3.6,3.5-6,3.3c2.6,0.7,5.4-0.5,6.7-2.9s0.8-5.3-1-7.1C38.1,33.1,38.3,35.7,37,38z"/>
				<path class="st1" d="M28.4,33.1c1.3-2.3,3.7-3.6,6.1-3.4c-2.6-0.7-5.5,0.5-6.8,3c-1.3,2.4-0.8,5.4,1,7.2
					C27.3,38.1,27.1,35.4,28.4,33.1z"/>
			</g>
		</g>
		<g>
			<g>
				<g>
					<g>
						<g>
							<defs>
								<path id="SVGID_35_" d="M30.2,40.7c-1.1,1-1.9,1.7-2.1,3.4c-0.6,0-1-0.2-1.2-0.7c0.8-1.1,1.5-2.2,2.1-3.4
									C29.5,40,29.9,40.3,30.2,40.7z"/>
							</defs>
							<clipPath id="SVGID_36_">
								<use xlink:href="#SVGID_35_"  style="overflow:visible;"/>
							</clipPath>
							<g class="st41">
								
									<image style="overflow:visible;enable-background:new    ;" width="5" height="5" xlink:href="../game -update -icons/33109A35B983CFE7.png"  transform="matrix(1 0 0 1 25.6554 39.6079)">
								</image>
							</g>
						</g>
					</g>
				</g>
			</g>
			<g>
				
					<radialGradient id="SVGID_37_" cx="195.243" cy="108.873" r="1.5582" gradientTransform="matrix(0.604 1.0972 -1.0972 0.604 29.9649 -237.8807)" gradientUnits="userSpaceOnUse">
					<stop  offset="0" style="stop-color:#FFFFFF"/>
					<stop  offset="0.1647" style="stop-color:#F6F9FC"/>
					<stop  offset="0.4349" style="stop-color:#DDE9F6"/>
					<stop  offset="0.7752" style="stop-color:#B5CEEA"/>
					<stop  offset="1" style="stop-color:#97BAE2"/>
				</radialGradient>
				<path class="st42" d="M30.3,40.7L30.3,40.7c-1,0.9-2,1.9-2.2,3.4l0,0H28c-0.6,0-1-0.2-1.3-0.7l0,0l0,0c0.8-1.1,1.5-2.2,2.1-3.4
					l0,0l0,0C29.5,40,29.9,40.2,30.3,40.7L30.3,40.7z M28,44.1c0.2-1.5,1.2-2.6,2.1-3.4c-0.3-0.4-0.6-0.6-1.1-0.6
					c-0.6,1.2-1.3,2.3-2.1,3.4C27.1,43.9,27.5,44,28,44.1z"/>
			</g>
			
				<linearGradient id="SVGID_38_" gradientUnits="userSpaceOnUse" x1="-1067.7869" y1="-144.0736" x2="-1062.5532" y2="-144.0736" gradientTransform="matrix(0.4188 -0.7328 1.7176 0.9817 722.0428 -597.0255)">
				<stop  offset="0" style="stop-color:#FFFFFF"/>
				<stop  offset="1" style="stop-color:#000000"/>
			</linearGradient>
			<path class="st43" d="M30.2,40.7c-0.8,0.8-1.8,1.4-2.1,3.4c-0.6,0-1-0.2-1.2-0.7c0.8-1.1,1.5-2.2,2.1-3.4
				C29.5,40,29.9,40.3,30.2,40.7z"/>
		</g>
		<g>
			<g>
				
					<linearGradient id="SVGID_39_" gradientUnits="userSpaceOnUse" x1="-2305.1067" y1="-78.8408" x2="-2292.7964" y2="-72.808" gradientTransform="matrix(0.4824 -0.8759 0.8759 0.4824 1199.7561 -1927.8788)">
					<stop  offset="0" style="stop-color:#4E87DE"/>
					<stop  offset="0.314" style="stop-color:#4F8AD6"/>
					<stop  offset="0.9954" style="stop-color:#5290C7"/>
				</linearGradient>
				<path class="st44" d="M30,51.9c-0.8,1.4-2.1,2.4-3.6,2.9c-1.6,0.5-3.2,0.3-4.6-0.5s-2.5-2.1-2.9-3.7c-0.4-1.5-0.2-3.2,0.5-4.6
					c0.8-1.4,2.1-2.4,3.6-2.9c1.6-0.5,3.2-0.3,4.6,0.5s2.5,2.1,2.9,3.7C31,48.8,30.8,50.5,30,51.9z"/>
				
					<radialGradient id="SVGID_40_" cx="-2999.2664" cy="7415.9795" r="6.7182" gradientTransform="matrix(0.4645 -0.8433 0.8433 0.4645 -4837.1826 -5924.8242)" gradientUnits="userSpaceOnUse">
					<stop  offset="4.566210e-03" style="stop-color:#96C1FF"/>
					<stop  offset="0.3687" style="stop-color:#7CAEE9"/>
					<stop  offset="0.8584" style="stop-color:#5290C7"/>
					<stop  offset="1" style="stop-color:#87ABDE"/>
				</radialGradient>
				<path class="st45" d="M19.5,46.1c-1.6,2.9-0.6,6.6,2.3,8.2c2.9,1.6,6.5,0.5,8.1-2.4s0.6-6.6-2.3-8.2
					C24.7,42.1,21.1,43.1,19.5,46.1z"/>
				
					<radialGradient id="SVGID_41_" cx="-3000.9717" cy="7413.9102" r="4.9547" gradientTransform="matrix(0.4645 -0.8433 0.8433 0.4645 -4837.1826 -5924.8242)" gradientUnits="userSpaceOnUse">
					<stop  offset="4.566210e-03" style="stop-color:#FFFFFF"/>
					<stop  offset="0.1879" style="stop-color:#E4EEF6"/>
					<stop  offset="0.5816" style="stop-color:#A0C2E0"/>
					<stop  offset="1" style="stop-color:#5290C7"/>
				</radialGradient>
				<path class="st46" d="M19.5,46.1c-1.6,2.9-0.6,6.6,2.3,8.2c2.9,1.6,6.5,0.5,8.1-2.4s0.6-6.6-2.3-8.2
					C24.7,42.1,21.1,43.1,19.5,46.1z"/>
				
					<radialGradient id="SVGID_42_" cx="-3000.9717" cy="7413.9102" r="4.9547" gradientTransform="matrix(0.4645 -0.8433 0.8433 0.4645 -4837.1826 -5924.8242)" gradientUnits="userSpaceOnUse">
					<stop  offset="4.566210e-03" style="stop-color:#D1EEFC"/>
					<stop  offset="0.2465" style="stop-color:#B9D4ED"/>
					<stop  offset="0.7622" style="stop-color:#7D90C6"/>
					<stop  offset="1" style="stop-color:#5F6FB3"/>
				</radialGradient>
				<path class="st47" d="M19.5,46.1c-1.6,2.9-0.6,6.6,2.3,8.2c2.9,1.6,6.5,0.5,8.1-2.4s0.6-6.6-2.3-8.2
					C24.7,42.1,21.1,43.1,19.5,46.1z"/>
				
					<radialGradient id="SVGID_43_" cx="-3491.6926" cy="10013.0469" r="9.4724" gradientTransform="matrix(0.3982 -0.7228 0.7228 0.3982 -5820.2485 -6463.0103)" gradientUnits="userSpaceOnUse">
					<stop  offset="4.566210e-03" style="stop-color:#C9C9C9"/>
					<stop  offset="0.2044" style="stop-color:#BBC7D7"/>
					<stop  offset="0.6662" style="stop-color:#A0C3F4"/>
					<stop  offset="0.9315" style="stop-color:#96C1FF"/>
					<stop  offset="1" style="stop-color:#5F6FB3"/>
				</radialGradient>
				<path class="st48" d="M19.4,46.2c-1.4,2.5-0.2,5.8,2.7,7.4c2.9,1.6,6.3,0.8,7.7-1.7s0.2-5.8-2.7-7.4
					C24.2,43,20.7,43.7,19.4,46.2z"/>
				
					<linearGradient id="SVGID_44_" gradientUnits="userSpaceOnUse" x1="-2308.1772" y1="-75.6239" x2="-2300.606" y2="-75.6239" gradientTransform="matrix(0.4824 -0.8759 0.8759 0.4824 1199.7561 -1927.8788)">
					<stop  offset="0" style="stop-color:#2B3E8B"/>
					<stop  offset="1" style="stop-color:#FFFFFF"/>
				</linearGradient>
				<path class="st49" d="M19.8,46.3L19.8,46.3c1.3-2.3,4.6-3.1,7.2-1.6c2.7,1.5,3.7,4.7,2.4,7.1c-1.4,2.5-4.6,3.3-7.3,1.8
					c-2.3-1.3-3.4-3.8-2.8-6.1c-0.8,2.6,0.2,5.4,2.5,6.7c2.7,1.5,6.2,0.3,7.8-2.5c1.6-2.9,0.7-6.4-2-7.9
					C24.9,42.3,21.4,43.4,19.8,46.3z"/>
				
					<linearGradient id="SVGID_45_" gradientUnits="userSpaceOnUse" x1="-2304.3074" y1="-72.4633" x2="-2293.894" y2="-72.4633" gradientTransform="matrix(0.4824 -0.8759 0.8759 0.4824 1199.7561 -1927.8788)">
					<stop  offset="0" style="stop-color:#FFFFFF"/>
					<stop  offset="1" style="stop-color:#2B3E8B"/>
				</linearGradient>
				<path class="st50" d="M28.4,50.8c-1.2,2.2-3.4,3.6-5.6,3.7c2.5,0.6,5.2-0.4,6.5-2.8c1-1.8,0.9-3.9-0.1-5.6
					C29.5,47.6,29.2,49.3,28.4,50.8z"/>
				
					<radialGradient id="SVGID_46_" cx="-3191.7847" cy="8362.6787" r="4.8816" gradientTransform="matrix(0.4378 -0.7949 0.7949 0.4378 -5227.1025 -6150.458)" gradientUnits="userSpaceOnUse">
					<stop  offset="4.566210e-03" style="stop-color:#FFFFFF"/>
					<stop  offset="0.1363" style="stop-color:#ECF4FF"/>
					<stop  offset="0.4962" style="stop-color:#BED8FF"/>
					<stop  offset="0.773" style="stop-color:#A1C7FF"/>
					<stop  offset="0.9315" style="stop-color:#96C1FF"/>
					<stop  offset="1" style="stop-color:#5F6FB3"/>
				</radialGradient>
				<path class="st51" d="M23.1,53.4c-2.4-1.3-3.3-4.3-2.1-6.6c1-1.8,2.9-2.7,4.9-2.4c-2.3-0.9-4.9-0.1-6.1,2.1
					c-1.3,2.3-0.4,5.3,2.1,6.6c0.6,0.3,1.2,0.5,1.8,0.6C23.5,53.6,23.3,53.5,23.1,53.4z"/>
				<path class="st1" d="M29.4,51.6C29.4,51.5,29.4,51.5,29.4,51.6c-1.2,2.1-4.4,2.8-7,1.3s-3.8-4.5-2.5-6.8s4.4-3,7.1-1.5
					c2.3,1.3,3.4,3.7,2.9,5.8c0.7-2.4-0.3-5.1-2.6-6.4c-2.7-1.5-6-0.5-7.5,2.2s-0.5,6,2.2,7.5S27.9,54.2,29.4,51.6z"/>
				
					<linearGradient id="SVGID_47_" gradientUnits="userSpaceOnUse" x1="-2304.1853" y1="-78.8406" x2="-2298.144" y2="-78.8406" gradientTransform="matrix(0.4824 -0.8759 0.8759 0.4824 1199.7561 -1927.8788)">
					<stop  offset="0" style="stop-color:#FFFFFF"/>
					<stop  offset="1" style="stop-color:#231F20"/>
				</linearGradient>
				<path class="st52" d="M21.7,50.7c0.2-0.3,0.3-0.6,0.6-0.8c-1.2-1.1-1.9-2.5-2-3.9c-0.2,0.3-0.4,0.5-0.6,0.8
					c-1.2,2.1-0.5,4.8,1.5,6.5C21.1,52.5,21.3,51.6,21.7,50.7z"/>
				
					<linearGradient id="SVGID_48_" gradientUnits="userSpaceOnUse" x1="-2300.0769" y1="-72.1751" x2="-2293.1616" y2="-72.1751" gradientTransform="matrix(0.4824 -0.8759 0.8759 0.4824 1199.7561 -1927.8788)">
					<stop  offset="0" style="stop-color:#FFFFFF"/>
					<stop  offset="1" style="stop-color:#231F20"/>
				</linearGradient>
				<path class="st53" d="M27.5,47.7c-0.2,0.3-0.5,0.6-0.7,0.8c1.3,1.2,1.9,2.8,1.9,4.3c0.3-0.3,0.6-0.6,0.8-0.9
					c1.6-2.2,1.1-5.2-1-7.2C28.4,45.8,28.1,46.8,27.5,47.7z"/>
				
					<linearGradient id="SVGID_49_" gradientUnits="userSpaceOnUse" x1="-2304.4397" y1="-71.9047" x2="-2292.9473" y2="-71.9047" gradientTransform="matrix(0.4824 -0.8759 0.8759 0.4824 1199.7561 -1927.8788)">
					<stop  offset="0" style="stop-color:#FFFFFF"/>
					<stop  offset="1" style="stop-color:#2B3E8B"/>
				</linearGradient>
				<path class="st54" d="M29.1,51.5c-1.3,2.3-3.6,3.5-5.9,3.3c2.5,0.7,5.3-0.5,6.7-2.9c1.3-2.4,0.8-5.3-1-7.1
					C30.1,46.7,30.3,49.2,29.1,51.5z"/>
				<path class="st1" d="M20.5,46.7c1.3-2.3,3.7-3.6,6-3.4c-2.6-0.7-5.4,0.5-6.8,2.9c-1.3,2.4-0.8,5.4,1,7.2
					C19.4,51.6,19.2,48.9,20.5,46.7z"/>
			</g>
		</g>
		<g>
			<g>
				
					<linearGradient id="SVGID_50_" gradientUnits="userSpaceOnUse" x1="-2276.4331" y1="-75.6089" x2="-2266.9714" y2="-70.9721" gradientTransform="matrix(0.4824 -0.8759 0.8759 0.4824 1199.7561 -1927.8788)">
					<stop  offset="0" style="stop-color:#4E87DE"/>
					<stop  offset="0.314" style="stop-color:#4F8AD6"/>
					<stop  offset="0.9954" style="stop-color:#5290C7"/>
				</linearGradient>
				<path class="st55" d="M44.1,28.6c-0.6,1.1-1.6,1.9-2.8,2.2c-1.2,0.4-2.5,0.2-3.6-0.4s-1.9-1.6-2.2-2.8c-0.3-1.2-0.2-2.4,0.4-3.5
					c0.6-1.1,1.6-1.9,2.8-2.2c1.2-0.4,2.5-0.2,3.6,0.4s1.9,1.6,2.2,2.8C44.8,26.3,44.7,27.6,44.1,28.6z"/>
				
					<radialGradient id="SVGID_51_" cx="-2970.9453" cy="7418.7593" r="5.1637" gradientTransform="matrix(0.4645 -0.8433 0.8433 0.4645 -4837.1826 -5924.8242)" gradientUnits="userSpaceOnUse">
					<stop  offset="4.566210e-03" style="stop-color:#96C1FF"/>
					<stop  offset="0.3687" style="stop-color:#7CAEE9"/>
					<stop  offset="0.8584" style="stop-color:#5290C7"/>
					<stop  offset="1" style="stop-color:#87ABDE"/>
				</radialGradient>
				<path class="st56" d="M36,24.2c-1.2,2.2-0.4,5.1,1.8,6.3c2.2,1.2,5,0.4,6.3-1.9c1.2-2.2,0.4-5.1-1.8-6.3
					C40,21.1,37.2,21.9,36,24.2z"/>
				
					<radialGradient id="SVGID_52_" cx="-2972.2561" cy="7417.1685" r="3.8082" gradientTransform="matrix(0.4645 -0.8433 0.8433 0.4645 -4837.1826 -5924.8242)" gradientUnits="userSpaceOnUse">
					<stop  offset="4.566210e-03" style="stop-color:#FFFFFF"/>
					<stop  offset="0.1879" style="stop-color:#E4EEF6"/>
					<stop  offset="0.5816" style="stop-color:#A0C2E0"/>
					<stop  offset="1" style="stop-color:#5290C7"/>
				</radialGradient>
				<path class="st57" d="M36,24.2c-1.2,2.2-0.4,5.1,1.8,6.3c2.2,1.2,5,0.4,6.3-1.9c1.2-2.2,0.4-5.1-1.8-6.3
					C40,21.1,37.2,21.9,36,24.2z"/>
				
					<radialGradient id="SVGID_53_" cx="-2972.2561" cy="7417.1685" r="3.8082" gradientTransform="matrix(0.4645 -0.8433 0.8433 0.4645 -4837.1826 -5924.8242)" gradientUnits="userSpaceOnUse">
					<stop  offset="4.566210e-03" style="stop-color:#D1EEFC"/>
					<stop  offset="0.2465" style="stop-color:#B9D4ED"/>
					<stop  offset="0.7622" style="stop-color:#7D90C6"/>
					<stop  offset="1" style="stop-color:#5F6FB3"/>
				</radialGradient>
				<path class="st58" d="M36,24.2c-1.2,2.2-0.4,5.1,1.8,6.3c2.2,1.2,5,0.4,6.3-1.9c1.2-2.2,0.4-5.1-1.8-6.3
					C40,21.1,37.2,21.9,36,24.2z"/>
				
					<radialGradient id="SVGID_54_" cx="-3459.4011" cy="10015.668" r="7.2806" gradientTransform="matrix(0.3982 -0.7228 0.7228 0.3982 -5820.2485 -6463.0103)" gradientUnits="userSpaceOnUse">
					<stop  offset="4.566210e-03" style="stop-color:#C9C9C9"/>
					<stop  offset="0.2044" style="stop-color:#BBC7D7"/>
					<stop  offset="0.6662" style="stop-color:#A0C3F4"/>
					<stop  offset="0.9315" style="stop-color:#96C1FF"/>
					<stop  offset="1" style="stop-color:#5F6FB3"/>
				</radialGradient>
				<path class="st59" d="M35.9,24.3c-1.1,1.9-0.1,4.5,2.1,5.7c2.2,1.2,4.8,0.6,5.9-1.3c1.1-1.9,0.1-4.5-2.1-5.7
					C39.6,21.8,37,22.4,35.9,24.3z"/>
				
					<linearGradient id="SVGID_55_" gradientUnits="userSpaceOnUse" x1="-2278.8115" y1="-73.0809" x2="-2272.9922" y2="-73.0809" gradientTransform="matrix(0.4824 -0.8759 0.8759 0.4824 1199.7561 -1927.8788)">
					<stop  offset="0" style="stop-color:#2B3E8B"/>
					<stop  offset="1" style="stop-color:#FFFFFF"/>
				</linearGradient>
				<path class="st60" d="M36.3,24.3C36.3,24.4,36.3,24.4,36.3,24.3c1-1.8,3.5-2.4,5.6-1.3s2.9,3.6,1.8,5.5c-1,1.9-3.6,2.5-5.6,1.4
					c-1.8-1-2.6-2.9-2.2-4.7c-0.6,2,0.1,4.2,1.9,5.2c2.1,1.1,4.7,0.3,6-1.9c1.2-2.2,0.5-4.9-1.5-6.1C40.2,21.3,37.5,22.1,36.3,24.3z
					"/>
				
					<linearGradient id="SVGID_56_" gradientUnits="userSpaceOnUse" x1="-2275.8369" y1="-70.6411" x2="-2267.8333" y2="-70.6411" gradientTransform="matrix(0.4824 -0.8759 0.8759 0.4824 1199.7561 -1927.8788)">
					<stop  offset="0" style="stop-color:#FFFFFF"/>
					<stop  offset="1" style="stop-color:#2B3E8B"/>
				</linearGradient>
				<path class="st61" d="M42.9,27.8c-0.9,1.7-2.6,2.7-4.3,2.8c1.9,0.5,4-0.3,5-2.1c0.8-1.4,0.7-3-0.1-4.3
					C43.7,25.4,43.5,26.7,42.9,27.8z"/>
				
					<radialGradient id="SVGID_57_" cx="-3161.8267" cy="8365.9658" r="3.7496" gradientTransform="matrix(0.4378 -0.7949 0.7949 0.4378 -5227.1025 -6150.458)" gradientUnits="userSpaceOnUse">
					<stop  offset="4.566210e-03" style="stop-color:#FFFFFF"/>
					<stop  offset="0.1363" style="stop-color:#ECF4FF"/>
					<stop  offset="0.4962" style="stop-color:#BED8FF"/>
					<stop  offset="0.773" style="stop-color:#A1C7FF"/>
					<stop  offset="0.9315" style="stop-color:#96C1FF"/>
					<stop  offset="1" style="stop-color:#5F6FB3"/>
				</radialGradient>
				<path class="st62" d="M38.8,29.8c-1.9-1-2.6-3.3-1.6-5.1c0.7-1.4,2.3-2,3.8-1.8c-1.8-0.7-3.8-0.1-4.7,1.6c-1,1.8-0.3,4,1.6,5.1
					c0.4,0.2,0.9,0.4,1.4,0.5C39.1,30,39,29.9,38.8,29.8z"/>
				<path class="st1" d="M43.6,28.4L43.6,28.4c-1,1.7-3.4,2.1-5.4,1s-2.9-3.5-1.9-5.2c1-1.8,3.4-2.3,5.4-1.1c1.8,1,2.6,2.8,2.2,4.5
					c0.5-1.9-0.3-3.9-2-4.9c-2-1.1-4.6-0.4-5.8,1.7c-1.1,2-0.4,4.6,1.7,5.8C39.9,31.2,42.5,30.5,43.6,28.4z"/>
				
					<linearGradient id="SVGID_58_" gradientUnits="userSpaceOnUse" x1="-2275.7434" y1="-75.6251" x2="-2271.0999" y2="-75.6251" gradientTransform="matrix(0.4824 -0.8759 0.8759 0.4824 1199.7561 -1927.8788)">
					<stop  offset="0" style="stop-color:#FFFFFF"/>
					<stop  offset="1" style="stop-color:#231F20"/>
				</linearGradient>
				<path class="st63" d="M37.7,27.8c0.1-0.2,0.3-0.4,0.4-0.6c-0.9-0.8-1.5-1.9-1.5-3c-0.2,0.2-0.3,0.4-0.5,0.6
					c-0.9,1.6-0.4,3.7,1.1,5C37.2,29.1,37.4,28.4,37.7,27.8z"/>
				
					<linearGradient id="SVGID_59_" gradientUnits="userSpaceOnUse" x1="-2272.5894" y1="-70.439" x2="-2267.2742" y2="-70.439" gradientTransform="matrix(0.4824 -0.8759 0.8759 0.4824 1199.7561 -1927.8788)">
					<stop  offset="0" style="stop-color:#FFFFFF"/>
					<stop  offset="1" style="stop-color:#231F20"/>
				</linearGradient>
				<path class="st64" d="M42.2,25.5c-0.2,0.2-0.4,0.4-0.6,0.6c1,0.9,1.5,2.1,1.5,3.3c0.2-0.2,0.4-0.4,0.6-0.7
					c1.2-1.7,0.8-4-0.8-5.5C42.9,24,42.7,24.8,42.2,25.5z"/>
				
					<linearGradient id="SVGID_60_" gradientUnits="userSpaceOnUse" x1="-2275.9395" y1="-70.3014" x2="-2267.1064" y2="-70.3014" gradientTransform="matrix(0.4824 -0.8759 0.8759 0.4824 1199.7561 -1927.8788)">
					<stop  offset="0" style="stop-color:#FFFFFF"/>
					<stop  offset="1" style="stop-color:#2B3E8B"/>
				</linearGradient>
				<path class="st65" d="M43.4,28.3c-1,1.8-2.8,2.7-4.6,2.6c2,0.5,4.1-0.3,5.1-2.2c1-1.8,0.6-4.1-0.8-5.5
					C44.2,24.6,44.3,26.6,43.4,28.3z"/>
				<path class="st1" d="M36.8,24.6c1-1.8,2.8-2.8,4.6-2.6c-2-0.5-4.2,0.4-5.2,2.3s-0.7,4.1,0.8,5.6C35.9,28.4,35.8,26.4,36.8,24.6z
					"/>
			</g>
		</g>
		<g>
			<g>
				
					<linearGradient id="SVGID_61_" gradientUnits="userSpaceOnUse" x1="-2282.0332" y1="-63.7754" x2="-2268.1184" y2="-56.9563" gradientTransform="matrix(0.4824 -0.8759 0.8759 0.4824 1199.7561 -1927.8788)">
					<stop  offset="0" style="stop-color:#4E87DE"/>
					<stop  offset="0.314" style="stop-color:#4F8AD6"/>
					<stop  offset="0.9954" style="stop-color:#5290C7"/>
				</linearGradient>
				<path class="st66" d="M55.8,38.8c-0.9,1.6-2.3,2.8-4.1,3.3s-3.6,0.3-5.3-0.6c-1.6-0.9-2.8-2.4-3.3-4.1c-0.5-1.7-0.3-3.6,0.6-5.2
					c0.9-1.6,2.3-2.8,4.1-3.3s3.6-0.3,5.3,0.6c1.6,0.9,2.8,2.4,3.3,4.1C56.9,35.4,56.7,37.2,55.8,38.8z"/>
				
					<radialGradient id="SVGID_62_" cx="-2974.5222" cy="7432.0381" r="7.5938" gradientTransform="matrix(0.4645 -0.8433 0.8433 0.4645 -4837.1826 -5924.8242)" gradientUnits="userSpaceOnUse">
					<stop  offset="4.566210e-03" style="stop-color:#96C1FF"/>
					<stop  offset="0.3687" style="stop-color:#7CAEE9"/>
					<stop  offset="0.8584" style="stop-color:#5290C7"/>
					<stop  offset="1" style="stop-color:#87ABDE"/>
				</radialGradient>
				<path class="st67" d="M43.9,32.3c-1.8,3.3-0.7,7.4,2.6,9.2s7.4,0.6,9.2-2.7s0.7-7.4-2.6-9.2C49.9,27.7,45.7,29,43.9,32.3z"/>
				
					<radialGradient id="SVGID_63_" cx="-2976.4497" cy="7429.6992" r="5.6004" gradientTransform="matrix(0.4645 -0.8433 0.8433 0.4645 -4837.1826 -5924.8242)" gradientUnits="userSpaceOnUse">
					<stop  offset="4.566210e-03" style="stop-color:#FFFFFF"/>
					<stop  offset="0.1879" style="stop-color:#E4EEF6"/>
					<stop  offset="0.5816" style="stop-color:#A0C2E0"/>
					<stop  offset="1" style="stop-color:#5290C7"/>
				</radialGradient>
				<path class="st68" d="M43.9,32.3c-1.8,3.3-0.7,7.4,2.6,9.2s7.4,0.6,9.2-2.7s0.7-7.4-2.6-9.2C49.9,27.7,45.7,29,43.9,32.3z"/>
				
					<radialGradient id="SVGID_64_" cx="-2976.4497" cy="7429.6992" r="5.6004" gradientTransform="matrix(0.4645 -0.8433 0.8433 0.4645 -4837.1826 -5924.8242)" gradientUnits="userSpaceOnUse">
					<stop  offset="4.566210e-03" style="stop-color:#D1EEFC"/>
					<stop  offset="0.2465" style="stop-color:#B9D4ED"/>
					<stop  offset="0.7622" style="stop-color:#7D90C6"/>
					<stop  offset="1" style="stop-color:#5F6FB3"/>
				</radialGradient>
				<path class="st69" d="M43.9,32.3c-1.8,3.3-0.7,7.4,2.6,9.2s7.4,0.6,9.2-2.7s0.7-7.4-2.6-9.2C49.9,27.7,45.7,29,43.9,32.3z"/>
				
					<radialGradient id="SVGID_65_" cx="-3462.3999" cy="10032.1289" r="10.7069" gradientTransform="matrix(0.3982 -0.7228 0.7228 0.3982 -5820.2485 -6463.0103)" gradientUnits="userSpaceOnUse">
					<stop  offset="4.566210e-03" style="stop-color:#C9C9C9"/>
					<stop  offset="0.2044" style="stop-color:#BBC7D7"/>
					<stop  offset="0.6662" style="stop-color:#A0C3F4"/>
					<stop  offset="0.9315" style="stop-color:#96C1FF"/>
					<stop  offset="1" style="stop-color:#5F6FB3"/>
				</radialGradient>
				<path class="st70" d="M43.8,32.4c-1.6,2.8-0.2,6.6,3,8.4s7.1,0.9,8.7-1.9c1.6-2.8,0.2-6.6-3-8.4C49.3,28.8,45.4,29.6,43.8,32.4z
					"/>
				
					<linearGradient id="SVGID_66_" gradientUnits="userSpaceOnUse" x1="-2285.5347" y1="-60.0822" x2="-2276.9768" y2="-60.0822" gradientTransform="matrix(0.4824 -0.8759 0.8759 0.4824 1199.7561 -1927.8788)">
					<stop  offset="0" style="stop-color:#2B3E8B"/>
					<stop  offset="1" style="stop-color:#FFFFFF"/>
				</linearGradient>
				<path class="st71" d="M44.4,32.5C44.3,32.5,44.3,32.6,44.4,32.5c1.5-2.6,5.2-3.5,8.2-1.9c3,1.7,4.2,5.3,2.7,8.1s-5.2,3.7-8.3,2
					c-2.6-1.4-3.9-4.3-3.2-6.9c-0.9,2.9,0.2,6.1,2.8,7.6c3,1.7,7,0.4,8.8-2.9c1.8-3.3,0.8-7.3-2.3-8.9C50.1,28,46.1,29.2,44.4,32.5z
					"/>
				
					<linearGradient id="SVGID_67_" gradientUnits="userSpaceOnUse" x1="-2281.1604" y1="-56.5487" x2="-2269.3899" y2="-56.5487" gradientTransform="matrix(0.4824 -0.8759 0.8759 0.4824 1199.7561 -1927.8788)">
					<stop  offset="0" style="stop-color:#FFFFFF"/>
					<stop  offset="1" style="stop-color:#2B3E8B"/>
				</linearGradient>
				<path class="st72" d="M54,37.6c-1.4,2.5-3.8,4-6.3,4.1c2.8,0.7,5.8-0.5,7.3-3.1c1.1-2.1,1-4.5-0.1-6.4C55.3,34,55,35.9,54,37.6z
					"/>
				
					<radialGradient id="SVGID_68_" cx="-3165.4819" cy="8379.5195" r="5.5178" gradientTransform="matrix(0.4378 -0.7949 0.7949 0.4378 -5227.1025 -6150.458)" gradientUnits="userSpaceOnUse">
					<stop  offset="4.566210e-03" style="stop-color:#FFFFFF"/>
					<stop  offset="0.1363" style="stop-color:#ECF4FF"/>
					<stop  offset="0.4962" style="stop-color:#BED8FF"/>
					<stop  offset="0.773" style="stop-color:#A1C7FF"/>
					<stop  offset="0.9315" style="stop-color:#96C1FF"/>
					<stop  offset="1" style="stop-color:#5F6FB3"/>
				</radialGradient>
				<path class="st73" d="M48.1,40.6c-2.7-1.5-3.8-4.8-2.3-7.5c1.1-2,3.3-3,5.5-2.7c-2.6-1-5.6-0.1-6.9,2.3c-1.4,2.6-0.4,6,2.3,7.5
					c0.6,0.4,1.3,0.6,2,0.7C48.5,40.8,48.3,40.7,48.1,40.6z"/>
				<path class="st1" d="M55.2,38.5C55.2,38.4,55.2,38.4,55.2,38.5c-1.4,2.4-4.9,3.2-7.9,1.5c-3-1.6-4.3-5.1-2.8-7.7
					c1.4-2.6,5-3.3,8-1.7c2.6,1.4,3.9,4.2,3.3,6.6c0.8-2.7-0.4-5.8-3-7.2c-3-1.7-6.8-0.6-8.5,2.5c-1.7,3-0.6,6.8,2.5,8.5
					C49.7,42.6,53.5,41.5,55.2,38.5z"/>
				
					<linearGradient id="SVGID_69_" gradientUnits="userSpaceOnUse" x1="-2281.0225" y1="-63.7253" x2="-2274.1938" y2="-63.7253" gradientTransform="matrix(0.4824 -0.8759 0.8759 0.4824 1199.7561 -1927.8788)">
					<stop  offset="0" style="stop-color:#FFFFFF"/>
					<stop  offset="1" style="stop-color:#231F20"/>
				</linearGradient>
				<path class="st74" d="M46.5,37.5c0.2-0.3,0.4-0.6,0.6-0.9c-1.3-1.2-2.1-2.8-2.3-4.4c-0.3,0.3-0.5,0.6-0.7,1
					c-1.3,2.4-0.5,5.4,1.7,7.4C45.8,39.5,46,38.5,46.5,37.5z"/>
				
					<linearGradient id="SVGID_70_" gradientUnits="userSpaceOnUse" x1="-2276.3787" y1="-56.1505" x2="-2268.562" y2="-56.1505" gradientTransform="matrix(0.4824 -0.8759 0.8759 0.4824 1199.7561 -1927.8788)">
					<stop  offset="0" style="stop-color:#FFFFFF"/>
					<stop  offset="1" style="stop-color:#231F20"/>
				</linearGradient>
				<path class="st75" d="M53,34.1c-0.2,0.3-0.5,0.7-0.8,0.9c1.4,1.4,2.2,3.1,2.2,4.9c0.3-0.3,0.6-0.6,0.9-1
					c1.8-2.5,1.2-5.9-1.2-8.1C54.1,32,53.7,33.1,53,34.1z"/>
				
					<linearGradient id="SVGID_71_" gradientUnits="userSpaceOnUse" x1="-2281.3113" y1="-55.8739" x2="-2268.3208" y2="-55.8739" gradientTransform="matrix(0.4824 -0.8759 0.8759 0.4824 1199.7561 -1927.8788)">
					<stop  offset="0" style="stop-color:#FFFFFF"/>
					<stop  offset="1" style="stop-color:#2B3E8B"/>
				</linearGradient>
				<path class="st76" d="M54.8,38.4c-1.4,2.6-4.1,4-6.7,3.8c2.9,0.8,6-0.5,7.6-3.3c1.5-2.7,0.9-6-1.1-8
					C56,32.9,56.2,35.9,54.8,38.4z"/>
				<path class="st1" d="M45.1,32.9c1.4-2.6,4.2-4.1,6.8-3.8c-2.9-0.8-6.2,0.5-7.7,3.3s-1,6.1,1.2,8.2
					C43.9,38.5,43.7,35.5,45.1,32.9z"/>
			</g>
		</g>
	</g>
</g>
</svg>
