<?xml version="1.0" encoding="utf-8"?>
<!-- Generator: Adobe Illustrator 24.0.1, SVG Export Plug-In . SVG Version: 6.00 Build 0)  -->
<svg version="1.1" id="Layer_1" xmlns="http://www.w3.org/2000/svg" xmlns:xlink="http://www.w3.org/1999/xlink" x="0px" y="0px"
	 viewBox="0 0 81.9 77.4" style="enable-background:new 0 0 81.9 77.4;" xml:space="preserve">
<style type="text/css">
	.st0{fill:url(#Ellipse_21_1_);}
	.st1{opacity:0.5;fill:#FFFFFF;enable-background:new    ;}
	.st2{opacity:0.3;fill:#C088FF;enable-background:new    ;}
	.st3{fill:#7B704F;}
	.st4{fill:url(#Path_8108_1_);}
	.st5{fill:#FFF4C5;}
	.st6{fill:#4A2300;}
	.st7{fill:#FFFFFF;}
	.st8{fill:#536EA8;}
	.st9{fill:#536EAA;}
	.st10{fill:url(#Path_8111_1_);}
	.st11{fill:url(#Ellipse_8_1_);}
	.st12{fill:url(#Ellipse_9_1_);}
	.st13{fill:url(#Path_5086_1_);}
	.st14{fill:url(#Ellipse_10_1_);}
	.st15{fill:url(#Path_8112_1_);}
	.st16{fill:url(#Ellipse_12_1_);}
	.st17{fill:url(#Path_8113_1_);}
	.st18{fill:#8AD1FC;}
	.st19{font-family:'LucidaGrande-Bold';}
	.st20{font-size:19px;}
</style>
<g id="Lipoic" transform="translate(0 0)">
	
		<linearGradient id="Ellipse_21_1_" gradientUnits="userSpaceOnUse" x1="-259.8209" y1="429.7525" x2="-259.8209" y2="430.7525" gradientTransform="matrix(71.756 0 0 -67.842 18684.6348 29227.8887)">
		<stop  offset="0" style="stop-color:#001555"/>
		<stop  offset="0.174" style="stop-color:#001555"/>
		<stop  offset="0.27" style="stop-color:#011D58"/>
		<stop  offset="0.422" style="stop-color:#043462"/>
		<stop  offset="0.612" style="stop-color:#0A5A72"/>
		<stop  offset="0.831" style="stop-color:#237CAA"/>
		<stop  offset="1" style="stop-color:#279BD7"/>
	</linearGradient>
	<ellipse id="Ellipse_21" class="st0" cx="40.9" cy="38.7" rx="35.9" ry="33.9"/>
	
		<image style="overflow:visible;opacity:0.1;enable-background:new    ;" width="1759" height="1217" id="Rectangle_11" xlink:href="E8BD2941B9080703.png"  transform="matrix(3.818647e-02 0 0 3.818647e-02 7 4.771)">
	</image>
	<path id="Path_8105" class="st1" d="M40.9,7.4c14.8,0,27.6,8.5,33,20.6c0.2-0.4,0.4-0.9,0.6-1.3c-5.1-12.8-18.2-22-33.6-22
		s-28.5,9.1-33.6,22c0.2,0.4,0.4,0.9,0.6,1.3C13.4,15.9,26.1,7.4,40.9,7.4z"/>
	<path id="Path_8106" class="st2" d="M40.9,69C21.7,69,6.1,54.8,5.1,36.9c0,0.6,0,1.2-0.1,1.8c0,18.7,16.1,33.9,35.9,33.9
		s35.9-15.2,35.9-33.9c0-0.6,0-1.2-0.1-1.8C75.8,54.8,60.1,69,40.9,69z"/>
	<path id="Path_8107" class="st3" d="M40.9,76.2c-21.9,0-39.7-16.8-39.7-37.5S19.1,1.2,40.9,1.2S80.6,18,80.6,38.7
		S62.8,76.2,40.9,76.2z M40.9,2.9C20.1,2.9,3.1,19,3.1,38.7s17,35.8,37.8,35.8s37.8-16.1,37.8-35.8S61.8,2.9,40.9,2.9L40.9,2.9z"/>
	
		<linearGradient id="Path_8108_1_" gradientUnits="userSpaceOnUse" x1="-260.0122" y1="430.0258" x2="-260.0122" y2="431.0258" gradientTransform="matrix(75.693 0 0 -71.569 19722.0293 30850.9824)">
		<stop  offset="0" style="stop-color:#EBC459"/>
		<stop  offset="7.500000e-02" style="stop-color:#D1BC4B"/>
		<stop  offset="0.162" style="stop-color:#DEC243"/>
		<stop  offset="0.244" style="stop-color:#D1B128"/>
		<stop  offset="0.318" style="stop-color:#E3C95D"/>
		<stop  offset="0.375" style="stop-color:#F1C40F"/>
		<stop  offset="0.53" style="stop-color:#F59325"/>
		<stop  offset="0.748" style="stop-color:#EA8C22"/>
		<stop  offset="0.911" style="stop-color:#A34201"/>
		<stop  offset="1" style="stop-color:#9C3600"/>
	</linearGradient>
	<path id="Path_8108" class="st4" d="M40.9,74.5c-20.9,0-37.8-16.1-37.8-35.8s17-35.8,37.8-35.8S78.8,19,78.8,38.7
		S61.8,74.5,40.9,74.5z M40.9,4.8C21.1,4.8,5.1,20,5.1,38.7s16.1,33.9,35.9,33.9s35.9-15.2,35.9-33.9S60.7,4.8,40.9,4.8z"/>
	<path id="Path_8109" class="st5" d="M40.9,74.8c-10,0.1-19.7-3.7-27-10.6c-14.1-13-15-35-2-49c0.6-0.7,1.3-1.4,2-2
		c15.2-14.1,38.7-14.1,54,0c14.1,13,15,35,2,49c-0.6,0.7-1.3,1.4-2,2C60.6,71.1,50.9,74.9,40.9,74.8z M40.9,3.2
		C20.2,3.2,3.4,19.1,3.4,38.7s16.8,35.5,37.5,35.5s37.5-15.9,37.5-35.5S61.6,3.2,40.9,3.2z"/>
	<path id="Path_8110" class="st6" d="M40.9,1.2c21.9,0,39.7,16.8,39.7,37.5S62.8,76.2,40.9,76.2S1.3,59.4,1.3,38.7
		S19.1,1.2,40.9,1.2 M40.9,72.6c19.8,0,35.9-15.2,35.9-33.9S60.7,4.8,40.9,4.8S5.1,20,5.1,38.7S21.1,72.6,40.9,72.6 M40.9,0
		C18.4,0,0,17.4,0,38.7s18.4,38.7,40.9,38.7S81.9,60,81.9,38.7S63.5,0,40.9,0L40.9,0z M40.9,71.4c-19.1,0-34.6-14.7-34.6-32.7
		S21.9,6,40.9,6s34.6,14.7,34.6,32.7S60,71.4,40.9,71.4L40.9,71.4z"/>
	<g id="Comp8" transform="translate(7 28.332) rotate(-17)">
		<g id="lipoic-2" transform="translate(0 0)">
			<g id="Group_928">
				<path id="Path_5075" class="st7" d="M49.3,19c-0.6-0.3-1.2-0.7-1.9-1c-0.3-0.2-0.6-0.3-0.9-0.5L45.6,17L42,14.9h0.1l-7.5,4.2
					l-0.1,0l-0.1,0l-7.5-4.2h0.1L23.5,17l-1.8,1l-0.9,0.5c-0.3,0.2-0.6,0.4-0.9,0.5l-0.1,0l-0.1,0l-7.2-4.3l7.3,4.1h-0.1
					c0.3-0.2,0.6-0.4,0.9-0.5l0.9-0.5l1.8-1l3.7-2.1l0.1,0l0.1,0l7.5,4.2h-0.1l7.5-4.2l0.1,0l0.1,0l3.6,2.1l0.9,0.5
					c0.3,0.2,0.6,0.4,0.9,0.6C48.1,18.3,48.7,18.7,49.3,19z"/>
				<g id="Group_923" transform="translate(1.866 2.234)">
					<path id="Path_5076" class="st7" d="M5.2,12.7c0.4,0,0.9,0,1.3-0.1l0.7,0c0.2,0,0.4,0,0.7,0c0.4,0,0.9,0,1.3,0h1.3l-0.1,0.1
						l2.7-7.9l0,0.1L6.3,0.2l0.1,0L5.2,1C5,1.1,4.8,1.3,4.6,1.4L3.9,1.8c-0.8,0.5-1.7,1-2.5,1.5C2.2,2.7,3,2.2,3.8,1.6l0.6-0.4
						C4.6,1.1,4.9,1,5.1,0.8l1.2-0.8l0.1,0l0.1,0l6.9,4.7l0.1,0l0,0.1l-2.7,7.9l0,0.1h-0.1H9.2c-0.4,0-0.9,0-1.3,0
						c-0.2,0-0.4,0-0.7,0l-0.7,0C6.1,12.7,5.7,12.7,5.2,12.7z"/>
					<path id="Path_5077" class="st7" d="M0,7.5c0,0,0,0,0.1,0.1c0,0,0.1,0.1,0.1,0.2l0.1,0.1c0,0,0,0.1,0,0.1l0.4,1.2l0.4,1.2
						c0,0,0,0.1,0,0.1l0,0.1c0,0.1,0,0.1,0,0.2c0,0.1,0,0.2,0,0.2s0,0-0.1-0.1c0,0-0.1-0.1-0.1-0.2L1,10.5c0,0,0-0.1,0-0.1L0.5,9.2
						L0.1,8.1c0,0,0-0.1,0-0.1l0-0.1c0-0.1,0-0.1,0-0.2C0,7.6,0,7.5,0,7.5z"/>
				</g>
				<path id="Path_5078" class="st7" d="M50.2,19.6c0,0,0,0.1,0,0.2c0,0.1,0,0.1,0,0.2l0,0.1c0,0.1,0,0.1,0,0.2v3.3
					c0,0.1,0,0.1,0,0.2l0,0.1c0,0.1,0,0.2,0,0.2c0,0.1,0,0.2,0,0.2s0-0.1,0-0.2c0-0.1,0-0.1,0-0.2l0-0.1c0-0.1,0-0.1,0-0.2v-3.3
					c0-0.1,0-0.1,0-0.2l0-0.1c0-0.1,0-0.2,0-0.2C50.2,19.7,50.2,19.6,50.2,19.6z"/>
				<path id="Path_5079" class="st7" d="M48.5,19.6c0,0,0,0.1,0,0.2c0,0.1,0,0.1,0,0.2l0,0.1c0,0.1,0,0.1,0,0.2v3.3
					c0,0.1,0,0.1,0,0.2l0,0.1c0,0.1,0,0.2,0,0.2c0,0.1,0,0.2,0,0.2s0-0.1,0-0.2c0-0.1,0-0.1,0-0.2l0-0.1c0-0.1,0-0.1,0-0.2
					c0-0.5,0-1.1,0-1.7s0-1.2,0-1.7c0-0.1,0-0.1,0-0.2l0-0.1c0-0.1,0-0.2,0-0.2C48.5,19.7,48.5,19.6,48.5,19.6z"/>
				<path id="Path_5080" class="st7" d="M53.8,16.6c0,0-0.1,0.1-0.2,0.1c-0.1,0-0.1,0.1-0.2,0.2L53.3,17c0,0-0.1,0.1-0.1,0.1
					l-1.5,0.8l-1.5,0.8c0,0-0.1,0.1-0.2,0.1l-0.1,0.1c-0.1,0-0.2,0.1-0.2,0.1c-0.1,0-0.2,0.1-0.2,0.1s0.1-0.1,0.2-0.1
					c0.1,0,0.1-0.1,0.2-0.2l0.1-0.1c0,0,0.1-0.1,0.1-0.1l1.5-0.8l1.5-0.8c0.1,0,0.1-0.1,0.1-0.1l0.1-0.1c0.1,0,0.2-0.1,0.2-0.1
					C53.7,16.6,53.8,16.6,53.8,16.6z"/>
				<path id="Path_5081" class="st8" d="M60.1,17h-0.6v-1.4l-1.5,0V17h-0.6v-3.1H58v1.2l1.5,0v-1.2h0.6L60.1,17z"/>
				<g id="Group_924" transform="translate(54.004 13.861)">
					<path id="Path_5082" class="st9" d="M3.1,1.5C3.2,2.3,2.7,2.9,2,3.1C1.3,3.2,0.7,3,0.3,2.5c-0.3-0.6-0.3-1.3,0-1.8
						c0.4-0.5,1-0.8,1.7-0.6C2.6,0.2,3.2,0.8,3.1,1.5z M2.4,1.6c0-0.4-0.2-0.8-0.5-1c-0.4-0.2-0.8,0-1.1,0.3
						C0.6,1.3,0.6,1.7,0.8,2.1c0.2,0.4,0.6,0.6,1,0.5C2.2,2.5,2.5,2,2.4,1.6L2.4,1.6z"/>
				</g>
				<g id="Group_925" transform="translate(47.815 24.519)">
					<path id="Path_5083" class="st9" d="M3.1,1.5C3.2,2.3,2.7,2.9,2,3.1C1.3,3.2,0.7,3,0.3,2.5c-0.3-0.6-0.3-1.3,0-1.8
						c0.4-0.5,1-0.8,1.7-0.6C2.6,0.1,3.2,0.8,3.1,1.5z M2.4,1.6c0-0.4-0.2-0.8-0.5-1c-0.4-0.2-0.8,0-1.1,0.3
						C0.6,1.3,0.6,1.7,0.8,2.1c0.2,0.4,0.6,0.6,1,0.5C2.2,2.5,2.5,2,2.4,1.6L2.4,1.6z"/>
				</g>
				<g id="Group_926" transform="translate(0 4.624)">
					<path id="Path_5084" class="st9" d="M0.6,2.1c0.1,0.3,0.3,0.5,0.5,0.5c0.3,0.1,0.6,0,0.8-0.1C2.1,2.5,2.1,2.3,2,2.1
						C2,2.1,1.9,2,1.9,2C1.6,1.9,1.4,1.8,1.1,1.8c-0.3,0-0.5-0.1-0.7-0.3C0.2,1.3,0.1,1.1,0.1,0.8C0.2,0.3,0.7,0,1.3,0
						c0.6-0.1,1.2,0.4,1.3,1L2.2,1C2.1,1,2,1,2,1c0,0,0-0.1-0.1-0.1c0,0-0.1-0.1-0.1-0.1C1.6,0.5,1.3,0.5,1.1,0.6
						c-0.1,0-0.2,0.1-0.3,0.2C0.7,0.9,0.7,1,0.8,1.1c0,0,0,0,0,0c0.3,0.1,0.6,0.2,1,0.3c0.3,0.1,0.6,0.3,0.8,0.6
						c0.1,0.3,0.1,0.6-0.1,0.9C2.3,3,2,3.2,1.6,3.2C1.3,3.3,0.9,3.2,0.5,3C0.2,2.8,0,2.5,0,2.1L0.6,2.1z"/>
				</g>
				<g id="Group_927" transform="translate(3.322 13.586)">
					<path id="Path_5085" class="st9" d="M0.6,2.1c0.1,0.3,0.3,0.5,0.5,0.5c0.3,0.1,0.6,0,0.8-0.1C2.1,2.5,2.1,2.3,2,2.1
						C2,2.1,1.9,2,1.9,2C1.6,1.9,1.4,1.8,1.1,1.8c-0.3,0-0.5-0.1-0.7-0.3C0.2,1.3,0.1,1.1,0.1,0.8C0.2,0.3,0.7,0,1.3,0
						c0.6-0.1,1.2,0.4,1.3,1L2.2,1C2.1,1,2,1,2,1c0,0,0-0.1-0.1-0.1c0,0-0.1-0.1-0.1-0.1C1.6,0.5,1.3,0.5,1.1,0.6
						c-0.1,0-0.2,0.1-0.3,0.2C0.7,0.9,0.7,1,0.8,1.1c0,0,0,0,0,0c0.3,0.1,0.6,0.2,1,0.3c0.3,0.1,0.6,0.3,0.8,0.6
						c0.1,0.3,0.1,0.6-0.1,0.9C2.3,3,2,3.2,1.6,3.2C1.3,3.3,0.9,3.2,0.5,3C0.2,2.8,0,2.5,0,2.1L0.6,2.1z"/>
				</g>
				
					<radialGradient id="Path_8111_1_" cx="-277.8657" cy="381.2084" r="0.964" gradientTransform="matrix(-1.0291 3.4127 3.5331 1.0945 -1102.2566 727.1562)" gradientUnits="userSpaceOnUse">
					<stop  offset="0" style="stop-color:#FFFFFF"/>
					<stop  offset="1.600000e-02" style="stop-color:#F2F7FB"/>
					<stop  offset="7.900000e-02" style="stop-color:#C6DDED"/>
					<stop  offset="0.139" style="stop-color:#A4C8E2"/>
					<stop  offset="0.197" style="stop-color:#8BB9DB"/>
					<stop  offset="0.249" style="stop-color:#7DB1D6"/>
					<stop  offset="0.292" style="stop-color:#78AED5"/>
					<stop  offset="0.646" style="stop-color:#536EA9"/>
					<stop  offset="0.776" style="stop-color:#8369A3"/>
					<stop  offset="0.994" style="stop-color:#DD6199"/>
				</radialGradient>
				<path id="Path_8111" class="st10" d="M6.5,1.7C6.9,0.8,8,0.3,8.9,0.7c0.9,0.3,1.4,1.3,1,2.2c0,0,0,0.1,0,0.1
					C9.5,4,8.4,4.4,7.5,4C6.6,3.7,6.1,2.7,6.5,1.7C6.5,1.7,6.5,1.7,6.5,1.7z"/>
				
					<radialGradient id="Ellipse_8_1_" cx="-275.9647" cy="383.1231" r="0.964" gradientTransform="matrix(-1.0911 3.3738 3.5689 1.0315 -1426.8615 843.8578)" gradientUnits="userSpaceOnUse">
					<stop  offset="0" style="stop-color:#FFFFFF"/>
					<stop  offset="1.600000e-02" style="stop-color:#F2F7FB"/>
					<stop  offset="7.900000e-02" style="stop-color:#C6DDED"/>
					<stop  offset="0.139" style="stop-color:#A4C8E2"/>
					<stop  offset="0.197" style="stop-color:#8BB9DB"/>
					<stop  offset="0.249" style="stop-color:#7DB1D6"/>
					<stop  offset="0.292" style="stop-color:#78AED5"/>
					<stop  offset="0.646" style="stop-color:#536EA9"/>
					<stop  offset="0.776" style="stop-color:#8369A3"/>
					<stop  offset="0.994" style="stop-color:#DD6199"/>
				</radialGradient>
				<path id="Ellipse_8" class="st11" d="M15,5.1c1,0,1.9,0.8,1.9,1.8c0,1-0.8,1.8-1.9,1.8s-1.9-0.8-1.9-1.8S13.9,5.1,15,5.1z"/>
				
					<radialGradient id="Ellipse_9_1_" cx="-275.9647" cy="383.1231" r="0.964" gradientTransform="matrix(-1.0911 3.3738 3.5689 1.0315 -1424.1796 835.7537)" gradientUnits="userSpaceOnUse">
					<stop  offset="0" style="stop-color:#FFFFFF"/>
					<stop  offset="1.600000e-02" style="stop-color:#F2F7FB"/>
					<stop  offset="7.900000e-02" style="stop-color:#C6DDED"/>
					<stop  offset="0.139" style="stop-color:#A4C8E2"/>
					<stop  offset="0.197" style="stop-color:#8BB9DB"/>
					<stop  offset="0.249" style="stop-color:#7DB1D6"/>
					<stop  offset="0.292" style="stop-color:#78AED5"/>
					<stop  offset="0.646" style="stop-color:#536EA9"/>
					<stop  offset="0.776" style="stop-color:#8369A3"/>
					<stop  offset="0.994" style="stop-color:#DD6199"/>
				</radialGradient>
				<path id="Ellipse_9" class="st12" d="M12.3,13.2c1,0,1.9,0.8,1.9,1.8s-0.8,1.8-1.9,1.8s-1.9-0.8-1.9-1.8S11.2,13.2,12.3,13.2z"
					/>
				
					<radialGradient id="Path_5086_1_" cx="-276.7425" cy="385.214" r="0.964" gradientTransform="matrix(-1.0333 3.3776 3.3796 1.0326 -1362.4456 833.2651)" gradientUnits="userSpaceOnUse">
					<stop  offset="0" style="stop-color:#FFFFFF"/>
					<stop  offset="1.600000e-02" style="stop-color:#F2F7FB"/>
					<stop  offset="7.900000e-02" style="stop-color:#C6DDED"/>
					<stop  offset="0.139" style="stop-color:#A4C8E2"/>
					<stop  offset="0.197" style="stop-color:#8BB9DB"/>
					<stop  offset="0.249" style="stop-color:#7DB1D6"/>
					<stop  offset="0.292" style="stop-color:#78AED5"/>
					<stop  offset="0.646" style="stop-color:#536EA9"/>
					<stop  offset="0.776" style="stop-color:#8369A3"/>
					<stop  offset="0.994" style="stop-color:#DD6199"/>
				</radialGradient>
				<path id="Path_5086" class="st13" d="M19.7,20.6c-1-0.1-1.7-0.9-1.7-1.9c0.1-1,0.9-1.7,1.9-1.7c0.9,0.1,1.7,0.8,1.7,1.8
					C21.6,19.8,20.8,20.6,19.7,20.6z"/>
				
					<radialGradient id="Ellipse_10_1_" cx="-275.9647" cy="383.1231" r="0.964" gradientTransform="matrix(-1.0911 3.3738 3.5689 1.0315 -1439.0594 835.9767)" gradientUnits="userSpaceOnUse">
					<stop  offset="0" style="stop-color:#FFFFFF"/>
					<stop  offset="1.600000e-02" style="stop-color:#F2F7FB"/>
					<stop  offset="7.900000e-02" style="stop-color:#C6DDED"/>
					<stop  offset="0.139" style="stop-color:#A4C8E2"/>
					<stop  offset="0.197" style="stop-color:#8BB9DB"/>
					<stop  offset="0.249" style="stop-color:#7DB1D6"/>
					<stop  offset="0.292" style="stop-color:#78AED5"/>
					<stop  offset="0.646" style="stop-color:#536EA9"/>
					<stop  offset="0.776" style="stop-color:#8369A3"/>
					<stop  offset="0.994" style="stop-color:#DD6199"/>
				</radialGradient>
				<path id="Ellipse_10" class="st14" d="M27.2,13c1,0,1.9,0.8,1.9,1.8s-0.8,1.8-1.9,1.8c-1,0-1.9-0.8-1.9-1.8S26.1,13,27.2,13z"/>
				
					<radialGradient id="Path_8112_1_" cx="-277.8484" cy="381.221" r="0.964" gradientTransform="matrix(-1.0296 3.4123 3.5334 1.094 -1162.0071 741.9823)" gradientUnits="userSpaceOnUse">
					<stop  offset="0" style="stop-color:#FFFFFF"/>
					<stop  offset="1.600000e-02" style="stop-color:#F2F7FB"/>
					<stop  offset="7.900000e-02" style="stop-color:#C6DDED"/>
					<stop  offset="0.139" style="stop-color:#A4C8E2"/>
					<stop  offset="0.197" style="stop-color:#8BB9DB"/>
					<stop  offset="0.249" style="stop-color:#7DB1D6"/>
					<stop  offset="0.292" style="stop-color:#78AED5"/>
					<stop  offset="0.646" style="stop-color:#536EA9"/>
					<stop  offset="0.776" style="stop-color:#8369A3"/>
					<stop  offset="0.994" style="stop-color:#DD6199"/>
				</radialGradient>
				<path id="Path_8112" class="st15" d="M32.9,18.1c0.4-0.9,1.5-1.3,2.4-1c0.9,0.3,1.4,1.3,1,2.2c0,0,0,0.1,0,0.1
					c-0.4,0.9-1.5,1.3-2.4,1C33.1,20.1,32.6,19.1,32.9,18.1C32.9,18.2,32.9,18.2,32.9,18.1z"/>
				
					<radialGradient id="Ellipse_12_1_" cx="-275.9647" cy="383.1231" r="0.964" gradientTransform="matrix(-1.0911 3.3738 3.5689 1.0315 -1453.9833 835.9767)" gradientUnits="userSpaceOnUse">
					<stop  offset="0" style="stop-color:#FFFFFF"/>
					<stop  offset="1.600000e-02" style="stop-color:#F2F7FB"/>
					<stop  offset="7.900000e-02" style="stop-color:#C6DDED"/>
					<stop  offset="0.139" style="stop-color:#A4C8E2"/>
					<stop  offset="0.197" style="stop-color:#8BB9DB"/>
					<stop  offset="0.249" style="stop-color:#7DB1D6"/>
					<stop  offset="0.292" style="stop-color:#78AED5"/>
					<stop  offset="0.646" style="stop-color:#536EA9"/>
					<stop  offset="0.776" style="stop-color:#8369A3"/>
					<stop  offset="0.994" style="stop-color:#DD6199"/>
				</radialGradient>
				<path id="Ellipse_12" class="st16" d="M42.1,13c1,0,1.9,0.8,1.9,1.8s-0.8,1.8-1.9,1.8s-1.9-0.8-1.9-1.8C40.2,13.7,41,13,42.1,13
					z"/>
				
					<radialGradient id="Path_8113_1_" cx="-277.8541" cy="381.18" r="0.964" gradientTransform="matrix(-1.0289 3.4134 3.5345 1.0934 -1180.5436 763.8724)" gradientUnits="userSpaceOnUse">
					<stop  offset="0" style="stop-color:#FFFFFF"/>
					<stop  offset="1.600000e-02" style="stop-color:#F2F7FB"/>
					<stop  offset="7.900000e-02" style="stop-color:#C6DDED"/>
					<stop  offset="0.139" style="stop-color:#A4C8E2"/>
					<stop  offset="0.197" style="stop-color:#8BB9DB"/>
					<stop  offset="0.249" style="stop-color:#7DB1D6"/>
					<stop  offset="0.292" style="stop-color:#78AED5"/>
					<stop  offset="0.646" style="stop-color:#536EA9"/>
					<stop  offset="0.776" style="stop-color:#8369A3"/>
					<stop  offset="0.994" style="stop-color:#DD6199"/>
				</radialGradient>
				<path id="Path_8113" class="st17" d="M47.6,18.1c0.4-0.9,1.5-1.3,2.4-1c0.9,0.3,1.4,1.3,1,2.2c0,0,0,0.1,0,0.1
					c-0.4,0.9-1.5,1.3-2.4,1C47.8,20.1,47.3,19.1,47.6,18.1C47.6,18.2,47.6,18.2,47.6,18.1z"/>
			</g>
		</g>
	</g>
	<text transform="matrix(1 0 0 1 37.27 61.829)" class="st18 st19 st20">LA</text>
</g>
</svg>
