<svg xmlns="http://www.w3.org/2000/svg" viewBox="0 0 485.67 264.38"><defs><style>.cls-1{font-size:54.34px;}.cls-1,.cls-2,.cls-4{fill:#fff;}.cls-1,.cls-2{font-family:CooperBlack, Cooper Black;}.cls-2{font-size:72.66px;}.cls-3{fill:none;stroke:#fff;stroke-miterlimit:10;stroke-width:5px;}</style></defs><title>Asset 5</title><g id="Layer_2" data-name="Layer 2"><g id="Layer_1-2" data-name="Layer 1"><text class="cls-1" transform="translate(304.28 250.74)">Lab</text><text class="cls-1" transform="translate(75.76 115.34)">The</text><text class="cls-2" transform="translate(93.64 192.91)">Dry Eye</text><polyline class="cls-3" points="187.17 99.68 483.17 99.68 483.17 242.35 414.5 242.35"/><polyline class="cls-3" points="71.17 99.68 2.5 99.68 2.5 242.12 271.83 242.12"/><circle class="cls-4" cx="359.01" cy="4.53" r="4.53"/><circle class="cls-4" cx="370.1" cy="12.06" r="4.53"/><circle class="cls-4" cx="354.48" cy="19.17" r="4.53"/><circle class="cls-4" cx="371.49" cy="28.65" r="6.39"/><path class="cls-4" d="M414.57,104.18l-20-27.84a25.76,25.76,0,0,1-4.18-9.29l-4.07-18a8.58,8.58,0,0,1,1.32-8.1c2.56-3,1.7-4.68.4-5.61a4.56,4.56,0,0,0-3.87-.63l-12.65,3.36-1.44.44-12.79,2.78a4.58,4.58,0,0,0-3.16,2.32c-.73,1.42-.72,3.34,2.91,4.81A8.58,8.58,0,0,1,361.93,55L367,74.9a15.33,15.33,0,0,1,.31,6.14L361.93,117s-5.07,19,14.13,14.25l19.2-4.75,13.22-3.16C427.74,118.77,414.57,104.18,414.57,104.18ZM369.81,61.34s-2.07-11-6.66-15.65c0,0,14.78-3.15,17.26-4.25,0,0,.44,14.05,1.69,16.61C382.1,58.05,370.91,60.09,369.81,61.34Zm.94,35.55C376.26,81,372.06,69.55,371,67c-.14-.34-.23-.51-.23-.51,5.81-.24,13-3.13,13-3.13s-1.12.75,1.38,8.5,18.12,25,18.12,25Z"/></g></g></svg>