<svg xmlns="http://www.w3.org/2000/svg" xmlns:xlink="http://www.w3.org/1999/xlink" width="817.384" height="601.43" viewBox="0 0 817.384 601.43">
  <defs>
    <linearGradient id="linear-gradient" x1="6.361" y1="17.516" x2="6.654" y2="17.516" gradientUnits="objectBoundingBox">
      <stop offset="0" stop-color="#009fe3"/>
      <stop offset="1" stop-color="#009fe3"/>
    </linearGradient>
  </defs>
  <g id="Middle-content" transform="translate(-524.443 -474.552)" opacity="0.275">
    <path id="Path_2058" data-name="Path 2058" d="M1085.155,1057.432l3.938,18.121h246.2c3.1,0,5.611-8.239,5.611-18.413V748.857l-6.988-8.779a16.449,16.449,0,0,1-3.365-10.2V587.749A15.831,15.831,0,0,1,1335.371,576l5.53-4.93V493.024c0-10.174-2.514-18.413-5.611-18.413h-80.972l-6.988,22.916c-2.156,7.045-5.073,11.008-8.125,11.008h-194.5c-3.714,0-7.2-5.875-9.36-15.8l-3.937-18.121H530.4v.022l-.116-.022h-.161c-3.105,0-5.62,8.239-5.62,18.413v128.85l7,10.4a21.978,21.978,0,0,1,3.356,12.066V812.854c0,5.515-1.79,10.715-4.814,13.912l-5.539,5.875v224.5c0,10.174,2.514,18.413,5.62,18.413H947.452l7-22.916c2.147-7.046,5.073-11.008,8.116-11.008H1075.8C1079.518,1041.629,1083,1047.5,1085.155,1057.432Z" transform="translate(0.43 0.429)" fill="#19172c" opacity="0.821"/>
    <path id="Path_2059" data-name="Path 2059" d="M1335.681,1075.982H1089.193l-4.089-18.75c-2.058-9.421-5.377-15.051-8.885-15.051H962.992c-2.9,0-5.628,3.724-7.695,10.452l-7.149,23.349H530.59c-3.391,0-6.147-8.815-6.147-19.669V831.724l5.852-6.17c2.818-2.982,4.5-7.716,4.5-12.65V645a19.809,19.809,0,0,0-3.1-10.879l-7.247-10.766V494.223c0-10.384,2.523-18.908,5.717-19.626l-.009-.021.241-.023h501.753l4.1,18.751c2.049,9.421,5.377,15.05,8.885,15.05H1239.6c2.9,0,5.637-3.723,7.695-10.452l7.157-23.349h81.223c3.382,0,6.147,8.815,6.147,19.671v78.684l-5.887,5.248a14.09,14.09,0,0,0-4.474,10.452V730.229a14.567,14.567,0,0,0,3.069,8.971l7.292,9.106v308.006C1341.827,1067.167,1339.062,1075.982,1335.681,1075.982Zm-245.861-2.669h245.861c2.8,0,5.082-7.626,5.082-17V749.967l-6.7-8.389a18.153,18.153,0,0,1-3.651-11.349V588.607c0-5.226,1.933-10.071,5.172-12.965l5.18-4.6V494.223c0-9.375-2.282-17-5.082-17h-80.7l-6.827,22.3C1245.9,506.828,1242.8,511,1239.6,511H1045.128c-3.91,0-7.578-6.124-9.824-16.42l-3.785-17.361H531.583v.046l-.993-.046c-2.81,0-5.091,7.627-5.091,17V621.848l6.738,9.981A24.1,24.1,0,0,1,535.86,645V812.9c0,6.056-1.923,11.686-5.145,15.1l-5.216,5.495v222.818c0,9.375,2.281,17,5.091,17H947.621l6.836-22.3c2.237-7.312,5.35-11.506,8.536-11.506H1076.22c3.9,0,7.569,6.146,9.815,16.44Z" transform="translate(0 0)" fill="url(#linear-gradient)"/>
  </g>
</svg>
