<?xml version="1.0" encoding="utf-8"?>
<!-- Generator: Adobe Illustrator 23.0.0, SVG Export Plug-In . SVG Version: 6.00 Build 0)  -->
<svg version="1.1" id="moderate_dry_eye_icon" xmlns="http://www.w3.org/2000/svg" xmlns:xlink="http://www.w3.org/1999/xlink"
	 x="0px" y="0px" viewBox="0 0 77.8 77.8" style="enable-background:new 0 0 77.8 77.8;" xml:space="preserve">
<style type="text/css">
	.st0{fill:#92C5E0;}
	.st1{opacity:0.5;fill:#FFFFFF;enable-background:new    ;}
	.st2{opacity:0.3;fill:#C088FF;enable-background:new    ;}
	.st3{fill:#7B704F;}
	.st4{fill:url(#Path_1939_1_);}
	.st5{fill:#FFF4C5;}
	.st6{fill:#4A2300;}
	.st7{fill:#FFB3B3;}
	.st8{fill:#FEDAC6;stroke:#58595B;stroke-width:2;stroke-linejoin:round;}
	.st9{fill:#B3E6FF;stroke:#58595B;stroke-width:2;stroke-linejoin:round;}
	.st10{fill:#58595B;}
	.st11{fill:none;stroke:#FF4A4A;stroke-width:2;stroke-linecap:round;stroke-linejoin:round;}
	.st12{fill:none;stroke:#58595B;stroke-width:2;stroke-linejoin:round;}
	.st13{fill:#FFFFFF;}
</style>
<circle id="Ellipse_1" class="st0" cx="38.9" cy="38.9" r="34.1"/>
<image style="overflow:visible;opacity:0.1;enable-background:new    ;" width="1759" height="1217" id="Rectangle_11" xlink:href="F64F4112.png"  transform="matrix(3.627116e-02 0 0 3.627116e-02 6.9725 4.793)">
</image>
<path id="Path_1936" class="st1" d="M38.9,7.4c13.7,0,26,8.2,31.4,20.7c0.2-0.4,0.4-0.9,0.5-1.3C64.1,9.2,44.5,0.3,26.9,7
	C17.7,10.4,10.4,17.7,7,26.9c0.2,0.4,0.3,0.9,0.5,1.3C12.9,15.6,25.2,7.4,38.9,7.4z"/>
<path id="Path_1937" class="st2" d="M38.9,69.4c-18.1,0-33.1-14.2-34-32.3c0,0.6,0,1.2,0,1.8c0.1,18.8,15.4,34,34.3,33.9
	C57.7,72.7,72.9,57.6,73,38.9c0-0.6,0-1.2,0-1.8C72,55.2,57,69.4,38.9,69.4z"/>
<path id="Path_1938" class="st3" d="M38.9,76.5c-20.8,0-37.7-16.9-37.7-37.7S18.1,1.2,38.9,1.2s37.7,16.9,37.7,37.7l0,0
	C76.5,59.7,59.7,76.5,38.9,76.5z M38.9,2.9c-19.9,0-36,16.1-36,36c0,19.9,16.1,36,36,36s36-16.1,36-36l0,0
	C74.8,19,58.7,2.9,38.9,2.9z"/>
<linearGradient id="Path_1939_1_" gradientUnits="userSpaceOnUse" x1="-261.8005" y1="430.0488" x2="-261.8005" y2="431.0488" gradientTransform="matrix(71.902 0 0 -71.902 18862.8594 30996.1855)">
	<stop  offset="0" style="stop-color:#EBC459"/>
	<stop  offset="7.500000e-02" style="stop-color:#D1BC4B"/>
	<stop  offset="0.162" style="stop-color:#DEC243"/>
	<stop  offset="0.244" style="stop-color:#D1B128"/>
	<stop  offset="0.318" style="stop-color:#E3C95D"/>
	<stop  offset="0.375" style="stop-color:#F1C40F"/>
	<stop  offset="0.53" style="stop-color:#F59325"/>
	<stop  offset="0.748" style="stop-color:#EA8C22"/>
	<stop  offset="0.911" style="stop-color:#A34201"/>
	<stop  offset="1" style="stop-color:#9C3600"/>
</linearGradient>
<path id="Path_1939" class="st4" d="M38.9,74.8c-19.9,0-36-16.1-36-36c0-19.9,16.1-36,36-36s36,16.1,36,36l0,0
	C74.8,58.7,58.7,74.8,38.9,74.8z M38.9,4.8C20.1,4.8,4.8,20.1,4.8,38.9C4.8,57.7,20.1,73,38.9,73S73,57.7,73,38.9l0,0
	C72.9,20.1,57.7,4.8,38.9,4.8z"/>
<path id="Path_1940" class="st5" d="M38.9,75.1c-20,0-36.3-16.2-36.3-36.3S18.9,2.6,38.9,2.6s36.3,16.2,36.3,36.3
	c0,9.6-3.8,18.8-10.6,25.6C57.7,71.3,48.5,75.2,38.9,75.1z M38.9,3.2c-19.7,0-35.6,16-35.6,35.6s16,35.6,35.6,35.6
	s35.6-16,35.6-35.6l0,0C74.5,19.2,58.6,3.3,38.9,3.2L38.9,3.2z"/>
<path id="Path_1941" class="st6" d="M38.9,1.2c20.8,0,37.7,16.9,37.7,37.7S59.7,76.5,38.9,76.5S1.2,59.7,1.2,38.9l0,0
	C1.2,18.1,18.1,1.2,38.9,1.2 M38.9,73C57.7,73,73,57.7,73,38.9C73,20.1,57.7,4.8,38.9,4.8S4.8,20.1,4.8,38.9l0,0
	C4.8,57.7,20.1,72.9,38.9,73 M38.9,0C17.4,0,0,17.4,0,38.9c0,21.5,17.4,38.9,38.9,38.9s38.9-17.4,38.9-38.9c0,0,0,0,0,0
	C77.7,17.4,60.3,0,38.9,0L38.9,0z M38.9,71.7C20.7,71.7,6,57,6,38.9S20.7,6,38.9,6s32.9,14.7,32.9,32.9l0,0
	C71.7,57,57,71.7,38.9,71.7z"/>
<g id="Group_1473" transform="translate(-129.738 -252.462)">
	<path id="Path_8188" class="st7" d="M196.6,297.3c0,0-12.5,16.2-28,16.2s-28-16.2-28-16.2s12.5-16.2,28-16.2
		S196.6,297.3,196.6,297.3z"/>
	<path id="Path_8192" class="st8" d="M168.6,286.3c11.5,0,21.4,9,25.7,13.6c1.5-1.6,2.3-2.6,2.3-2.6s-12.5-16.2-28-16.2
		s-28,16.2-28,16.2s0.8,1.1,2.3,2.6C147.2,295.3,157.1,286.3,168.6,286.3z"/>
	<circle id="Ellipse_28" class="st9" cx="168.6" cy="296.6" r="10.3"/>
	<path id="Path_8193" class="st10" d="M173.1,296.6c0,2.5-2,4.5-4.5,4.5s-4.5-2-4.5-4.5s2-4.5,4.5-4.5l0,0
		C171.1,292.1,173.1,294.1,173.1,296.6z"/>
	<g id="Group_1468" transform="translate(146.164 298.836)">
		<path id="Path_8194" class="st11" d="M0,4.2l2.4-2.9l2.1,0.6L6.7,0"/>
		<path id="Path_8195" class="st11" d="M4.5,1.9c1.1,1.1,2.5,1.9,4,2.2"/>
	</g>
	<g id="Group_1469" transform="translate(181.886 297.505)">
		<path id="Path_8196" class="st11" d="M6.7,7.7l-3.6-1L2.7,4.6L0,3.5"/>
		<path id="Path_8197" class="st11" d="M2.7,4.6C3.2,3.1,3.3,1.5,2.8,0"/>
	</g>
	<g id="Group_1470" transform="translate(157.585 306.183)">
		<path id="Path_8198" class="st11" d="M2.1,1.1c0,0-1.4,1.4-0.6,4.2"/>
		<path id="Path_8199" class="st11" d="M0,0c0.1,0.9,0.7,1.7,1.5,2.1"/>
	</g>
	<g id="Group_1471" transform="translate(178.08 305.77)">
		<path id="Path_8200" class="st11" d="M2.3,0c0,0-0.5,1.9,1.6,3.9"/>
		<path id="Path_8201" class="st11" d="M0,0.1c0.6,0.7,1.4,1.1,2.3,1"/>
	</g>
	<path id="Path_8202" class="st11" d="M167.7,309.7l0.9,0.9l2,0l-0.2,2.9"/>
	<path id="Path_8203" class="st12" d="M196.6,297.3c0,0-12.5,16.2-28,16.2s-28-16.2-28-16.2s12.5-16.2,28-16.2
		S196.6,297.3,196.6,297.3z"/>
	<path id="Path_8204" class="st13" d="M173.1,294c0,1-0.8,1.8-1.8,1.8s-1.8-0.8-1.8-1.8c0-1,0.8-1.8,1.8-1.8l0,0
		C172.3,292.3,173.1,293.1,173.1,294z"/>
</g>
</svg>
