<svg xmlns="http://www.w3.org/2000/svg" xmlns:xlink="http://www.w3.org/1999/xlink" width="855.056" height="576.126" viewBox="0 0 855.056 576.126">
  <defs>
    <linearGradient id="linear-gradient" x1="0.5" y1="1" x2="0.5" gradientUnits="objectBoundingBox">
      <stop offset="0" stop-color="#16668e"/>
      <stop offset="1" stop-color="#2aa7e4"/>
    </linearGradient>
  </defs>
  <g id="paused_button" transform="translate(-136.059 -1111.291)">
    <path id="shadow" d="M847.649,1206.351H295.862c-69.913,0-126.79,32.218-126.79,71.819v360.952c0,39.6,56.877,71.818,126.79,71.818H847.649c69.912,0,126.791-32.218,126.791-71.818V1278.17C974.44,1238.569,917.561,1206.351,847.649,1206.351Z" transform="translate(-8.169 -23.523)" fill="#1a1a1a" opacity="0.3"/>
    <g id="window" transform="translate(160.902 1160.155)">
      <path id="Rectangle_68" data-name="Rectangle 68" d="M0,0H787.308a0,0,0,0,1,0,0V399.126a90.266,90.266,0,0,1-90.266,90.266H90.266A90.266,90.266,0,0,1,0,399.126V0A0,0,0,0,1,0,0Z" transform="translate(9.031 9.031)" fill="#fff"/>
      <path id="Path_8049" data-name="Path 8049" d="M959.563,1184.651v425.565c0,35.016-50.106,63.4-111.914,63.4H295.863c-61.809,0-111.914-28.385-111.914-63.4V1184.651H959.563m0-8.429H183.949c-8.216,0-14.878,3.774-14.878,8.429v425.565c0,39.607,56.879,71.83,126.792,71.83H847.648c69.913,0,126.792-32.222,126.792-71.83V1184.651c0-4.655-6.662-8.429-14.878-8.429Z" transform="translate(-169.071 -1176.222)" fill="#153761"/>
    </g>
    <g id="head" transform="translate(136.059 1111.291)">
      <rect id="Rectangle_69" data-name="Rectangle 69" width="787.308" height="24.858" transform="translate(33.874 117.785)" fill="#1a1a1a" opacity="0.3"/>
      <rect id="Rectangle_70" data-name="Rectangle 70" width="836.995" height="100.987" rx="18.387" transform="translate(9.03 16.799)" fill="#26506d"/>
      <rect id="Rectangle_71" data-name="Rectangle 71" width="836.995" height="100.987" rx="18.387" transform="translate(9.03 9.031)" fill="url(#linear-gradient)"/>
      <path id="Path_8050" data-name="Path 8050" d="M962.8,1123.291H170.311c-12.29,0-22.252,6.195-22.252,13.837v6.215c0-7.642,9.962-13.837,22.252-13.837H962.8c12.289,0,22.251,6.195,22.251,13.837v-6.215C985.053,1129.486,975.091,1123.291,962.8,1123.291Z" transform="translate(-139.028 -1114.26)" fill="#fff" opacity="0.5"/>
      <path id="Path_8051" data-name="Path 8051" d="M954.807,1120.322c12.133,0,21.969,6.195,21.969,13.837v81.081c0,7.642-9.836,13.837-21.969,13.837H172.367c-12.134,0-21.97-6.195-21.97-13.837v-81.081c0-7.642,9.836-13.837,21.97-13.837h782.44m0-9.031H172.367c-20.021,0-36.308,10.259-36.308,22.867v81.081c0,12.61,16.287,22.868,36.308,22.868h782.44c20.02,0,36.307-10.258,36.307-22.868v-81.081c0-12.609-16.287-22.867-36.307-22.867Z" transform="translate(-136.059 -1111.291)" fill="#153761"/>
    </g>
    <path id="close_button" d="M777.244,1181.611l8.789-8.789a10.487,10.487,0,0,0-14.831-14.83l-8.789,8.788-8.789-8.788a10.487,10.487,0,1,0-14.831,14.83l8.789,8.789-8.789,8.789a10.487,10.487,0,0,0,14.831,14.83l8.789-8.788,8.789,8.788a10.487,10.487,0,0,0,14.831-14.83Z" transform="translate(168.136 -10.796)" fill="#0e2c4e"/>
  </g>
</svg>
