<svg id="post_survey_icon" data-name="post survey icon" xmlns="http://www.w3.org/2000/svg" xmlns:xlink="http://www.w3.org/1999/xlink" width="77.752" height="77.752" viewBox="0 0 77.752 77.752">
  <defs>
    <linearGradient id="linear-gradient" x1="0.5" y1="1" x2="0.5" gradientUnits="objectBoundingBox">
      <stop offset="0" stop-color="#ebc459"/>
      <stop offset="0.075" stop-color="#d1bc4b"/>
      <stop offset="0.162" stop-color="#dec243"/>
      <stop offset="0.244" stop-color="#d1b128"/>
      <stop offset="0.318" stop-color="#e3c95d"/>
      <stop offset="0.375" stop-color="#f1c40f"/>
      <stop offset="0.53" stop-color="#f59325"/>
      <stop offset="0.748" stop-color="#ea8c22"/>
      <stop offset="0.911" stop-color="#a34201"/>
      <stop offset="1" stop-color="#9c3600"/>
    </linearGradient>
  </defs>
  <circle id="Ellipse_1" data-name="Ellipse 1" cx="34.079" cy="34.079" r="34.079" transform="translate(4.797 4.797)" fill="#92c5e0"/>
  <path id="Path_1936" data-name="Path 1936" d="M194.44,777.161A34.08,34.08,0,0,1,225.8,797.9c.187-.438.366-.879.535-1.326a34.083,34.083,0,0,0-63.789,0c.169.447.348.888.534,1.326A34.08,34.08,0,0,1,194.44,777.161Z" transform="translate(-155.564 -769.712)" fill="#fff" opacity="0.5"/>
  <path id="Path_1937" data-name="Path 1937" d="M182.172,1020.413a34.079,34.079,0,0,1-34.031-32.284q-.046.891-.048,1.794a34.079,34.079,0,0,0,68.157,0q0-.9-.047-1.794A34.079,34.079,0,0,1,182.172,1020.413Z" transform="translate(-143.296 -951.046)" fill="#c088ff" opacity="0.3"/>
  <path id="Path_1938" data-name="Path 1938" d="M162.017,826.1a37.667,37.667,0,1,1,37.667-37.667A37.709,37.709,0,0,1,162.017,826.1Zm0-73.618a35.951,35.951,0,1,0,35.951,35.951A35.991,35.991,0,0,0,162.017,752.482Z" transform="translate(-123.141 -749.557)" fill="#7b704f"/>
  <path id="Path_1939" data-name="Path 1939" d="M171.658,834.023a35.951,35.951,0,1,1,35.951-35.951A35.991,35.991,0,0,1,171.658,834.023Zm0-70.029a34.079,34.079,0,1,0,34.079,34.079A34.117,34.117,0,0,0,171.658,763.994Z" transform="translate(-132.782 -759.197)" fill="url(#linear-gradient)"/>
  <path id="Path_1940" data-name="Path 1940" d="M169.959,832.628a36.253,36.253,0,1,1,25.635-10.618A36.015,36.015,0,0,1,169.959,832.628Zm0-71.9a35.649,35.649,0,1,0,35.649,35.649A35.689,35.689,0,0,0,169.959,760.727Z" transform="translate(-131.083 -757.499)" fill="#fff4c5"/>
  <path id="Path_1941" data-name="Path 1941" d="M155.226,743.975a37.667,37.667,0,1,1-37.667,37.667,37.709,37.709,0,0,1,37.667-37.667m0,71.746a34.079,34.079,0,1,0-34.079-34.079,34.117,34.117,0,0,0,34.079,34.079m0-72.955A38.876,38.876,0,1,0,194.1,781.642a38.92,38.92,0,0,0-38.876-38.876Zm0,71.746a32.87,32.87,0,1,1,32.87-32.87,32.907,32.907,0,0,1-32.87,32.87Z" transform="translate(-116.35 -742.766)" fill="#4a2300"/>
  <g id="Page-1" transform="translate(17.735 15.94)">
    <g id="_033---Laser-Eye-Treatment" data-name="033---Laser-Eye-Treatment" transform="translate(0 0)">
      <path id="Shape" d="M30.75,38.618l.241-.5a3.552,3.552,0,0,1,2.778-2.107c1.436-.1,2.632,1.123,3.791,1.786A8.588,8.588,0,0,0,41,38.814a1.446,1.446,0,0,1,1.283,1.443V50.581a1.462,1.462,0,0,1-1.458,1.458H1.458A1.462,1.462,0,0,1,0,50.581V40.258a1.441,1.441,0,0,1,1.283-1.443,8.588,8.588,0,0,0,3.441-1.021c1.159-.663,2.355-1.888,3.791-1.786a3.552,3.552,0,0,1,2.778,2.107c.08.175.16.343.248.518Z" transform="translate(0 -9.756)" fill="#fdd7ad"/>
      <path id="Shape-2" data-name="Shape" d="M35.039,38.869a30.354,30.354,0,0,1-3.616,5.89,41.009,41.009,0,0,1-3.456,3.747,3.659,3.659,0,0,1-5.074,0,41.01,41.01,0,0,1-3.456-3.747,30,30,0,0,1-3.609-5.876,21.886,21.886,0,0,1,3.922-1.312A24.409,24.409,0,0,1,25,36.937c.139-.007.284-.007.43-.007h.015c.153,0,.313,0,.459.007a24.51,24.51,0,0,1,5.205.634,21.228,21.228,0,0,1,3.929,1.3Z" transform="translate(-4.29 -10.008)" fill="#ecf0f1"/>
      <path id="Shape-3" data-name="Shape" d="M31.423,50.473c-.43.452-.868.9-1.32,1.327a3.659,3.659,0,0,1-5.074,0c-.452-.43-.889-.875-1.32-1.327A16.553,16.553,0,0,1,26.2,49.307a4.257,4.257,0,0,1,2.727,0A16.553,16.553,0,0,1,31.423,50.473Z" transform="translate(-6.425 -13.301)" fill="#f09372"/>
      <path id="Shape-4" data-name="Shape" d="M32.568,37.572a5.723,5.723,0,0,1-5.679,3.944,5.723,5.723,0,0,1-5.679-3.944,24.409,24.409,0,0,1,5.249-.634c.139-.007.284-.007.43-.007H26.9c.153,0,.313,0,.459.007A24.51,24.51,0,0,1,32.568,37.572Z" transform="translate(-5.748 -10.008)" fill="#3b97d3"/>
      <g id="Group_1466" data-name="Group 1466" transform="translate(5.123 16.758)">
        <path id="Shape-5" data-name="Shape" d="M28.744,36.906a.729.729,0,0,1-.729-.729L28,28.729A.718.718,0,0,1,28.729,28a.729.729,0,0,1,.729.729l.015,7.448A.729.729,0,0,1,28.744,36.906Z" transform="translate(-12.711 -24.345)" fill="#f0c419"/>
        <path id="Shape-6" data-name="Shape" d="M19.918,29.565a.729.729,0,0,1-.67-.442l-2.187-5.1a.729.729,0,0,1,1.34-.574l2.187,5.1a.729.729,0,0,1-.67,1.016Z" transform="translate(-9.731 -22.994)" fill="#f0c419"/>
        <path id="Shape-7" data-name="Shape" d="M12.84,31.839a.729.729,0,0,1-.475-.176l-5.1-4.374a.729.729,0,0,1,.948-1.107l5.1,4.374a.729.729,0,0,1-.473,1.282Z" transform="translate(-7.028 -23.81)" fill="#f0c419"/>
        <path id="Shape-8" data-name="Shape" d="M36.729,29.558a.729.729,0,0,1-.67-1.016l2.187-5.1a.729.729,0,1,1,1.34.574l-2.187,5.1A.729.729,0,0,1,36.729,29.558Z" transform="translate(-14.879 -22.987)" fill="#f0c419"/>
        <path id="Shape-9" data-name="Shape" d="M42.729,31.839a.729.729,0,0,1-.475-1.282l5.1-4.374a.729.729,0,0,1,.948,1.107l-5.1,4.374a.729.729,0,0,1-.473.176Z" transform="translate(-16.505 -23.81)" fill="#f0c419"/>
      </g>
      <path id="Shape-10" data-name="Shape" d="M25,19h5.832v5.832a1.458,1.458,0,0,1-1.458,1.458H26.458A1.458,1.458,0,0,1,25,24.832Z" transform="translate(-6.775 -5.149)" fill="#3f5c6c"/>
      <path id="Shape-11" data-name="Shape" d="M20,9H33.122v5.832a1.458,1.458,0,0,1-1.458,1.458H21.458A1.458,1.458,0,0,1,20,14.832Z" transform="translate(-5.42 -2.439)" fill="#7f8c8d"/>
      <path id="Shape-12" data-name="Shape" d="M33.091,6.561H17.863a.729.729,0,0,1-.712-.571L16.018.887A.729.729,0,0,1,16.729,0h17.5a.729.729,0,0,1,.712.887L33.8,5.99a.729.729,0,0,1-.712.571Z" transform="translate(-4.336 0)" fill="#95a5a5"/>
    </g>
  </g>
</svg>
