<svg id="Layer_1" data-name="Layer 1" xmlns="http://www.w3.org/2000/svg" xmlns:xlink="http://www.w3.org/1999/xlink" viewBox="0 0 185.64 79.84"><defs><style>.cls-1{fill:#1a1a1a;opacity:0.3;}.cls-1,.cls-4,.cls-6,.cls-7{isolation:isolate;}.cls-2{fill:#6694a3;}.cls-3{fill:url(#linear-gradient);}.cls-4{fill:#fff;opacity:0.5;}.cls-5,.cls-7{fill:#094462;}.cls-5{stroke:#094462;}.cls-7{font-size:30px;font-family:CooperBlack, Cooper Black;}</style><linearGradient id="linear-gradient" x1="-210.36" y1="430.6" x2="-210.36" y2="431.6" gradientTransform="matrix(185.64, 0, 0, -65.71, 39142.83, 28360.71)" gradientUnits="userSpaceOnUse"><stop offset="0" stop-color="#86c3db"/><stop offset="1" stop-color="#b7e2f8"/></linearGradient></defs><title>reset</title><g id="reset"><g id="Group_1455" data-name="Group 1455"><rect id="Rectangle_72" data-name="Rectangle 72" class="cls-1" y="14.13" width="185.64" height="65.71" rx="18.39"/><rect id="Rectangle_73" data-name="Rectangle 73" class="cls-2" y="7.47" width="185.64" height="65.71" rx="18.39"/><rect id="Rectangle_74" data-name="Rectangle 74" class="cls-3" width="185.64" height="65.71" rx="18.39"/><path id="Path_8052" data-name="Path 8052" class="cls-4" d="M178.25,0H7.39A7.39,7.39,0,0,0,0,7.39v3.52A7.38,7.38,0,0,1,7.39,3.53H178.25a7.37,7.37,0,0,1,7.38,7.38V7.39A7.38,7.38,0,0,0,178.25,0Z" transform="translate(0)"/></g><g id="Group_1458" data-name="Group 1458"><g id="refresh"><g id="Group_1457" data-name="Group 1457"><path id="Path_8054" data-name="Path 8054" class="cls-5" d="M51.41,24.33a15.94,15.94,0,0,0-11.35-4.7H37.7l3.78-3.79-2.11-2.1L32,21.12l7.26,7.38,2.12-2.08L37.65,22.6h2.41A13.09,13.09,0,1,1,27,35.68h0V34.2H24v1.48A16.06,16.06,0,1,0,51.41,24.33Z" transform="translate(0)"/></g></g><g id="RESET-2" class="cls-6"><text class="cls-7" transform="translate(70.44 44.74)">RESET</text></g></g></g></svg>