<svg id="right" xmlns="http://www.w3.org/2000/svg" width="433.481" height="885.537" viewBox="0 0 433.481 885.537">
  <path id="Path_497" data-name="Path 497" d="M696.431,426.125c-.009-7.2-1.973-14.084-5.438-19.059L681.8,393.91c-3.253-4.678-7.584-7.284-12.086-7.272H651.267c-4.989.02-9.777-2.959-13.3-8.273l-14.017-21.1c-3.281-4.95-7.742-7.727-12.392-7.712H308.594c-4.65-.015-9.111,2.761-12.392,7.712l-15.3,22.992c-3.3,4.927-5.146,11.632-5.132,18.62V903.652H274.49V398.874c-.013-7.5,1.969-14.691,5.506-19.979L295.3,355.9c3.519-5.314,8.307-8.293,13.3-8.273H611.541c4.989-.02,9.777,2.959,13.3,8.273l14.071,21.1c3.279,4.955,7.742,7.732,12.392,7.712h18.422c4.83-.013,9.477,2.779,12.97,7.793l9.191,13.166c3.713,5.334,5.819,12.71,5.832,20.428V903.652h-1.285Z" transform="translate(-264.235 -318.775)" fill="#153761"/>
  <path id="Path_499" data-name="Path 499" d="M686.095,348.715l-14.636-23.921c-2.12-3.465-4.995-5.413-7.993-5.413H443.127c-3,0-5.872,1.946-7.992,5.411L419.76,349.92Z" transform="translate(-377.532 -319.38)" fill="#153761"/>
  <path id="Path_500" data-name="Path 500" d="M895.606,460.162a30.13,30.13,0,0,1,3.912-15.433l7.268-11.879-.25,468.978H895.6Z" transform="translate(-895.6 -316.951)" fill="#153761"/>
  <path id="Path_501" data-name="Path 501" d="M696.431,1114.166c-.011,7.2-1.974,14.089-5.438,19.07l-9.191,13.156c-3.253,4.675-7.584,7.278-12.086,7.262H651.267c-4.991-.02-9.779,2.963-13.3,8.284l-14.017,21.092c-3.279,4.955-7.742,7.733-12.392,7.712H308.594c-4.651.021-9.113-2.756-12.392-7.712l-15.3-22.992c-3.3-4.923-5.146-11.625-5.132-18.61V892H274.49v249.427c-.012,7.5,1.971,14.689,5.506,19.979l15.3,22.981c3.518,5.318,8.306,8.3,13.3,8.273H611.541c4.99.024,9.779-2.955,13.3-8.274l14.071-21.092c3.279-4.955,7.742-7.732,12.392-7.712h18.422c4.832.014,9.48-2.783,12.97-7.8l9.19-13.156c3.71-5.336,5.816-12.711,5.832-20.428V892h-1.285Z" transform="translate(-264.235 -307.124)" fill="#046"/>
  <path id="Path_503" data-name="Path 503" d="M293.242,390.658l14.428-21.5c3.2-4.8,7.552-7.5,12.087-7.5H612.632c4.535,0,8.884,2.694,12.087,7.5l13.213,19.774c3.2,4.8,7.553,7.493,12.087,7.487h17.362c4.392,0,8.614,2.533,11.793,7.068l8.64,12.287c3.386,4.826,5.3,11.52,5.3,18.518V901.125H288.24V408.747a33.119,33.119,0,0,1,5-18.089Z" transform="translate(-268.223 -318.475)" fill="#046" opacity="0.412"/>
  <path id="Path_504" data-name="Path 504" d="M693.107,1101.363c0,7-1.91,13.692-5.3,18.518l-8.647,12.328c-3.179,4.535-7.4,7.066-11.793,7.068H650.008c-4.534-.007-8.883,2.687-12.087,7.487l-13.213,19.774c-3.2,4.8-7.552,7.5-12.087,7.5H319.72c-4.534,0-8.884-2.693-12.087-7.5L293.233,1145a33.117,33.117,0,0,1-5-18.089V889.82H693.107Z" transform="translate(-268.213 -307.17)" fill="#046" opacity="0.412"/>
  <g id="Group_12" data-name="Group 12" transform="translate(0 44.901)">
    <path id="Path_498" data-name="Path 498" d="M693.529,436.452c-.01-6.864-1.887-13.425-5.2-18.171l-8.646-12.328c-3.113-4.461-7.257-6.946-11.567-6.935H650.75c-4.61.008-9.032-2.738-12.283-7.63l-13.211-19.774c-3.136-4.722-7.4-7.37-11.853-7.354H320.513c-4.451-.018-8.721,2.631-11.86,7.354l-14.4,21.541a32.27,32.27,0,0,0-4.906,17.752V903.315H288.7V410.907c0-6.9,1.834-13.519,5.1-18.385L308.2,370.97c3.26-4.9,7.7-7.652,12.317-7.63H613.375c4.61-.008,9.031,2.738,12.283,7.63L638.9,390.7c3.136,4.722,7.4,7.37,11.853,7.354h17.367c4.469-.022,8.772,2.54,12.01,7.15l8.646,12.339c3.441,4.925,5.39,11.739,5.4,18.865v466.9h-.641Z" transform="translate(-269.57 -363.34)" fill="#046"/>
    <path id="Path_502" data-name="Path 502" d="M693.529,1103.512c-.009,6.861-1.886,13.42-5.2,18.161l-8.646,12.339c-3.115,4.454-7.259,6.935-11.567,6.925H650.75c-4.611,0-9.032,2.746-12.283,7.64l-13.211,19.775c-3.136,4.722-7.4,7.37-11.853,7.354H320.513c-4.451.018-8.721-2.63-11.86-7.354l-14.4-21.552a32.23,32.23,0,0,1-4.906-17.752V892H288.7v237.078c-.012,6.919,1.826,13.558,5.1,18.436l14.392,21.542c3.259,4.907,7.695,7.658,12.317,7.64H613.375c4.611,0,9.032-2.746,12.283-7.64l13.211-19.774c3.137-4.719,7.405-7.364,11.853-7.344h17.394c4.474.007,8.776-2.573,12.01-7.2l8.646-12.328c3.439-4.927,5.388-11.739,5.4-18.865V892h-.641Z" transform="translate(-269.57 -352.025)" fill="#046"/>
    <path id="Path_505" data-name="Path 505" d="M895.606,1078.314a30.16,30.16,0,0,0,3.913,15.435l7.267,11.877L906.537,892H895.6Z" transform="translate(-895.6 -352.025)" fill="#153761"/>
  </g>
</svg>
