<svg xmlns="http://www.w3.org/2000/svg" width="43.74" height="34.747" viewBox="0 0 43.74 34.747">
  <g id="SOUND_ON" data-name="SOUND ON" transform="translate(0 -9.565)">
    <path id="Path_8065" data-name="Path 8065" d="M21.883,40.572A1.986,1.986,0,0,1,18.629,42.1L7.77,33.1H1.986A1.986,1.986,0,0,1,0,31.117V23.2a1.987,1.987,0,0,1,1.986-1.987H7.77l10.859-9a1.987,1.987,0,0,1,3.254,1.53V40.572Zm7.633-3.1c-.048,0-.095.005-.143.005a1.984,1.984,0,0,1-1.4-.582l-.266-.267a1.985,1.985,0,0,1-.192-2.588,11.55,11.55,0,0,0-.306-14.154,1.985,1.985,0,0,1,.137-2.656l.265-.266a1.943,1.943,0,0,1,1.5-.579,1.989,1.989,0,0,1,1.439.726,15.907,15.907,0,0,1,.414,19.567A1.988,1.988,0,0,1,29.516,37.469Zm8.212,6.138a1.988,1.988,0,0,1-1.435.7l-.083,0a1.985,1.985,0,0,1-1.4-.582l-.261-.261a1.987,1.987,0,0,1-.116-2.683,21.168,21.168,0,0,0-.351-27.657,1.987,1.987,0,0,1,.08-2.719l.26-.261a1.933,1.933,0,0,1,1.464-.584,1.986,1.986,0,0,1,1.427.666,25.5,25.5,0,0,1,.418,33.375Z" fill="#fff"/>
  </g>
</svg>
