<svg xmlns="http://www.w3.org/2000/svg" width="109.57" height="170" viewBox="0 0 109.57 170">
  <g id="tap" transform="translate(-91)" opacity="0.496">
    <path id="Path_8047" data-name="Path 8047" d="M95.98,39.844a4.981,4.981,0,0,0,4.98-4.98,24.9,24.9,0,0,1,49.8,0,4.98,4.98,0,0,0,9.961,0,34.863,34.863,0,0,0-69.727,0A4.981,4.981,0,0,0,95.98,39.844Z" fill="#fafafa"/>
    <path id="Path_8048" data-name="Path 8048" d="M113.675,209.553a4.982,4.982,0,0,0,2.227.526h69.727a4.98,4.98,0,0,0,3.522-1.459,38.733,38.733,0,0,0,11.42-27.569V135.371a14.932,14.932,0,0,0-20.448-13.885,14.928,14.928,0,0,0-19.922-9.961,14.933,14.933,0,0,0-19.4-10.16V74.941a14.941,14.941,0,0,0-29.883,0v55.449h-4.98A14.958,14.958,0,0,0,91,145.332v27.531a41.021,41.021,0,0,0,22.675,36.689Zm-12.714-64.22a4.986,4.986,0,0,1,4.98-4.98h4.98v21.411a4.98,4.98,0,0,0,9.961,0V74.941a4.98,4.98,0,0,1,9.961,0v70.391a4.98,4.98,0,1,0,9.961,0V115.449a4.98,4.98,0,1,1,9.961,0v29.883a4.98,4.98,0,1,0,9.961,0V125.41a4.98,4.98,0,1,1,9.961,0v19.922a4.98,4.98,0,1,0,9.961,0v-9.961a4.98,4.98,0,0,1,9.961,0V181.05a28.814,28.814,0,0,1-7.138,19.067H117.123a30.877,30.877,0,0,1-16.162-27.254Z" transform="translate(0 -40.078)" fill="#fafafa"/>
  </g>
</svg>
