<svg xmlns="http://www.w3.org/2000/svg" width="29.66" height="26.886" viewBox="0 0 29.66 26.886">
  <g id="warning" transform="translate(0 -23.946)">
    <path id="Path_8055" data-name="Path 8055" d="M201.647,26.188,212,44.122a4.475,4.475,0,0,1-3.878,6.71H197.77l-3.581-13.443,3.581-13.443A4.473,4.473,0,0,1,201.647,26.188Z" transform="translate(-182.94)" fill="#3b4145"/>
    <path id="Path_8056" data-name="Path 8056" d="M10.952,26.188.6,44.122a4.475,4.475,0,0,0,3.878,6.71H14.83V23.946A4.473,4.473,0,0,0,10.952,26.188Z" fill="#525a61"/>
    <path id="Path_8057" data-name="Path 8057" d="M269.934,74.157,259.579,56.223a2.7,2.7,0,0,0-2.25-1.345l8.856,23.3h1.422a2.685,2.685,0,0,0,2.327-4.025Z" transform="translate(-242.422 -29.14)" fill="#ffb751"/>
    <path id="Path_8058" data-name="Path 8058" d="M54.886,74.128a3.015,3.015,0,0,1,.309,1.339,2.524,2.524,0,0,1-2.317,2.686H33.592a2.685,2.685,0,0,1-2.327-4.025L41.618,56.194a2.7,2.7,0,0,1,2.327-1.347l.077,0a2.3,2.3,0,0,1,1.931,1.345Z" transform="translate(-29.116 -29.111)" fill="#ffd764"/>
    <path id="Path_8059" data-name="Path 8059" d="M256,354.131v2.984a1.492,1.492,0,1,0,0-2.984Z" transform="translate(-241.17 -311.057)" fill="#3b4145"/>
    <path id="Path_8060" data-name="Path 8060" d="M231.737,354.131c.165,0,.3.668.3,1.492s-.134,1.492-.3,1.492a1.492,1.492,0,0,1,0-2.984Z" transform="translate(-216.907 -311.057)" fill="#525a61"/>
    <path id="Path_8061" data-name="Path 8061" d="M256,132.646v11.041a1.492,1.492,0,0,0,1.492-1.492v-8.057A1.492,1.492,0,0,0,256,132.646Z" transform="translate(-241.17 -102.403)" fill="#3b4145"/>
    <path id="Path_8062" data-name="Path 8062" d="M231.737,132.646c.165,0,.3.668.3,1.492v8.057c0,.824-.134,1.492-.3,1.492a1.492,1.492,0,0,1-1.492-1.492v-8.057A1.492,1.492,0,0,1,231.737,132.646Z" transform="translate(-216.907 -102.403)" fill="#525a61"/>
  </g>
</svg>
